<svg xmlns="http://www.w3.org/2000/svg" width="155mm" height="66mm" viewBox="0 0 439.37 187.09">
  <defs>
    <style>
      .cls-1 {
        fill: #fff;
      }

      .cls-2 {
        fill: #95272d;
      }
    </style>
  </defs>
  <g id="UI_elementer" data-name="UI elementer">
    <g>
      <path class="cls-1" d="M436.55,81.77S412.67,30,325.14,46c0,0-131.31-97.6-214.87-3.05,0,0-111.41-.93-107.43,54.77s111.41,55.85,111.41,55.85,65.64,71.76,194,0C308.22,153.53,440.53,165.33,436.55,81.77Z"/>
      <g>
        <path class="cls-2" d="M124.1,102V77.29h-6.18v-3.1h18.57v3.1h-6.18V102Z"/>
        <path class="cls-2" d="M145.77,102h-6.18V80.37h6.18v6.2a7.65,7.65,0,0,1,1.91-4.65,5.84,5.84,0,0,1,4.3-1.55h3.07v6.2h-6.18a3,3,0,0,0-2.19.91,3,3,0,0,0-.91,2.17Z"/>
        <path class="cls-2" d="M161.26,105.14c.14,2,1.17,3.07,3.07,3.07h3.1a3,3,0,0,0,2.19-.9,3,3,0,0,0,.92-2.17V98.93q-.36,3.1-3.11,3.1h-3.1a6.21,6.21,0,0,1-6.18-6.17V80.37h6.18V95.86a3.11,3.11,0,0,0,6.21,0V80.37h6.18v24.77a6.27,6.27,0,0,1-6.18,6.18h-6.21q-5.46,0-6.18-6.18Z"/>
        <path class="cls-2" d="M204.34,89.65V86.57a3,3,0,0,0-.92-2.18,3,3,0,0,0-2.18-.92h-3.11c-1.82,0-2.85,1-3.07,3.1H192q.71-6.19,6.17-6.2h6.21a5.93,5.93,0,0,1,4.36,1.83,6,6,0,0,1,1.82,4.37V102h-6.18v-3.1q-.36,3.1-3.1,3.1h-3.11A6.21,6.21,0,0,1,192,95.86v0a6.21,6.21,0,0,1,6.17-6.18Zm0,3.1h-3.1a3,3,0,0,0-2.19.91,3,3,0,0,0-.92,2.17v0a3.11,3.11,0,0,0,3.11,3.07,3.11,3.11,0,0,0,3.1-3.07Z"/>
        <path class="cls-2" d="M235.26,80.37v24.77a6.27,6.27,0,0,1-6.18,6.18h-6.21q-5.46,0-6.17-6.18h3.1c.14,2,1.17,3.07,3.07,3.07H226a3,3,0,0,0,2.18-.9,3,3,0,0,0,.92-2.17V98.93q-.36,3.1-3.1,3.1h-3.11a6.21,6.21,0,0,1-6.17-6.17V86.57a6.21,6.21,0,0,1,6.17-6.2Zm-6.18,3.1H226a3,3,0,0,0-2.19.92,3,3,0,0,0-.92,2.18v9.29A3.11,3.11,0,0,0,226,98.93a3.11,3.11,0,0,0,3.1-3.07Z"/>
        <path class="cls-2" d="M253.82,89.65V86.57a3,3,0,0,0-.92-2.18,3,3,0,0,0-2.18-.92h-3.11c-1.82,0-2.85,1-3.07,3.1h-3.1q.7-6.19,6.17-6.2h6.21a5.93,5.93,0,0,1,4.36,1.83A6,6,0,0,1,260,86.57V102h-6.18v-3.1c-.24,2.07-1.28,3.1-3.1,3.1h-3.11a6.21,6.21,0,0,1-6.17-6.17v0a6.21,6.21,0,0,1,6.17-6.18Zm0,3.1h-3.1a3,3,0,0,0-2.19.91,3,3,0,0,0-.92,2.17v0a3.11,3.11,0,0,0,3.11,3.07,3.11,3.11,0,0,0,3.1-3.07Z"/>
        <path class="cls-2" d="M266.18,77.29v-3.1h6.17v3.1Zm0,24.74V80.37h6.17V102Z"/>
        <path class="cls-2" d="M278.56,102V80.37h6.18v3.1a3.83,3.83,0,0,1,1-2.33,2.88,2.88,0,0,1,2.14-.77H291a5.91,5.91,0,0,1,4.35,1.83,6,6,0,0,1,1.82,4.37V102H291V86.57a3,3,0,0,0-.92-2.18,3,3,0,0,0-2.19-.92,3,3,0,0,0-2.19.92,3,3,0,0,0-.91,2.18V102Z"/>
      </g>
    </g>
  </g>
</svg>
