<svg xmlns="http://www.w3.org/2000/svg" width="155mm" height="66mm" viewBox="0 0 439.37 187.09">
  <defs>
    <style>
      .cls-1 {
        fill: #fff;
      }

      .cls-2 {
        fill: #95272d;
      }
    </style>
  </defs>
  <g id="UI_elementer" data-name="UI elementer">
    <g>
      <path class="cls-1" d="M438.74,81.65S414.62,29.4,326.2,45.48c0,0-132.63-98.59-217-3.08,0,0-112.54-.94-108.52,55.33s112.54,56.41,112.54,56.41,66.3,72.48,195.92,0C309.11,154.14,442.76,166.05,438.74,81.65Z"/>
      <g>
        <path class="cls-2" d="M154.83,115V73.7h18.35a9.22,9.22,0,0,1,9.15,9.15v4.6a9.18,9.18,0,0,1-9.15,9.15H164V115ZM164,92.05h4.59a4.43,4.43,0,0,0,3.24-1.37,4.38,4.38,0,0,0,1.36-3.23v-4.6a4.36,4.36,0,0,0-1.36-3.21,4.48,4.48,0,0,0-3.24-1.34H164Z"/>
        <path class="cls-2" d="M191.49,115V73.7h9.15V115Z"/>
        <path class="cls-2" d="M228.18,96.6V92.05a4.63,4.63,0,0,0-4.6-4.6H219q-4.06,0-4.56,4.6h-4.6q1.06-9.19,9.16-9.2h9.19a9.24,9.24,0,0,1,9.15,9.2V115h-9.15v-4.6q-.54,4.61-4.6,4.6H219a9.22,9.22,0,0,1-9.16-9.15v0A9.24,9.24,0,0,1,219,96.6Zm0,4.6h-4.6a4.45,4.45,0,0,0-3.24,1.34,4.39,4.39,0,0,0-1.35,3.22v0a4.59,4.59,0,0,0,4.59,4.55,4.59,4.59,0,0,0,4.6-4.55Z"/>
        <path class="cls-2" d="M251.08,119.55c.22,3,1.74,4.55,4.56,4.55h4.6a4.44,4.44,0,0,0,3.23-1.34,4.34,4.34,0,0,0,1.36-3.21v-9.2c-.35,3.07-1.89,4.6-4.59,4.6h-4.6a9.2,9.2,0,0,1-9.15-9.15v-23h9.15v23a4.6,4.6,0,0,0,9.19,0v-23H274v36.7a9.27,9.27,0,0,1-9.16,9.15h-9.19q-8.1,0-9.15-9.15Z"/>
      </g>
    </g>
  </g>
</svg>
