<svg xmlns="http://www.w3.org/2000/svg" width="76mm" height="59mm" viewBox="0 0 215.43 167.24">
  <defs>
    <style>
      .cls-1 {
        fill: #ba7c5e;
      }

      .cls-2 {
        fill: #553a3e;
      }

      .cls-3 {
        fill: #765036;
      }
    </style>
  </defs>
  <g id="Spillelementer">
    <g>
      <path class="cls-1" d="M37.84,17.58s-6.76,49.9-24.06,59.56,0,29,0,29,39.42,95.8,95.18,3.22V17.58Z"/>
      <path class="cls-2" d="M7.86,96.7s5.34,4.16,5.92-19.56C13.78,77.14-7.16,85.76,7.86,96.7Z"/>
      <path class="cls-3" d="M19.78,71.81,12,78.19s1.6,21.18-4.09,18.51l8.24,13.77S26.62,90.59,19.78,71.81Z"/>
      <path class="cls-1" d="M177.6,17.58s6.76,49.9,24.06,59.56,0,29,0,29-39.43,95.8-95.19,3.22V17.58Z"/>
      <path class="cls-2" d="M207.58,96.7s-5.34,4.16-5.92-19.56C201.66,77.14,222.59,85.76,207.58,96.7Z"/>
      <path class="cls-3" d="M195.66,71.81l7.82,6.38s-1.6,21.18,4.1,18.51l-8.25,13.77S188.81,90.59,195.66,71.81Z"/>
      <path class="cls-3" d="M107.72,111.38s-2.46-30.71,0-35.1Z"/>
    </g>
  </g>
</svg>
