<svg xmlns="http://www.w3.org/2000/svg" width="76mm" height="59mm" viewBox="0 0 215.43 167.24">
  <defs>
    <style>
      .cls-1 {
        fill: #de9f67;
      }

      .cls-2 {
        fill: #c67742;
      }

      .cls-3 {
        fill: #b77c52;
      }

      .cls-4 {
        fill: #603813;
      }
    </style>
  </defs>
  <g id="Spillelementer">
    <g>
      <path class="cls-1" d="M114.53,67.7s-21.44,38.3-11.7,57.77,39.57,39.89,50.93,32.75L151.83,67.7Z"/>
      <path class="cls-1" d="M188.48,67.7s21.44,38.3,11.71,57.77-45.53,40.12-56.89,33l7.88-90.75Z"/>
      <polygon class="cls-1" points="188.79 83.62 97.92 85.51 108.87 7.23 187.34 7.23 188.79 83.62"/>
      <polygon class="cls-1" points="118.47 88.64 69.98 88.64 26.76 77.64 28.1 7.23 108.87 7.23 118.47 88.64"/>
      <path class="cls-1" d="M27,67.82s-21.44,38.29-11.7,57.76,39.57,39.89,50.93,32.75L64.25,67.82Z"/>
      <path class="cls-1" d="M100.2,67.82s21.44,38.29,11.7,57.76-45.52,40.13-56.88,33L62.9,67.82Z"/>
      <circle class="cls-2" cx="154.24" cy="136.33" r="13.46"/>
      <circle class="cls-3" cx="154.24" cy="133.66" r="9.98"/>
      <circle class="cls-1" cx="154.24" cy="132.99" r="6.17"/>
      <circle class="cls-4" cx="154.24" cy="132.74" r="3.09"/>
      <circle class="cls-2" cx="60.01" cy="139.16" r="13.46"/>
      <circle class="cls-3" cx="60.01" cy="136.5" r="9.98"/>
      <circle class="cls-1" cx="60.01" cy="135.83" r="6.17"/>
      <circle class="cls-4" cx="60.01" cy="135.58" r="3.09"/>
      <path class="cls-3" d="M107,133s-21-45.87.68-65.17C107.72,67.82,92,88.32,107,133Z"/>
    </g>
  </g>
</svg>
