<svg xmlns="http://www.w3.org/2000/svg" width="76mm" height="59mm" viewBox="0 0 215.43 167.24">
  <defs>
    <style>
      .cls-1 {
        fill: #eabec9;
      }

      .cls-2 {
        fill: #e0b2b2;
      }

      .cls-3 {
        fill: #b76d70;
      }
    </style>
  </defs>
  <g id="Spillelementer">
    <g>
      <polygon class="cls-1" points="107.72 120.71 30.53 120.71 30.53 2.36 107.72 1.67 107.72 120.71"/>
      <ellipse class="cls-1" cx="69.12" cy="120.71" rx="38.59" ry="39.53"/>
      <path class="cls-2" d="M90.89,151.56c0,3.79-11.32,8.67-21.68,8.67s-21.42-4.88-21.42-8.67,11.06-11.34,21.42-11.34S90.89,147.76,90.89,151.56Z"/>
      <circle class="cls-3" cx="69.21" cy="158.04" r="8.15"/>
      <polygon class="cls-1" points="184.9 120.1 96.09 120.1 92.35 1.68 184.9 1.06 184.9 120.1"/>
      <ellipse class="cls-1" cx="146.31" cy="120.1" rx="38.59" ry="39.53"/>
      <path class="cls-2" d="M168.08,151c0,3.79-11.32,8.67-21.69,8.67S125,154.74,125,151s11.06-11.34,21.42-11.34S168.08,147.15,168.08,151Z"/>
      <circle class="cls-3" cx="146.39" cy="157.43" r="8.15"/>
      <path class="cls-2" d="M107.72,120.1s-9.24-74.51-1.88-97.45Z"/>
    </g>
  </g>
</svg>
