<svg xmlns="http://www.w3.org/2000/svg" width="76mm" height="59mm" viewBox="0 0 215.43 167.24">
  <defs>
    <style>
      .cls-1 {
        fill: #f1d6d1;
      }

      .cls-2 {
        fill: #eabec9;
      }

      .cls-3 {
        fill: #c6636a;
      }
    </style>
  </defs>
  <g id="Spillelementer">
    <g>
      <rect class="cls-1" x="15.74" y="30.11" width="183.95" height="76.51"/>
      <path class="cls-1" d="M199.69,104.62c0,17.3-31.47,32.51-48.77,32.51s-48.78-15.21-48.78-32.51,28-40.26,45.28-40.26S199.69,87.31,199.69,104.62Z"/>
      <path class="cls-1" d="M113.29,104.62c0,17.3-31.47,32.51-48.78,32.51s-48.77-15.21-48.77-32.51S43.71,64.36,61,64.36,113.29,87.31,113.29,104.62Z"/>
      <circle class="cls-2" cx="62.65" cy="102.79" r="15.25"/>
      <circle class="cls-2" cx="150.92" cy="102.79" r="15.25"/>
      <circle class="cls-3" cx="62.65" cy="102.79" r="3.5"/>
      <circle class="cls-3" cx="150.92" cy="104.24" r="3.5"/>
      <path class="cls-2" d="M107.72,117.45s8.59-20.85,4.67-29.92C112.39,87.53,114.66,98.39,107.72,117.45Z"/>
    </g>
  </g>
</svg>
