<svg xmlns="http://www.w3.org/2000/svg" xmlns:xlink="http://www.w3.org/1999/xlink" width="677.33mm" height="381mm" viewBox="0 0 1920 1080">
  <defs>
    <style>
      .cls-1 {
        fill: url(#linear-gradient);
      }

      .cls-2 {
        fill: #fff;
      }

      .cls-3 {
        fill: #95272d;
      }

      .cls-4 {
        fill: #de9f8a;
      }

      .cls-5 {
        fill: #c6776a;
      }
    </style>
    <linearGradient id="linear-gradient" x1="954.9" y1="-1.11" x2="965.81" y2="1077.07" gradientUnits="userSpaceOnUse">
      <stop offset="0.25" stop-color="#c0f5fd"/>
      <stop offset="0.53" stop-color="#ecbdc0"/>
      <stop offset="0.78" stop-color="#d490b0"/>
      <stop offset="1" stop-color="#95272d"/>
    </linearGradient>
  </defs>
  <g id="Spilleskaerm">
    <rect class="cls-1" x="0.38" y="0.07" width="1920" height="1080"/>
    <rect class="cls-2" x="493.56" y="0.07" width="941.82" height="1080"/>
    <path class="cls-2" d="M190.94,562.12s14.67-18.34,35.77-11c0,0,22.92-20.88,52.27-1.73,0,0,26.59-2.85,29.34,8.15S293.65,574,293.65,574s-18.34,12.43-35.76,7.59c0,0-9.17,7.08-32.1-5.76C225.79,575.87,184.52,579.54,190.94,562.12Z"/>
    <path class="cls-2" d="M97.63,506s8.12-17.59,37.89-12.18c0,0,44.66-33.19,73.08-1,0,0,37.89-.32,36.54,18.62s-37.9,19-37.9,19-22.32,24.4-66,0C141.28,530.45,96.28,534.46,97.63,506Z"/>
    <g>
      <path class="cls-3" d="M274.88,581.8a11.07,11.07,0,0,1,3.17-11.28c4.2-3.57,10.91-2.88,14,.43.63.67,1.67,1.77,1.58,3.09C293.32,579,277.52,581.41,274.88,581.8Z"/>
      <path class="cls-3" d="M312.54,581.8a11.07,11.07,0,0,0-3.17-11.28c-4.2-3.57-10.91-2.88-14,.43-.63.67-1.67,1.77-1.58,3.09C294.1,579,309.9,581.41,312.54,581.8Z"/>
      <polygon class="cls-3" points="274.88 581.8 293.65 601.33 312.54 581.8 293.65 574.04 274.88 581.8"/>
    </g>
    <path class="cls-2" d="M1656.06,306.94s4.64-10.05,21.65-7c0,0,25.52-19,41.76-.59,0,0,21.65-.18,20.88,10.64s-21.65,10.86-21.65,10.86-12.76,13.94-37.7,0C1681,320.89,1655.29,323.18,1656.06,306.94Z"/>
    <path class="cls-2" d="M1588.8,272s8.39-10.48,20.44-6.29c0,0,13.1-11.93,29.87-1,0,0,15.2-1.63,16.77,4.66s-8.39,9.43-8.39,9.43-10.48,7.11-20.43,4.34c0,0-5.24,4.05-18.34-3.29C1608.72,279.9,1585.14,282,1588.8,272Z"/>
    <path class="cls-2" d="M1675.91,835.73s-14.67-18.34-35.77-11c0,0-22.92-20.89-52.27-1.73,0,0-26.59-2.86-29.34,8.15s14.67,16.5,14.67,16.5,18.34,12.44,35.77,7.6c0,0,9.17,7.08,32.09-5.76C1641.06,849.49,1682.33,853.16,1675.91,835.73Z"/>
    <path class="cls-2" d="M1815.36,781.78s-8.12-17.59-37.9-12.18c0,0-44.65-33.19-73.07-1,0,0-37.89-.32-36.54,18.62s37.89,19,37.89,19,22.33,24.4,66,0C1771.71,806.19,1816.71,810.2,1815.36,781.78Z"/>
    <g>
      <path class="cls-3" d="M1695.35,887.46a11.08,11.08,0,0,0-3.16-11.29c-4.2-3.56-10.91-2.88-14,.43-.63.67-1.67,1.78-1.58,3.09C1676.92,884.62,1692.72,887.07,1695.35,887.46Z"/>
      <path class="cls-3" d="M1657.7,887.46a11.08,11.08,0,0,1,3.16-11.29c4.21-3.56,10.91-2.88,14,.43.64.67,1.67,1.78,1.59,3.09C1676.13,884.62,1660.33,887.07,1657.7,887.46Z"/>
      <polygon class="cls-3" points="1695.35 887.46 1676.58 906.99 1657.7 887.46 1676.59 879.69 1695.35 887.46"/>
    </g>
    <path d="M868,47s-5.55-12.35,2.77-17.9l1,35.3s-1.26,2.52-1.51,3.28,4.28.5,6.3-5,0-36.3,0-36.3.25-1.42-5.8-1.42-9.28,12-9.28,13.77S863.44,48,868,47Z"/>
    <path d="M882.35,38.39V63.85h5.8S887.89,50,896,43.18V61.33s4,8.32,10.34-2.27l6.3-10.59,5.8,5.4s3.28,10.24-6.55,4.19c0,0-4.79,1-1.77,4.53s11.6,0,11.6,0l6.3-7.06s.25,7,4,8.91,8.57-6.38,8.57-6.38,3.78,5.54,6.8,5.29,6.56-.25,7.57-4c0,0,6,9.83,10.84,1,0,0,8.07,8.07,12.86-.25v3l-9.33,9.58s-4.29,10.19,6,10.19,8.32-10.44,8.32-10.44l.16-11.8S990,56.79,994,44.69h3.53V58.56s6.8,11.2,11.09,2.07c0,0,6.3,9,13.87-1.31,0,0,4.28,10.94,10.08,1.31v3h6.55V53.87s1.52-7.16,3.79-8.67,1.76,2.52,1.76,2.52l0,10.59s3,6,5,3.78,2-8.22,2-8.22,1.51-8.67,2.77-9.18V57.8s6.31,13.47,11.85,2.83c0,0,1.08-.56,1.08-5.1s-2.08,3-2.08,3-4,5.8-5.05-.25-.25-16.89-.25-16.89-3.24-6.49-7.78-.65l-3.24,12.15-.81-12s-3.57-4.54-7-.16-2.92,7.45-2.92,7.45l-.16-9.24h-4.87l-.16,17.67s-2.59,9.89-6.48,1.3V39h-4.22l.16,2s-6.16-6.81-11.83.16-2.92,16.54-2.92,16.54-1.62,7-5.35,1l.65-17.83h-7.94s.65-5.47-4.54-2.82c0,0-3.74,1.94-1.13,6.71,0,0-.11,8.25-5.52,11.83l.17-17-4.7-.49-.17,2.11s-3.4-5.67-9.88-.65-5,15.89-5,15.89-.87,9.08-4.09,1.78V38.82h-5.66l-.16,1.78s-1.78-4.86-9.08-1.45-5.35,14.72-5.35,14.72-3.72,11.54-6.32,3.43V37.22h7.62V33.8h-7.94V25.85h-5l-.16,6.81-6.65.16L921.49,37H928L927.65,51a9.47,9.47,0,0,1-4,5.35s.32-5.58-7.62-9.92c0,0-2.27-4,1.46-4.67l-.16-3.57s-6-1.78-7.13,1.46a12,12,0,0,0,0,6.78S907.23,55,903,58.11l-.48-17.18s-2.92-5.51-7.62-2.43-7.13,12-7.13,12l-.33-12Z"/>
    <path class="cls-2" d="M978.58,67.12s-8.55,10.11-4.8,12.93S980.17,77.27,978.58,67.12Z"/>
    <path class="cls-2" d="M422,71.09S398.15,19.37,310.61,35.28c0,0-131.31-97.6-214.86-3,0,0-111.42-.94-107.44,54.77S99.72,142.86,99.72,142.86s65.64,71.76,194,0C293.69,142.86,426,154.65,422,71.09Z"/>
    <g>
      <g>
        <path class="cls-3" d="M115.7,75.62c-.28,4.12-2.33,6.18-6.18,6.18h-6.21a6.21,6.21,0,0,1-6.18-6.18V60.14a6,6,0,0,1,1.79-4.34A5.89,5.89,0,0,1,103.31,54h6.21q5.82,0,6.18,6.18h-3.11q-.36-3.07-3.07-3.08h-3.11a3.12,3.12,0,0,0-3.1,3.08V75.62a2.92,2.92,0,0,0,.91,2.16,3,3,0,0,0,2.19.92h3.11q2.73,0,3.07-3.08Z"/>
        <path class="cls-3" d="M140.44,72.52H128.05v3.1a2.92,2.92,0,0,0,.91,2.16,3,3,0,0,0,2.19.92h3.11q3.08,0,3.07-3.08h3.11q-.74,6.18-6.18,6.18h-6.21a6.21,6.21,0,0,1-6.18-6.18V66.34a6.23,6.23,0,0,1,6.18-6.2h6.21a6.23,6.23,0,0,1,6.18,6.2Zm-12.39-3.1h6.21V66.34a3.12,3.12,0,0,0-3.11-3.1,3,3,0,0,0-2.18.91,3,3,0,0,0-.92,2.19Z"/>
        <path class="cls-3" d="M146.61,81.8V60.14h6.18v3.1a3.87,3.87,0,0,1,1-2.34,2.9,2.9,0,0,1,2.14-.76H159a6.23,6.23,0,0,1,6.18,6.2V81.8H159V66.34a3.11,3.11,0,0,0-6.21,0V81.8Z"/>
        <path class="cls-3" d="M186.81,66.34h-3.07q-.41-3.11-2.93-3.1a4,4,0,0,0-2.47.64,2.3,2.3,0,0,0-.82,1.92c0,.9,1.5,2.14,4.51,3.75q3.66,2,4.22,3.27a6.74,6.74,0,0,1,.56,2.76,6.21,6.21,0,0,1-6.18,6.22h-3.1q-6.18,0-6.18-6.18h3.11c.24,2.06,1.2,3.09,2.9,3.09a4,4,0,0,0,2.46-.65,2.32,2.32,0,0,0,.83-1.93q0-1.3-4.5-3.74c-2.45-1.31-3.87-2.39-4.24-3.26a7,7,0,0,1-.56-2.76,6.23,6.23,0,0,1,6.18-6.23h3.1Q186.44,60.14,186.81,66.34Z"/>
        <path class="cls-3" d="M199.2,60.14h6.2a6.23,6.23,0,0,1,6.18,6.2v9.28a6.23,6.23,0,0,1-6.18,6.18h-6.2A6.21,6.21,0,0,1,193,75.62V66.34a6.23,6.23,0,0,1,6.18-6.2Zm0,6.2v9.28a3,3,0,0,0,.9,2.16,3.09,3.09,0,0,0,4.4,0,3,3,0,0,0,.9-2.16V66.34a3.1,3.1,0,0,0-6.2,0Z"/>
        <path class="cls-3" d="M223.94,81.8h-6.18V60.14h6.18v6.2a7.62,7.62,0,0,1,1.91-4.65,5.79,5.79,0,0,1,4.29-1.55h3.08v6.2H227a3,3,0,0,0-2.19.91,2.94,2.94,0,0,0-.91,2.17Z"/>
        <path class="cls-3" d="M248.49,54h6.18v6.18h3.1v3.1h-3.1V75.62a2.75,2.75,0,0,0,1,2.29,3.07,3.07,0,0,0,1.83.79h.29v3.1h-3.1a6.2,6.2,0,0,1-6.18-6.18V63.24h-3.1v-3.1h3.1Z"/>
        <path class="cls-3" d="M264,81.8V54h6.18v9.28a3.8,3.8,0,0,1,1-2.34,2.92,2.92,0,0,1,2.14-.76h3.1A5.93,5.93,0,0,1,280.69,62a6,6,0,0,1,1.82,4.37V81.8h-6.18V66.34a3.1,3.1,0,0,0-6.2,0V81.8Z"/>
        <path class="cls-3" d="M307.25,72.52H294.87v3.1a3,3,0,0,0,.9,2.16,3,3,0,0,0,2.2.92h3.1q3.07,0,3.08-3.08h3.1q-.72,6.18-6.18,6.18h-6.2a6.21,6.21,0,0,1-6.18-6.18V66.34a6.21,6.21,0,0,1,6.18-6.2h6.2A5.93,5.93,0,0,1,305.43,62a6,6,0,0,1,1.82,4.37Zm-12.38-3.1h6.2V66.34a3.1,3.1,0,0,0-6.2,0Z"/>
        <path class="cls-3" d="M146.4,126.35V98.51h1.4L165,114V98.51h3.1v27.84h-1.42L149.5,110.89v15.46Z"/>
        <path class="cls-3" d="M174.24,101.61v-3.1h6.18v3.1Zm0,24.74V104.68h6.18v21.67Z"/>
        <path class="cls-3" d="M186.62,104.68h6.18v3.11a3.16,3.16,0,0,1,.78-2.34,3.21,3.21,0,0,1,2.32-.77H199a6.25,6.25,0,0,1,6.18,6.21v9.28a6.21,6.21,0,0,1-6.18,6.18H192.8v6.18h-6.18Zm6.18,18.57h3.1a3,3,0,0,0,2.19-.91,3,3,0,0,0,.92-2.17v-9.28a3,3,0,0,0-.92-2.18,3,3,0,0,0-2.19-.91,2.9,2.9,0,0,0-2.18.9,3,3,0,0,0-.92,2.19Z"/>
        <path class="cls-3" d="M211.36,104.68h6.18v3.11a3.16,3.16,0,0,1,.78-2.34,3.22,3.22,0,0,1,2.33-.77h3.1a6.25,6.25,0,0,1,6.18,6.21v9.28a6.21,6.21,0,0,1-6.18,6.18h-6.21v6.18h-6.18Zm6.18,18.57h3.11a3,3,0,0,0,2.18-.91,3,3,0,0,0,.92-2.17v-9.28a3,3,0,0,0-.92-2.18,3,3,0,0,0-2.18-.91,2.92,2.92,0,0,0-2.19.9,3,3,0,0,0-.92,2.19Z"/>
        <path class="cls-3" d="M236.1,126.35V98.51h6.18v27.84Z"/>
        <path class="cls-3" d="M267.05,117.07H254.67v3.1a3.11,3.11,0,0,0,3.1,3.08h3.1q3.08,0,3.08-3.08h3.1q-.72,6.18-6.18,6.18h-6.2a6.21,6.21,0,0,1-6.18-6.18v-9.28a6.25,6.25,0,0,1,6.18-6.21h6.2a5.93,5.93,0,0,1,4.36,1.84,6,6,0,0,1,1.82,4.37ZM254.67,114h6.2v-3.08a3.1,3.1,0,0,0-6.2,0Z"/>
      </g>
      <ellipse class="cls-3" cx="198.05" cy="115.63" rx="9.27" ry="11.67"/>
      <ellipse class="cls-3" cx="222.49" cy="115.63" rx="9.27" ry="11.67"/>
      <ellipse class="cls-4" cx="198.05" cy="116.08" rx="6.49" ry="8.17"/>
      <ellipse class="cls-4" cx="222.49" cy="116.08" rx="6.49" ry="8.17"/>
      <circle class="cls-5" cx="198.05" cy="116.08" r="2.55"/>
      <circle class="cls-5" cx="222.49" cy="116.08" r="2.55"/>
    </g>
    <path class="cls-2" d="M944.4,49.78c0,4.52,1.88,9.77,4.2,9.77s4.2-5.25,4.2-9.77-.43-8.18-2.75-8.18S944.4,45.26,944.4,49.78Z"/>
    <path class="cls-2" d="M969,50.65c0,4.51.72,8.9,3,8.9s5.36-4.39,5.36-8.9,0-9-2.32-9S969,46.13,969,50.65Z"/>
    <path class="cls-2" d="M1010.91,50.36c0,4.52,1.88,9.48,4.2,9.48s5.79-4.75,5.79-9.26-1.45-9.27-3.76-9.27S1010.91,45.84,1010.91,50.36Z"/>
  </g>
</svg>
