<svg xmlns="http://www.w3.org/2000/svg" width="677.33mm" height="381mm" viewBox="0 0 1920 1080">
  <defs>
    <style>
      .cls-1 {
        fill: #b76d70;
      }

      .cls-2 {
        fill: #b56e6e;
      }

      .cls-3 {
        fill: #f5c1c1;
      }

      .cls-4 {
        fill: #f2dde2;
      }

      .cls-5 {
        fill: #c59c9e;
      }

      .cls-6 {
        fill: #ebbbbc;
      }

      .cls-7 {
        fill: #f4d5d7;
      }

      .cls-8 {
        fill: #f2ccdc;
      }

      .cls-9 {
        fill: #edc5d8;
      }

      .cls-10 {
        fill: #f0a0b0;
      }

      .cls-11 {
        fill: #577a7e;
      }

      .cls-12 {
        fill: #003b46;
      }

      .cls-13 {
        fill: #cbe2de;
      }

      .cls-14 {
        fill: #e8f2ef;
      }

      .cls-15 {
        fill: #95272d;
      }

      .cls-16 {
        fill: #a4b9b3;
      }

      .cls-17 {
        fill: #e0b2b2;
      }

      .cls-18 {
        fill: #42210b;
      }

      .cls-19, .cls-21 {
        fill: #fff;
      }

      .cls-20 {
        fill: #e08cb2;
      }

      .cls-21 {
        opacity: 0.75;
      }

      .cls-22 {
        fill: #d38e8d;
      }

      .cls-23 {
        fill: #c6776a;
      }

      .cls-24 {
        fill: #cc8071;
      }

      .cls-25 {
        fill: #d58d7a;
      }

      .cls-26 {
        fill: #c6636a;
      }
    </style>
  </defs>
  <g id="Game_over" data-name="Game over">
    <polygon class="cls-1" points="152.01 151.55 0 151.55 0 0 152.01 -0.46 152.01 151.55"/>
    <rect class="cls-2" y="303.56" width="152.01" height="152.01" transform="translate(-303.56 455.57) rotate(-90)"/>
    <rect class="cls-3" x="152.01" y="303.56" width="152.01" height="152.01" transform="translate(-151.55 607.57) rotate(-90)"/>
    <rect class="cls-4" x="304.01" y="303.56" width="152.01" height="152.01" transform="translate(0.45 759.58) rotate(-90)"/>
    <rect class="cls-5" x="152.01" y="151.55" width="152.01" height="152.01" transform="translate(0.45 455.57) rotate(-90)"/>
    <rect class="cls-6" x="304.01" y="151.55" width="152.01" height="152.01" transform="translate(152.46 607.57) rotate(-90)"/>
    <rect class="cls-7" x="152.01" y="455.57" width="152.01" height="152.01" transform="translate(-303.56 759.58) rotate(-90)"/>
    <rect class="cls-8" y="151.55" width="152.01" height="152.01" transform="translate(-151.55 303.56) rotate(-90)"/>
    <rect class="cls-9" x="152.01" y="-0.45" width="152.01" height="152.01" transform="translate(152.46 303.56) rotate(-90)"/>
    <rect class="cls-2" x="304.01" y="455.57" width="152.01" height="152.01" transform="translate(-151.55 911.59) rotate(-90)"/>
    <rect class="cls-5" y="455.57" width="152.01" height="152.01" transform="translate(-455.57 607.57) rotate(-90)"/>
    <rect class="cls-8" y="607.57" width="152.01" height="152.01" transform="translate(-607.57 759.58) rotate(-90)"/>
    <rect class="cls-4" x="304.01" y="-0.45" width="152.01" height="152.01" transform="translate(304.47 455.56) rotate(-90)"/>
    <rect class="cls-9" x="152.01" y="607.57" width="152.01" height="152.01" transform="translate(-455.57 911.59) rotate(-90)"/>
    <rect class="cls-4" x="304.01" y="607.57" width="152.01" height="152.01" transform="translate(-303.56 1063.59) rotate(-90)"/>
    <rect class="cls-5" y="759.58" width="152.01" height="152.01" transform="translate(-759.58 911.59) rotate(-90)"/>
    <rect class="cls-10" x="152.01" y="759.58" width="152.01" height="152.01" transform="translate(-607.57 1063.59) rotate(-90)"/>
    <polygon class="cls-8" points="152.01 911.59 152.01 1079.96 0 1080 0 911.59 152.01 911.59"/>
    <rect class="cls-3" x="304.01" y="759.58" width="152.01" height="152.01" transform="translate(-455.57 1215.6) rotate(-90)"/>
    <polygon class="cls-2" points="304.01 911.59 304.01 1079.93 152.01 1079.96 152.01 911.59 304.01 911.59"/>
    <rect class="cls-7" x="304.01" y="911.59" width="152.01" height="168.34"/>
    <polygon class="cls-1" points="608.03 151.55 456.02 151.55 456.02 0 608.03 -0.46 608.03 151.55"/>
    <rect class="cls-2" x="456.02" y="303.56" width="152.01" height="152.01" transform="translate(152.46 911.58) rotate(-90)"/>
    <rect class="cls-3" x="608.03" y="303.56" width="152.01" height="152.01" transform="translate(304.47 1063.59) rotate(-90)"/>
    <rect class="cls-4" x="760.03" y="305.03" width="152.01" height="152.01" transform="translate(455 1217.07) rotate(-90)"/>
    <rect class="cls-5" x="607.43" y="151.55" width="152.01" height="152.01" transform="translate(455.88 910.99) rotate(-90)"/>
    <rect class="cls-6" x="759.44" y="151.55" width="152.01" height="152.01" transform="translate(607.88 1063) rotate(-90)"/>
    <rect class="cls-7" x="608.03" y="457.04" width="152.01" height="152.01" transform="translate(150.99 1217.07) rotate(-90)"/>
    <rect class="cls-8" x="455.42" y="151.55" width="152.01" height="152.01" transform="translate(303.87 758.98) rotate(-90)"/>
    <rect class="cls-9" x="608.03" y="-0.45" width="152.01" height="152.01" transform="translate(608.48 759.58) rotate(-90)"/>
    <rect class="cls-2" x="760.03" y="457.04" width="152.01" height="152.01" transform="translate(303 1369.07) rotate(-90)"/>
    <rect class="cls-5" x="456.02" y="455.57" width="152.01" height="152.01" transform="translate(0.45 1063.59) rotate(-90)"/>
    <rect class="cls-8" x="456.02" y="607.57" width="152.01" height="152.01" transform="translate(-151.55 1215.6) rotate(-90)"/>
    <rect class="cls-4" x="759.44" y="-0.45" width="152.01" height="152.01" transform="translate(759.89 910.99) rotate(-90)"/>
    <rect class="cls-9" x="608.03" y="609.04" width="152.01" height="152.01" transform="translate(-1.02 1369.07) rotate(-90)"/>
    <rect class="cls-4" x="760.03" y="609.04" width="152.01" height="152.01" transform="translate(150.99 1521.08) rotate(-90)"/>
    <rect class="cls-5" x="456.02" y="759.58" width="152.01" height="152.01" transform="translate(-303.56 1367.61) rotate(-90)"/>
    <rect class="cls-10" x="608.03" y="761.05" width="152.01" height="152.01" transform="translate(-153.02 1521.08) rotate(-90)"/>
    <polygon class="cls-8" points="608.03 911.55 608.03 1079.93 456.02 1079.96 456.02 911.55 608.03 911.55"/>
    <rect class="cls-3" x="760.03" y="761.05" width="152.01" height="152.01" transform="translate(-1.02 1673.09) rotate(-90)"/>
    <polygon class="cls-2" points="760.03 913.05 760.03 1081.4 608.03 1081.43 608.03 913.05 760.03 913.05"/>
    <rect class="cls-7" x="760.03" y="913.06" width="152.01" height="168.34"/>
    <polygon class="cls-1" points="1063.45 151.55 911.44 151.55 911.44 0 1063.45 -0.46 1063.45 151.55"/>
    <rect class="cls-2" x="906.7" y="305.03" width="152.01" height="152.01" transform="translate(601.67 1363.74) rotate(-90)"/>
    <rect class="cls-3" x="1058.71" y="305.03" width="152.01" height="152.01" transform="translate(753.68 1515.74) rotate(-90)"/>
    <rect class="cls-4" x="1210.71" y="303.56" width="152.01" height="152.01" transform="translate(907.16 1666.28) rotate(-90)"/>
    <rect class="cls-5" x="1058.71" y="151.55" width="152.01" height="152.01" transform="translate(907.16 1362.27) rotate(-90)"/>
    <rect class="cls-6" x="1210.71" y="151.55" width="152.01" height="152.01" transform="translate(1059.16 1514.27) rotate(-90)"/>
    <rect class="cls-7" x="1058.71" y="457.04" width="152.01" height="152.01" transform="translate(601.67 1667.75) rotate(-90)"/>
    <rect class="cls-8" x="906.7" y="153.02" width="152.01" height="152.01" transform="translate(753.68 1211.73) rotate(-90)"/>
    <rect class="cls-9" x="1058.71" y="-0.45" width="152.01" height="152.01" transform="translate(1059.16 1210.26) rotate(-90)"/>
    <rect class="cls-2" x="1210.71" y="457.04" width="152.01" height="152.01" transform="translate(753.68 1819.76) rotate(-90)"/>
    <rect class="cls-5" x="906.7" y="457.04" width="152.01" height="152.01" transform="translate(449.67 1515.74) rotate(-90)"/>
    <rect class="cls-8" x="906.7" y="609.04" width="152.01" height="152.01" transform="translate(297.66 1667.75) rotate(-90)"/>
    <rect class="cls-4" x="1210.71" y="-0.45" width="152.01" height="152.01" transform="translate(1211.17 1362.27) rotate(-90)"/>
    <rect class="cls-9" x="1058.71" y="609.04" width="152.01" height="152.01" transform="translate(449.67 1819.76) rotate(-90)"/>
    <rect class="cls-4" x="1210.71" y="609.04" width="152.01" height="152.01" transform="translate(601.67 1971.76) rotate(-90)"/>
    <rect class="cls-5" x="906.7" y="761.05" width="152.01" height="152.01" transform="translate(145.65 1819.76) rotate(-90)"/>
    <rect class="cls-10" x="1058.71" y="761.05" width="152.01" height="152.01" transform="translate(297.66 1971.76) rotate(-90)"/>
    <polygon class="cls-8" points="1058.71 913.05 1058.71 1081.43 906.7 1081.47 906.7 913.05 1058.71 913.05"/>
    <rect class="cls-3" x="1210.71" y="761.05" width="152.01" height="152.01" transform="translate(449.67 2123.77) rotate(-90)"/>
    <polygon class="cls-2" points="1210.71 913.05 1210.71 1081.4 1058.71 1081.43 1058.71 913.05 1210.71 913.05"/>
    <rect class="cls-7" x="1210.71" y="913.06" width="152.01" height="168.34"/>
    <polygon class="cls-1" points="1514.73 151.55 1362.72 151.55 1362.72 0 1514.73 -0.46 1514.73 151.55"/>
    <rect class="cls-2" x="1362.72" y="303.56" width="152.01" height="152.01" transform="translate(1059.16 1818.29) rotate(-90)"/>
    <rect class="cls-3" x="1514.73" y="305.03" width="152.01" height="152.01" transform="translate(1209.7 1971.76) rotate(-90)"/>
    <rect class="cls-4" x="1666.73" y="305.03" width="152.01" height="152.01" transform="translate(1361.71 2123.77) rotate(-90)"/>
    <rect class="cls-5" x="1514.73" y="153.02" width="152.01" height="152.01" transform="translate(1361.71 1819.76) rotate(-90)"/>
    <rect class="cls-6" x="1666.73" y="153.02" width="152.01" height="152.01" transform="translate(1513.71 1971.76) rotate(-90)"/>
    <rect class="cls-7" x="1514.73" y="457.04" width="152.01" height="152.01" transform="translate(1057.69 2123.77) rotate(-90)"/>
    <rect class="cls-8" x="1362.72" y="151.55" width="152.01" height="152.01" transform="translate(1211.17 1666.28) rotate(-90)"/>
    <rect class="cls-9" x="1514.73" y="-0.45" width="152.01" height="153.48"/>
    <rect class="cls-2" x="1666.73" y="457.04" width="152.01" height="152.01" transform="translate(1209.7 2275.78) rotate(-90)"/>
    <rect class="cls-5" x="1362.72" y="455.57" width="152.01" height="152.01" transform="translate(907.16 1970.29) rotate(-90)"/>
    <rect class="cls-8" x="1362.72" y="607.57" width="152.01" height="152.01" transform="translate(755.15 2122.3) rotate(-90)"/>
    <rect class="cls-4" x="1666.73" y="-0.45" width="152.01" height="153.48"/>
    <rect class="cls-9" x="1514.73" y="609.04" width="152.01" height="152.01" transform="translate(905.69 2275.78) rotate(-90)"/>
    <rect class="cls-4" x="1666.73" y="609.04" width="152.01" height="152.01" transform="translate(1057.69 2427.78) rotate(-90)"/>
    <rect class="cls-5" x="1362.72" y="759.58" width="152.01" height="152.01" transform="translate(603.14 2274.31) rotate(-90)"/>
    <rect class="cls-10" x="1514.73" y="761.05" width="152.01" height="152.01" transform="translate(753.68 2427.78) rotate(-90)"/>
    <polygon class="cls-8" points="1514.73 911.59 1514.73 1079.96 1362.72 1080 1362.72 911.59 1514.73 911.59"/>
    <rect class="cls-3" x="1666.73" y="761.05" width="152.01" height="152.01" transform="translate(905.69 2579.79) rotate(-90)"/>
    <polygon class="cls-2" points="1666.73 913.05 1666.73 1081.4 1514.73 1081.43 1514.73 913.05 1666.73 913.05"/>
    <rect class="cls-7" x="1666.73" y="913.06" width="152.01" height="168.34"/>
    <rect class="cls-3" x="1818.74" y="305.05" width="152.01" height="152.01" transform="translate(1513.69 2275.79) rotate(-90)"/>
    <rect class="cls-5" x="1818.74" y="153.04" width="152.01" height="152.01" transform="translate(1665.7 2123.79) rotate(-90)"/>
    <rect class="cls-7" x="1818.74" y="457.05" width="152.01" height="152.01" transform="translate(1361.69 2427.8) rotate(-90)"/>
    <polygon class="cls-9" points="1970.75 0 1970.75 153.04 1818.74 153.04 1818.74 -0.46 1970.75 0"/>
    <rect class="cls-9" x="1818.74" y="609.06" width="152.01" height="152.01" transform="translate(1209.68 2579.81) rotate(-90)"/>
    <rect class="cls-10" x="1818.74" y="761.07" width="152.01" height="152.01" transform="translate(1057.67 2731.81) rotate(-90)"/>
    <polygon class="cls-2" points="1970.75 913.07 1970.75 1081.41 1818.74 1081.45 1818.74 913.07 1970.75 913.07"/>
    <rect class="cls-11" x="1220.17" y="774.68" width="351.97" height="96.41" rx="30.43" transform="translate(829 -695.24) rotate(39)"/>
    <circle class="cls-12" cx="955.34" cy="476.87" r="423.31"/>
    <circle class="cls-13" cx="955.34" cy="476.87" r="402.15"/>
    <path class="cls-14" d="M711.87,244.09S823.41,100.86,922,131,854.18,125.26,711.87,244.09Z"/>
    <g>
      <path class="cls-15" d="M843.69,220.24H853v9.28a5.5,5.5,0,0,1-2,4.62,6.67,6.67,0,0,1-4.2,1.55h-6.2a6.21,6.21,0,0,1-6.18-6.17V214a6,6,0,0,1,1.79-4.34,5.86,5.86,0,0,1,4.39-1.84h6.2q5.84,0,6.18,6.18h-3.1q-.36-3.08-3.08-3.08h-3.1a3,3,0,0,0-2.19.91,2.94,2.94,0,0,0-.91,2.17v15.49a2.92,2.92,0,0,0,.91,2.17,3,3,0,0,0,2.19.9,2.9,2.9,0,0,0,3.1-3.07v-6.21h-3.1Z"/>
      <path class="cls-15" d="M871.53,223.31v-3.07a2.92,2.92,0,0,0-.92-2.19,3,3,0,0,0-2.18-.92h-3.1q-2.75,0-3.08,3.11h-3.1q.71-6.21,6.18-6.21h6.2a5.93,5.93,0,0,1,4.36,1.83,6,6,0,0,1,1.82,4.38v15.45h-6.18v-3.1q-.36,3.1-3.1,3.1h-3.1a6.21,6.21,0,0,1-6.18-6.17v0a6.21,6.21,0,0,1,6.18-6.18Zm0,3.1h-3.1a3,3,0,0,0-2.19.91,2.94,2.94,0,0,0-.91,2.17v0a3.1,3.1,0,0,0,6.2,0Z"/>
      <path class="cls-15" d="M902.45,235.69h-6.18V220.24a2.92,2.92,0,0,0-.92-2.19,3.05,3.05,0,0,0-4.37,0,3,3,0,0,0-.91,2.19v15.45h-6.18V214h6.18v3.1a3.77,3.77,0,0,1,1-2.33,2.88,2.88,0,0,1,2.14-.77h3.1a5.21,5.21,0,0,1,4.64,2.19,4.49,4.49,0,0,1,1.89-1.65,6.45,6.45,0,0,1,2.75-.54h3.08a6.25,6.25,0,0,1,6.21,6.21v15.45h-6.21V220.24a3,3,0,0,0-.92-2.19,2.94,2.94,0,0,0-2.16-.92,3.12,3.12,0,0,0-3.1,3.11Z"/>
      <path class="cls-15" d="M939.58,226.41H927.19v3.11a3.11,3.11,0,0,0,3.1,3.07h3.11q3.08,0,3.07-3.07h3.11q-.74,6.18-6.18,6.17h-6.21a6.21,6.21,0,0,1-6.18-6.17v-9.28a6.23,6.23,0,0,1,6.18-6.21h6.21a6,6,0,0,1,4.36,1.83,6,6,0,0,1,1.82,4.38Zm-12.39-3.1h6.21v-3.07a3,3,0,0,0-.92-2.19,3,3,0,0,0-2.19-.92,3.12,3.12,0,0,0-3.1,3.11Z"/>
      <path class="cls-15" d="M961,207.85h6.21a6.23,6.23,0,0,1,6.18,6.18v15.49a6.23,6.23,0,0,1-6.18,6.17H961a6.21,6.21,0,0,1-6.17-6.17V214a6.21,6.21,0,0,1,6.17-6.18Zm0,6.18v15.49a3.11,3.11,0,0,0,3.11,3.07,3.11,3.11,0,0,0,3.1-3.07V214a3,3,0,0,0-.92-2.17,3.08,3.08,0,0,0-4.37,0A3,3,0,0,0,961,214Z"/>
      <path class="cls-15" d="M991.94,214h6.18v11.09a10.64,10.64,0,0,1-10.57,10.57h-8V214h6.17v18.56h3.11a3.11,3.11,0,0,0,3.1-3.07Z"/>
      <path class="cls-15" d="M1022.86,226.41h-12.39v3.11a3.11,3.11,0,0,0,3.11,3.07h3.1q3.08,0,3.08-3.07h3.1q-.72,6.18-6.18,6.17h-6.21a6.21,6.21,0,0,1-6.17-6.17v-9.28a6.21,6.21,0,0,1,6.17-6.21h6.21a5.93,5.93,0,0,1,4.36,1.83,6,6,0,0,1,1.82,4.38Zm-12.39-3.1h6.21v-3.07a3.14,3.14,0,0,0-3.1-3.11,3,3,0,0,0-2.19.92,3,3,0,0,0-.92,2.19Z"/>
      <path class="cls-15" d="M1035.21,235.69H1029V214h6.17v6.21a7.66,7.66,0,0,1,1.92-4.66,5.8,5.8,0,0,1,4.29-1.55h3.08v6.21h-6.18a3,3,0,0,0-2.19.9,3,3,0,0,0-.92,2.17Z"/>
      <path class="cls-15" d="M1050.67,226.41V207.85h6.2v18.56Zm0,9.28v-6.17h6.2v6.17Z"/>
    </g>
    <g>
      <path d="M689.18,319.21v-7.67q-3.82-.44-3.82-3.83V302h3.82v5.75a1.95,1.95,0,0,0,1.93,1.93,1.85,1.85,0,0,0,1.35-.57,1.87,1.87,0,0,0,.57-1.36V302h3.83v5.75q0,3.39-3.83,3.83v7.67Z"/>
      <path d="M704.51,305.79h3.85a3.66,3.66,0,0,1,2.7,1.14,3.72,3.72,0,0,1,1.12,2.71v5.75a3.84,3.84,0,0,1-3.82,3.82h-3.85a3.68,3.68,0,0,1-2.7-1.12,3.72,3.72,0,0,1-1.13-2.7v-5.75a3.88,3.88,0,0,1,3.83-3.85Zm0,3.85v5.75a1.93,1.93,0,0,0,3.85,0v-5.75a1.93,1.93,0,0,0-3.85,0Z"/>
      <path d="M727.51,305.79v13.42h-3.83v-1.92q-.23,1.92-1.92,1.92h-1.92a3.68,3.68,0,0,1-2.7-1.12,3.72,3.72,0,0,1-1.13-2.7v-9.6h3.83v9.6a1.91,1.91,0,0,0,1.92,1.9,1.85,1.85,0,0,0,1.36-.56,1.83,1.83,0,0,0,.56-1.34v-9.6Z"/>
      <path d="M737,319.21V302h3.83v17.25Z"/>
      <path d="M748.45,305.79h3.85a3.66,3.66,0,0,1,2.7,1.14,3.73,3.73,0,0,1,1.13,2.71v5.75a3.86,3.86,0,0,1-3.83,3.82h-3.85a3.82,3.82,0,0,1-3.82-3.82v-5.75a3.86,3.86,0,0,1,3.82-3.85Zm0,3.85v5.75a1.93,1.93,0,0,0,1.93,1.9,1.91,1.91,0,0,0,1.92-1.9v-5.75a1.93,1.93,0,0,0-3.85,0Z"/>
      <path d="M769.53,309.64h-1.9c-.17-1.29-.78-1.93-1.82-1.93a2.52,2.52,0,0,0-1.53.4,1.43,1.43,0,0,0-.51,1.19c0,.56.93,1.33,2.8,2.32,1.51.82,2.38,1.49,2.62,2a4.25,4.25,0,0,1,.34,1.71,3.84,3.84,0,0,1-3.83,3.85h-1.92q-3.82,0-3.83-3.82h1.93c.15,1.27.75,1.91,1.79,1.91a2.43,2.43,0,0,0,1.53-.4,1.44,1.44,0,0,0,.51-1.2c0-.54-.93-1.31-2.78-2.32-1.52-.81-2.4-1.48-2.63-2a4.32,4.32,0,0,1-.35-1.71,3.88,3.88,0,0,1,3.83-3.86h1.92Q769.3,305.79,769.53,309.64Z"/>
      <path d="M775.3,302h3.83v3.83h1.92v1.92h-1.92v7.68a1.69,1.69,0,0,0,.61,1.41,1.82,1.82,0,0,0,1.13.49h.18v1.92h-1.92a3.82,3.82,0,0,1-3.83-3.82v-7.68h-1.92v-1.92h1.92Z"/>
      <path d="M786.78,313.46V302h3.84v11.5Zm0,5.75v-3.82h3.84v3.82Z"/>
      <path d="M805.82,319.21v-7.67q-3.83-.44-3.83-3.83V302h3.83v5.75a1.9,1.9,0,0,0,.56,1.36,1.87,1.87,0,0,0,1.36.57,1.85,1.85,0,0,0,1.35-.57,1.87,1.87,0,0,0,.57-1.36V302h3.83v5.75c0,2.26-1.27,3.54-3.83,3.83v7.67Z"/>
      <path d="M821.15,305.79H825a3.66,3.66,0,0,1,2.7,1.14,3.73,3.73,0,0,1,1.13,2.71v5.75a3.86,3.86,0,0,1-3.83,3.82h-3.84a3.84,3.84,0,0,1-3.83-3.82v-5.75a3.86,3.86,0,0,1,3.83-3.85Zm0,3.85v5.75a1.83,1.83,0,0,0,.56,1.34,1.92,1.92,0,0,0,3.28-1.34v-5.75a1.92,1.92,0,1,0-3.84,0Z"/>
      <path d="M844.15,305.79v13.42h-3.83v-1.92q-.23,1.92-1.92,1.92h-1.93a3.82,3.82,0,0,1-3.82-3.82v-9.6h3.82v9.6a1.93,1.93,0,0,0,3.85,0v-9.6Z"/>
      <path d="M853.59,305.79h3.83v11.5h1.92a1.91,1.91,0,0,0,1.92-1.9v-9.6h3.83v11.5H867a1.93,1.93,0,0,0,1.91-1.9v-9.6h3.84v6.87a6.59,6.59,0,0,1-6.55,6.55h-5v-.61a5.53,5.53,0,0,1-2.72.61h-4.95Z"/>
      <path d="M888.09,313.46h-7.67v1.93a1.83,1.83,0,0,0,.56,1.34,1.85,1.85,0,0,0,1.36.56h1.92a1.68,1.68,0,0,0,1.91-1.9h1.92q-.45,3.83-3.83,3.82h-3.84a3.84,3.84,0,0,1-3.83-3.82v-5.75a3.86,3.86,0,0,1,3.83-3.85h3.84a3.66,3.66,0,0,1,2.7,1.14,3.73,3.73,0,0,1,1.13,2.71Zm-7.67-1.92h3.84v-1.9a1.92,1.92,0,1,0-3.84,0Z"/>
      <path d="M895.74,319.21h-3.82V305.79h3.82v3.85a4.74,4.74,0,0,1,1.19-2.89,3.6,3.6,0,0,1,2.66-1h1.9v3.85h-3.82a1.84,1.84,0,0,0-1.36.56,1.81,1.81,0,0,0-.57,1.34Z"/>
      <path d="M914.92,313.46h-7.68v1.93a1.91,1.91,0,0,0,1.93,1.9h1.92a1.68,1.68,0,0,0,1.9-1.9h1.93q-.45,3.83-3.83,3.82h-3.85a3.82,3.82,0,0,1-3.82-3.82v-5.75a3.86,3.86,0,0,1,3.82-3.85h3.85a3.66,3.66,0,0,1,2.7,1.14,3.73,3.73,0,0,1,1.13,2.71Zm-7.68-1.92h3.85v-1.9a1.93,1.93,0,0,0-3.85,0Z"/>
      <path d="M924.36,319.21V305.79h3.82v1.92a2.37,2.37,0,0,1,.6-1.44,1.79,1.79,0,0,1,1.33-.48H932a3.66,3.66,0,0,1,2.7,1.14,3.73,3.73,0,0,1,1.13,2.71v9.57H932v-9.57a1.93,1.93,0,0,0-3.85,0v9.57Z"/>
      <path d="M943.51,305.79h3.85a3.66,3.66,0,0,1,2.7,1.14,3.72,3.72,0,0,1,1.12,2.71v5.75a3.84,3.84,0,0,1-3.82,3.82h-3.85a3.68,3.68,0,0,1-2.7-1.12,3.72,3.72,0,0,1-1.13-2.7v-5.75a3.88,3.88,0,0,1,3.83-3.85Zm0,3.85v5.75a1.93,1.93,0,0,0,3.85,0v-5.75a1.93,1.93,0,0,0-3.85,0Z"/>
      <path d="M956.93,302h3.83v3.83h1.92v1.92h-1.92v7.68a1.72,1.72,0,0,0,.61,1.41,1.87,1.87,0,0,0,1.14.49h.17v1.92h-1.92a3.68,3.68,0,0,1-2.7-1.12,3.72,3.72,0,0,1-1.13-2.7v-7.68H955v-1.92h1.92Z"/>
      <path d="M979.8,311.54v-1.9a1.95,1.95,0,0,0-1.92-1.93H976c-1.14,0-1.77.64-1.91,1.93h-1.92q.43-3.86,3.83-3.85h3.84a3.66,3.66,0,0,1,2.7,1.14,3.73,3.73,0,0,1,1.13,2.71v9.57H979.8v-1.92q-.22,1.92-1.92,1.92H976a3.84,3.84,0,0,1-3.83-3.82v0a3.86,3.86,0,0,1,3.83-3.83Zm0,1.92h-1.92a1.85,1.85,0,0,0-1.36.57,1.8,1.8,0,0,0-.56,1.34v0a1.83,1.83,0,0,0,.56,1.34,1.85,1.85,0,0,0,1.36.56,1.91,1.91,0,0,0,1.92-1.9Z"/>
      <path d="M987.46,319.21V302h3.82v5.75a2.37,2.37,0,0,1,.6-1.44,1.79,1.79,0,0,1,1.33-.48h1.92a3.66,3.66,0,0,1,2.7,1.14,3.73,3.73,0,0,1,1.13,2.71v5.75a3.86,3.86,0,0,1-3.83,3.82Zm3.82-1.92h1.93a1.91,1.91,0,0,0,1.92-1.9v-5.75a1.93,1.93,0,0,0-3.85,0Z"/>
      <path d="M1002.78,319.21V302h3.83v17.25Z"/>
      <path d="M1022,313.46h-7.67v1.93a1.91,1.91,0,0,0,1.92,1.9h1.93a1.68,1.68,0,0,0,1.9-1.9H1022q-.45,3.83-3.82,3.82h-3.85a3.68,3.68,0,0,1-2.7-1.12,3.72,3.72,0,0,1-1.13-2.7v-5.75a3.88,3.88,0,0,1,3.83-3.85h3.85a3.86,3.86,0,0,1,3.82,3.85Zm-7.67-1.92h3.85v-1.9a1.95,1.95,0,0,0-1.93-1.93,1.83,1.83,0,0,0-1.35.57,1.85,1.85,0,0,0-.57,1.36Z"/>
      <path d="M1033.32,302h3.83v3.83h1.92v1.92h-1.92v7.68a1.69,1.69,0,0,0,.61,1.41,1.82,1.82,0,0,0,1.13.49h.18v1.92h-1.92a3.82,3.82,0,0,1-3.83-3.82v-7.68h-1.92v-1.92h1.92Z"/>
      <path d="M1046.72,305.79h3.85a3.66,3.66,0,0,1,2.7,1.14,3.73,3.73,0,0,1,1.13,2.71v5.75a3.86,3.86,0,0,1-3.83,3.82h-3.85a3.82,3.82,0,0,1-3.82-3.82v-5.75a3.86,3.86,0,0,1,3.82-3.85Zm0,3.85v5.75a1.93,1.93,0,0,0,1.93,1.9,1.91,1.91,0,0,0,1.92-1.9v-5.75a1.93,1.93,0,0,0-3.85,0Z"/>
      <path d="M1063.84,319.21V305.79h3.83v1.92a2.31,2.31,0,0,1,.59-1.44,1.81,1.81,0,0,1,1.33-.48h1.92a3.66,3.66,0,0,1,2.7,1.14,3.73,3.73,0,0,1,1.13,2.71v9.57h-3.83v-9.57a1.92,1.92,0,1,0-3.84,0v9.57Z"/>
      <path d="M1086.84,311.54v-1.9a1.95,1.95,0,0,0-1.92-1.93H1083c-1.13,0-1.76.64-1.9,1.93h-1.92c.29-2.57,1.57-3.85,3.82-3.85h3.85a3.66,3.66,0,0,1,2.7,1.14,3.73,3.73,0,0,1,1.13,2.71v9.57h-3.83v-1.92q-.22,1.92-1.92,1.92H1083a3.82,3.82,0,0,1-3.82-3.82v0a3.86,3.86,0,0,1,3.82-3.83Zm0,1.92h-1.92a1.85,1.85,0,0,0-1.36.57,1.81,1.81,0,0,0-.57,1.34v0a1.93,1.93,0,0,0,3.85,0Z"/>
      <path d="M1102.17,305.79H1106v6.87a6.57,6.57,0,0,1-6.55,6.55h-5V305.79h3.83v11.5h1.92a1.93,1.93,0,0,0,1.93-1.9Z"/>
      <path d="M1109.82,303.89V302h3.83v1.93Zm0,15.32V305.79h3.83v13.42Z"/>
      <path d="M1129,305.79v15.35a3.86,3.86,0,0,1-3.82,3.82h-3.85c-2.26,0-3.53-1.27-3.83-3.82h1.93c.09,1.27.72,1.9,1.9,1.9h1.92a1.86,1.86,0,0,0,1.35-.56,1.78,1.78,0,0,0,.58-1.34v-3.85c-.15,1.28-.79,1.92-1.93,1.92h-1.92a3.68,3.68,0,0,1-2.7-1.12,3.72,3.72,0,0,1-1.13-2.7v-5.75a3.88,3.88,0,0,1,3.83-3.85Zm-3.82,1.92h-1.93a1.83,1.83,0,0,0-1.35.57,1.85,1.85,0,0,0-.57,1.36v5.75a1.91,1.91,0,0,0,1.92,1.9,1.93,1.93,0,0,0,1.93-1.9Z"/>
      <path d="M1140.49,311.54v-1.9a1.95,1.95,0,0,0-1.92-1.93h-1.92c-1.13,0-1.77.64-1.91,1.93h-1.92q.43-3.86,3.83-3.85h3.84a3.66,3.66,0,0,1,2.7,1.14,3.73,3.73,0,0,1,1.13,2.71v9.57h-3.83v-1.92q-.23,1.92-1.92,1.92h-1.92a3.68,3.68,0,0,1-2.7-1.12,3.72,3.72,0,0,1-1.13-2.7v0a3.86,3.86,0,0,1,3.83-3.83Zm0,1.92h-1.92a1.93,1.93,0,0,0-1.92,1.91v0a1.92,1.92,0,0,0,3.28,1.34,1.83,1.83,0,0,0,.56-1.34Z"/>
      <path d="M1150.07,302h3.83v3.83h1.92v1.92h-1.92v7.68a1.69,1.69,0,0,0,.61,1.41,1.84,1.84,0,0,0,1.13.49h.18v1.92h-1.92a3.82,3.82,0,0,1-3.83-3.82v-7.68h-1.92v-1.92h1.92Z"/>
      <path d="M1171.15,313.46h-7.68v1.93a1.93,1.93,0,0,0,1.93,1.9h1.92a1.68,1.68,0,0,0,1.9-1.9h1.93q-.45,3.83-3.83,3.82h-3.85a3.82,3.82,0,0,1-3.82-3.82v-5.75a3.86,3.86,0,0,1,3.82-3.85h3.85a3.66,3.66,0,0,1,2.7,1.14,3.73,3.73,0,0,1,1.13,2.71Zm-7.68-1.92h3.85v-1.9a1.93,1.93,0,0,0-3.85,0Z"/>
      <path d="M1180.59,303.89V302h3.83v1.93Zm0,15.32V305.79h3.83v13.42Z"/>
      <path d="M1188.26,319.21V305.79h3.83v1.92a2.37,2.37,0,0,1,.6-1.44,1.78,1.78,0,0,1,1.32-.48h1.93a3.88,3.88,0,0,1,3.82,3.85v9.57h-3.82v-9.57a1.82,1.82,0,0,0-.58-1.36,1.92,1.92,0,0,0-3.27,1.36v9.57Z"/>
      <path d="M1211.13,302H1215v3.83h1.92v1.92H1215v7.68a1.69,1.69,0,0,0,.61,1.41,1.82,1.82,0,0,0,1.13.49h.18v1.92H1215a3.82,3.82,0,0,1-3.83-3.82v-7.68h-1.92v-1.92h1.92Z"/>
      <path d="M1220.71,319.21V302h3.82v5.75a2.37,2.37,0,0,1,.6-1.44,1.79,1.79,0,0,1,1.33-.48h1.92a3.66,3.66,0,0,1,2.7,1.14,3.73,3.73,0,0,1,1.13,2.71v9.57h-3.83v-9.57a1.93,1.93,0,0,0-3.85,0v9.57Z"/>
      <path d="M1247.53,313.46h-7.67v1.93a1.91,1.91,0,0,0,1.92,1.9h1.92a1.68,1.68,0,0,0,1.91-1.9h1.92c-.3,2.55-1.57,3.82-3.83,3.82h-3.84a3.68,3.68,0,0,1-2.7-1.12,3.72,3.72,0,0,1-1.13-2.7v-5.75a3.86,3.86,0,0,1,3.83-3.85h3.84a3.88,3.88,0,0,1,3.83,3.85Zm-7.67-1.92h3.84v-1.9a1.92,1.92,0,0,0-3.28-1.36,1.88,1.88,0,0,0-.56,1.36Z"/>
      <path d="M689.18,342.79H693v13.42a3.86,3.86,0,0,1-3.83,3.83h-1.92c-2.26,0-3.53-1.27-3.83-3.83h1.93c.11,1.29.75,1.93,1.9,1.93a1.93,1.93,0,0,0,1.92-1.93Zm0-1.9V339H693v1.93Z"/>
      <path d="M708.36,342.79v13.42h-3.83v-1.92q-.22,1.92-1.92,1.92h-1.93a3.84,3.84,0,0,1-3.82-3.82v-9.6h3.82v9.6a1.93,1.93,0,0,0,1.93,1.9,1.91,1.91,0,0,0,1.92-1.9v-9.6Z"/>
      <path d="M712.18,356.21V342.79H716v1.92a2.37,2.37,0,0,1,.6-1.44,1.78,1.78,0,0,1,1.32-.48h1.93a3.66,3.66,0,0,1,2.7,1.14,3.72,3.72,0,0,1,1.12,2.71v9.57h-3.82v-9.57a1.93,1.93,0,0,0-3.85,0v9.57Z"/>
      <path d="M739,342.79v15.35a3.86,3.86,0,0,1-3.83,3.82h-3.84q-3.39,0-3.83-3.82h1.92c.09,1.27.73,1.9,1.91,1.9h1.92a1.87,1.87,0,0,0,1.35-.56,1.81,1.81,0,0,0,.57-1.34v-3.85q-.23,1.92-1.92,1.92h-1.92a3.68,3.68,0,0,1-2.7-1.12,3.72,3.72,0,0,1-1.13-2.7v-5.75a3.86,3.86,0,0,1,3.83-3.85Zm-3.83,1.92h-1.92a1.81,1.81,0,0,0-1.35.57,1.85,1.85,0,0,0-.57,1.36v5.75a1.91,1.91,0,0,0,1.92,1.9,1.85,1.85,0,0,0,1.36-.56,1.83,1.83,0,0,0,.56-1.34Z"/>
      <path d="M742.84,356.21V339h3.83v17.25Z"/>
      <path d="M762,350.46h-7.67v1.93a1.91,1.91,0,0,0,1.92,1.9h1.92a1.68,1.68,0,0,0,1.91-1.9H762c-.3,2.55-1.57,3.82-3.83,3.82h-3.84a3.68,3.68,0,0,1-2.7-1.12,3.72,3.72,0,0,1-1.13-2.7v-5.75a3.86,3.86,0,0,1,3.83-3.85h3.84a3.88,3.88,0,0,1,3.83,3.85Zm-7.67-1.92h3.84v-1.9a1.92,1.92,0,0,0-3.28-1.36,1.88,1.88,0,0,0-.56,1.36Z"/>
      <path d="M775.28,342.79h3.85a3.86,3.86,0,0,1,3.82,3.85v5.75a3.84,3.84,0,0,1-3.82,3.82h-3.85a3.68,3.68,0,0,1-2.7-1.12,3.72,3.72,0,0,1-1.13-2.7v-5.75a3.88,3.88,0,0,1,3.83-3.85Zm0,3.85v5.75a1.91,1.91,0,0,0,1.92,1.9,1.93,1.93,0,0,0,1.93-1.9v-5.75a1.95,1.95,0,0,0-1.93-1.93,1.83,1.83,0,0,0-1.35.57A1.85,1.85,0,0,0,775.28,346.64Z"/>
      <path d="M788.7,356.21v-11.5h-1.92v-1.92h1.92v-.17a3.69,3.69,0,0,1,3.66-3.66h4v1.93h-2.09a1.74,1.74,0,0,0-1.74,1.73v.17h1.92v1.92h-1.92v11.5Z"/>
      <path d="M803.9,356.21V342.79h3.82v1.92a2.37,2.37,0,0,1,.6-1.44,1.79,1.79,0,0,1,1.33-.48h1.92a3.66,3.66,0,0,1,2.7,1.14,3.73,3.73,0,0,1,1.13,2.71v9.57h-3.83v-9.57a1.93,1.93,0,0,0-3.85,0v9.57Z"/>
      <path d="M819.22,340.89V339h3.83v1.93Zm0,15.32V342.79h3.83v13.42Z"/>
      <path d="M826.9,342.79h3.82v1.92a1.9,1.9,0,0,1,.49-1.44,2,2,0,0,1,1.44-.48h1.92a3.66,3.66,0,0,1,2.7,1.14,3.73,3.73,0,0,1,1.13,2.71v5.75a3.72,3.72,0,0,1-1.13,2.7,3.68,3.68,0,0,1-2.7,1.12h-3.85V360H826.9Zm3.82,11.5h1.93a1.87,1.87,0,0,0,1.35-.56,1.81,1.81,0,0,0,.57-1.34v-5.75a1.85,1.85,0,0,0-.57-1.36,1.87,1.87,0,0,0-1.35-.56,1.93,1.93,0,0,0-1.93,1.92Z"/>
      <path d="M842.22,342.79h3.83v1.92a1.9,1.9,0,0,1,.49-1.44,2,2,0,0,1,1.43-.48h1.93a3.88,3.88,0,0,1,3.82,3.85v5.75a3.84,3.84,0,0,1-3.82,3.82h-3.85V360h-3.83Zm3.83,11.5H848a1.91,1.91,0,0,0,1.36-.56,1.81,1.81,0,0,0,.57-1.34v-5.75a1.85,1.85,0,0,0-.57-1.36,1.91,1.91,0,0,0-1.36-.56,1.82,1.82,0,0,0-1.35.56,1.85,1.85,0,0,0-.57,1.36Z"/>
      <path d="M857.55,356.21V339h3.83v17.25Z"/>
      <path d="M876.72,350.46h-7.67v1.93a1.91,1.91,0,0,0,1.92,1.9h1.93a1.68,1.68,0,0,0,1.9-1.9h1.92q-.45,3.83-3.82,3.82h-3.85a3.68,3.68,0,0,1-2.7-1.12,3.72,3.72,0,0,1-1.13-2.7v-5.75a3.86,3.86,0,0,1,3.83-3.85h3.85a3.88,3.88,0,0,1,3.82,3.85Zm-7.67-1.92h3.85v-1.9a1.85,1.85,0,0,0-.57-1.36,1.88,1.88,0,0,0-1.36-.57,1.83,1.83,0,0,0-1.35.57,1.85,1.85,0,0,0-.57,1.36Z"/>
      <path d="M890.13,346.64h-1.91c-.17-1.29-.77-1.93-1.81-1.93a2.5,2.5,0,0,0-1.53.4,1.43,1.43,0,0,0-.51,1.19c0,.56.93,1.33,2.79,2.32,1.52.82,2.39,1.49,2.62,2a4.25,4.25,0,0,1,.35,1.71,3.74,3.74,0,0,1-1.13,2.73,3.68,3.68,0,0,1-2.7,1.12h-1.92q-3.82,0-3.83-3.82h1.92c.15,1.27.75,1.91,1.8,1.91a2.43,2.43,0,0,0,1.53-.4,1.44,1.44,0,0,0,.51-1.2c0-.54-.93-1.31-2.79-2.32-1.52-.81-2.39-1.48-2.62-2a4.32,4.32,0,0,1-.35-1.71,3.86,3.86,0,0,1,3.83-3.86h1.92C888.7,342.79,890,344.07,890.13,346.64Z"/>
      <path d="M907.26,348.54v-1.9a1.95,1.95,0,0,0-1.92-1.93h-1.92c-1.14,0-1.77.64-1.91,1.93h-1.92q.43-3.86,3.83-3.85h3.84a3.66,3.66,0,0,1,2.7,1.14,3.73,3.73,0,0,1,1.13,2.71v9.57h-3.83v-1.92q-.22,1.92-1.92,1.92h-1.92a3.84,3.84,0,0,1-3.83-3.82v0a3.86,3.86,0,0,1,3.83-3.83Zm0,1.92h-1.92A1.85,1.85,0,0,0,904,351a1.8,1.8,0,0,0-.56,1.34v0a1.83,1.83,0,0,0,.56,1.34,1.85,1.85,0,0,0,1.36.56,1.91,1.91,0,0,0,1.92-1.9Z"/>
      <path d="M914.92,356.21V342.79h3.82v1.92a2.37,2.37,0,0,1,.6-1.44,1.79,1.79,0,0,1,1.33-.48h1.92a3.66,3.66,0,0,1,2.7,1.14,3.73,3.73,0,0,1,1.13,2.71v9.57h-3.83v-9.57a1.93,1.93,0,0,0-3.85,0v9.57Z"/>
      <path d="M941.74,356.21h-3.83v-1.92q-.23,1.92-1.92,1.92h-1.92a3.68,3.68,0,0,1-2.7-1.12,3.72,3.72,0,0,1-1.13-2.7v-5.75a3.86,3.86,0,0,1,3.83-3.85h3.84V339h3.83Zm-3.83-11.5H936a1.93,1.93,0,0,0-1.92,1.93v5.75a1.92,1.92,0,0,0,3.28,1.34,1.83,1.83,0,0,0,.56-1.34Z"/>
      <path d="M962.68,356.21h-3.82v-1.92c-.15,1.28-.79,1.92-1.93,1.92H955a3.68,3.68,0,0,1-2.7-1.12,3.72,3.72,0,0,1-1.13-2.7v-5.75a3.88,3.88,0,0,1,3.83-3.85h3.85V339h3.82Zm-3.82-11.5h-1.93a1.95,1.95,0,0,0-1.92,1.93v5.75a1.93,1.93,0,0,0,3.85,0Z"/>
      <path d="M966.51,340.89V339h3.83v1.93Zm0,15.32V342.79h3.83v13.42Z"/>
      <path d="M983.76,346.64h-1.9c-.17-1.29-.78-1.93-1.82-1.93a2.54,2.54,0,0,0-1.53.4,1.43,1.43,0,0,0-.51,1.19c0,.56.93,1.33,2.8,2.32,1.51.82,2.39,1.49,2.62,2a4.25,4.25,0,0,1,.34,1.71,3.84,3.84,0,0,1-3.83,3.85H978q-3.82,0-3.83-3.82h1.93c.15,1.27.75,1.91,1.79,1.91a2.43,2.43,0,0,0,1.53-.4,1.44,1.44,0,0,0,.51-1.2c0-.54-.93-1.31-2.78-2.32-1.52-.81-2.4-1.48-2.63-2a4.32,4.32,0,0,1-.35-1.71,3.88,3.88,0,0,1,3.83-3.86h1.92Q983.53,342.79,983.76,346.64Z"/>
      <path d="M997.18,346.64h-1.9c-.15-1.29-.79-1.93-1.92-1.93a1.95,1.95,0,0,0-1.93,1.93v5.75a1.93,1.93,0,0,0,1.93,1.9c1.13,0,1.77-.63,1.92-1.9h1.9c-.15,2.55-1.43,3.82-3.82,3.82h-1.93a3.82,3.82,0,0,1-3.82-3.82v-5.75a3.86,3.86,0,0,1,3.82-3.85h1.93C995.76,342.79,997,344.07,997.18,346.64Z"/>
      <path d="M1004.86,356.21H1001V342.79h3.83v3.85a4.73,4.73,0,0,1,1.18-2.89,3.6,3.6,0,0,1,2.66-1h1.91v3.85h-3.83a1.91,1.91,0,0,0-1.92,1.9Z"/>
      <path d="M1012.53,340.89V339h3.83v1.93Zm0,15.32V342.79h3.83v13.42Z"/>
      <path d="M1031.7,356.21h-3.82v-9.57a2,2,0,0,0-1.93-1.93,1.81,1.81,0,0,0-1.35.57,1.85,1.85,0,0,0-.57,1.36v9.57h-3.83V342.79H1024v1.92a2.37,2.37,0,0,1,.6-1.44,1.78,1.78,0,0,1,1.32-.48h1.93a3.23,3.23,0,0,1,2.87,1.36,2.74,2.74,0,0,1,1.17-1,3.92,3.92,0,0,1,1.71-.34h1.9a3.73,3.73,0,0,1,2.71,1.13,3.69,3.69,0,0,1,1.14,2.72v9.57h-3.85v-9.57a1.88,1.88,0,0,0-.57-1.36,1.8,1.8,0,0,0-1.33-.57,1.95,1.95,0,0,0-1.93,1.93Z"/>
      <path d="M1043.2,340.89V339H1047v1.93Zm0,15.32V342.79H1047v13.42Z"/>
      <path d="M1050.87,356.21V342.79h3.83v1.92a2.37,2.37,0,0,1,.6-1.44,1.78,1.78,0,0,1,1.32-.48h1.93a3.86,3.86,0,0,1,3.82,3.85v9.57h-3.82v-9.57a1.95,1.95,0,0,0-1.93-1.93,1.83,1.83,0,0,0-1.35.57,1.85,1.85,0,0,0-.57,1.36v9.57Z"/>
      <path d="M1073.87,348.54v-1.9a1.95,1.95,0,0,0-1.92-1.93H1070c-1.13,0-1.77.64-1.91,1.93h-1.92q.43-3.86,3.83-3.85h3.84a3.88,3.88,0,0,1,3.83,3.85v9.57h-3.83v-1.92q-.22,1.92-1.92,1.92H1070a3.68,3.68,0,0,1-2.7-1.12,3.72,3.72,0,0,1-1.13-2.7v0a3.86,3.86,0,0,1,3.83-3.83Zm0,1.92H1072a1.93,1.93,0,0,0-1.92,1.91v0a1.92,1.92,0,0,0,3.28,1.34,1.83,1.83,0,0,0,.56-1.34Z"/>
      <path d="M1083.45,339h3.83v3.83h1.92v1.92h-1.92v7.68a1.69,1.69,0,0,0,.61,1.41,1.84,1.84,0,0,0,1.13.49h.18v1.92h-1.92a3.68,3.68,0,0,1-2.71-1.12,3.75,3.75,0,0,1-1.12-2.7v-7.68h-1.92v-1.92h1.92Z"/>
      <path d="M1104.53,350.46h-7.67v1.93a1.83,1.83,0,0,0,.56,1.34,1.86,1.86,0,0,0,1.36.56h1.92a1.68,1.68,0,0,0,1.91-1.9h1.92q-.45,3.83-3.83,3.82h-3.84a3.84,3.84,0,0,1-3.83-3.82v-5.75a3.86,3.86,0,0,1,3.83-3.85h3.84a3.66,3.66,0,0,1,2.7,1.14,3.73,3.73,0,0,1,1.13,2.71Zm-7.67-1.92h3.84v-1.9a1.92,1.92,0,1,0-3.84,0Z"/>
      <path d="M1114,342.79h3.83v11.5h1.92a1.86,1.86,0,0,0,1.36-.56,1.83,1.83,0,0,0,.56-1.34v-9.6h3.83v11.5h1.92a1.91,1.91,0,0,0,1.91-1.9v-9.6h3.84v6.87a6.57,6.57,0,0,1-6.55,6.55h-4.95v-.61a5.5,5.5,0,0,1-2.72.61h-5Z"/>
      <path d="M1140.8,342.79h3.84a3.66,3.66,0,0,1,2.7,1.14,3.73,3.73,0,0,1,1.13,2.71v5.75a3.86,3.86,0,0,1-3.83,3.82h-3.84a3.68,3.68,0,0,1-2.7-1.12,3.72,3.72,0,0,1-1.13-2.7v-5.75a3.86,3.86,0,0,1,3.83-3.85Zm0,3.85v5.75a1.92,1.92,0,0,0,3.28,1.34,1.83,1.83,0,0,0,.56-1.34v-5.75a1.92,1.92,0,0,0-3.28-1.36A1.88,1.88,0,0,0,1140.8,346.64Z"/>
      <path d="M1163.8,356.21H1160v-9.57a1.92,1.92,0,1,0-3.84,0v9.57h-3.83V342.79h3.83v1.92a2.31,2.31,0,0,1,.59-1.44,1.79,1.79,0,0,1,1.33-.48H1160a3.24,3.24,0,0,1,2.88,1.36,2.66,2.66,0,0,1,1.16-1,3.92,3.92,0,0,1,1.71-.34h1.91a3.88,3.88,0,0,1,3.84,3.85v9.57h-3.84v-9.57a1.88,1.88,0,0,0-.57-1.36,1.82,1.82,0,0,0-1.34-.57,1.85,1.85,0,0,0-1.36.57,1.88,1.88,0,0,0-.56,1.36Z"/>
      <path d="M1186.8,350.46h-7.67v1.93a1.83,1.83,0,0,0,.56,1.34,1.85,1.85,0,0,0,1.36.56H1183a1.68,1.68,0,0,0,1.91-1.9h1.92q-.45,3.83-3.83,3.82h-3.84a3.82,3.82,0,0,1-3.83-3.82v-5.75a3.86,3.86,0,0,1,3.83-3.85H1183a3.66,3.66,0,0,1,2.7,1.14,3.73,3.73,0,0,1,1.13,2.71Zm-7.67-1.92H1183v-1.9a1.92,1.92,0,1,0-3.84,0Z"/>
      <path d="M1190.63,356.21V342.79h3.82v1.92a2.37,2.37,0,0,1,.6-1.44,1.79,1.79,0,0,1,1.33-.48h1.92a3.66,3.66,0,0,1,2.7,1.14,3.73,3.73,0,0,1,1.13,2.71v9.57h-3.83v-9.57a1.93,1.93,0,0,0-3.85,0v9.57Z"/>
      <path d="M1215.53,346.64h-1.9c-.17-1.29-.78-1.93-1.82-1.93a2.5,2.5,0,0,0-1.53.4,1.43,1.43,0,0,0-.51,1.19c0,.56.93,1.33,2.79,2.32,1.52.82,2.39,1.49,2.62,2a4.25,4.25,0,0,1,.35,1.71,3.74,3.74,0,0,1-1.13,2.73,3.68,3.68,0,0,1-2.7,1.12h-1.92q-3.83,0-3.83-3.82h1.93c.14,1.27.74,1.91,1.79,1.91a2.43,2.43,0,0,0,1.53-.4,1.44,1.44,0,0,0,.51-1.2c0-.54-.93-1.31-2.78-2.32-1.53-.81-2.4-1.48-2.63-2a4.32,4.32,0,0,1-.35-1.71,3.86,3.86,0,0,1,3.83-3.86h1.92C1214.1,342.79,1215.37,344.07,1215.53,346.64Z"/>
      <path d="M685.36,393.21V376h3.82v5.75a2.37,2.37,0,0,1,.6-1.44,1.79,1.79,0,0,1,1.33-.48H693a3.66,3.66,0,0,1,2.7,1.14,3.73,3.73,0,0,1,1.13,2.71v5.75a3.86,3.86,0,0,1-3.83,3.82Zm3.82-1.92h1.93a1.91,1.91,0,0,0,1.92-1.9v-5.75a1.93,1.93,0,0,0-3.85,0Z"/>
      <path d="M704.51,393.21h-3.83V379.79h3.83v3.85a4.74,4.74,0,0,1,1.19-2.89,3.6,3.6,0,0,1,2.66-1h1.9v3.85h-3.83a1.84,1.84,0,0,0-1.35.56,1.81,1.81,0,0,0-.57,1.34Z"/>
      <path d="M723.68,387.46H716v1.93a1.91,1.91,0,0,0,1.92,1.9h1.93a1.68,1.68,0,0,0,1.9-1.9h1.92q-.45,3.83-3.82,3.82H716a3.68,3.68,0,0,1-2.7-1.12,3.72,3.72,0,0,1-1.13-2.7v-5.75a3.88,3.88,0,0,1,3.83-3.85h3.85a3.66,3.66,0,0,1,2.7,1.14,3.72,3.72,0,0,1,1.12,2.71ZM716,385.54h3.85v-1.9a1.93,1.93,0,0,0-3.85,0Z"/>
      <path d="M735.18,385.54v-1.9a1.95,1.95,0,0,0-1.92-1.93h-1.92c-1.13,0-1.77.64-1.91,1.93h-1.92q.43-3.86,3.83-3.85h3.84a3.88,3.88,0,0,1,3.83,3.85v9.57h-3.83v-1.92q-.23,1.92-1.92,1.92h-1.92a3.68,3.68,0,0,1-2.7-1.12,3.72,3.72,0,0,1-1.13-2.7v0a3.86,3.86,0,0,1,3.83-3.83Zm0,1.92h-1.92a1.95,1.95,0,0,0-1.92,1.91v0a1.91,1.91,0,0,0,1.92,1.9,1.85,1.85,0,0,0,1.36-.56,1.83,1.83,0,0,0,.56-1.34Z"/>
      <path d="M752.42,383.64h-1.91c-.17-1.29-.77-1.93-1.81-1.93a2.5,2.5,0,0,0-1.53.4,1.43,1.43,0,0,0-.51,1.19c0,.56.93,1.33,2.79,2.32,1.52.82,2.39,1.49,2.62,2a4.25,4.25,0,0,1,.35,1.71,3.74,3.74,0,0,1-1.13,2.73,3.68,3.68,0,0,1-2.7,1.12h-1.92c-2.56,0-3.83-1.27-3.83-3.82h1.92c.15,1.27.75,1.91,1.8,1.91a2.45,2.45,0,0,0,1.53-.4,1.44,1.44,0,0,0,.51-1.2c0-.54-.93-1.31-2.79-2.32-1.52-.81-2.39-1.48-2.63-2a4.31,4.31,0,0,1-.34-1.71,3.86,3.86,0,0,1,3.83-3.86h1.92Q752.18,379.79,752.42,383.64Z"/>
      <path d="M758.18,376H762v3.83h1.92v1.92H762v7.68a1.72,1.72,0,0,0,.61,1.41,1.87,1.87,0,0,0,1.13.49h.18v1.92H762a3.68,3.68,0,0,1-2.7-1.12,3.72,3.72,0,0,1-1.13-2.7v-7.68h-1.92v-1.92h1.92Z"/>
      <path d="M777.34,383.64h-1.91c-.16-1.29-.77-1.93-1.81-1.93a2.5,2.5,0,0,0-1.53.4,1.43,1.43,0,0,0-.51,1.19c0,.56.93,1.33,2.79,2.32,1.52.82,2.39,1.49,2.62,2a4.25,4.25,0,0,1,.35,1.71,3.74,3.74,0,0,1-1.13,2.73,3.68,3.68,0,0,1-2.7,1.12h-1.92q-3.83,0-3.83-3.82h1.92c.15,1.27.75,1.91,1.8,1.91a2.43,2.43,0,0,0,1.53-.4,1.44,1.44,0,0,0,.51-1.2c0-.54-.93-1.31-2.78-2.32-1.53-.81-2.4-1.48-2.63-2a4.32,4.32,0,0,1-.35-1.71,3.86,3.86,0,0,1,3.83-3.86h1.92C775.91,379.79,777.18,381.07,777.34,383.64Z"/>
      <path d="M781.18,389.39H785v3.82c0,2.27-1.27,3.55-3.83,3.83v-1.9a1.79,1.79,0,0,0,1.93-1.93h-1.93Z"/>
      <path d="M804.05,383.64h-1.91c-.16-1.29-.77-1.93-1.81-1.93a2.5,2.5,0,0,0-1.53.4,1.43,1.43,0,0,0-.51,1.19c0,.56.93,1.33,2.79,2.32,1.52.82,2.39,1.49,2.62,2a4.25,4.25,0,0,1,.35,1.71,3.74,3.74,0,0,1-1.13,2.73,3.68,3.68,0,0,1-2.7,1.12H798.3q-3.82,0-3.83-3.82h1.92c.15,1.27.75,1.91,1.8,1.91a2.43,2.43,0,0,0,1.53-.4,1.44,1.44,0,0,0,.51-1.2c0-.54-.93-1.31-2.78-2.32-1.53-.81-2.4-1.48-2.63-2a4.32,4.32,0,0,1-.35-1.71,3.86,3.86,0,0,1,3.83-3.86h1.92C802.62,379.79,803.89,381.07,804.05,383.64Z"/>
      <path d="M811.72,379.79h3.85a3.67,3.67,0,0,1,2.7,1.14,3.72,3.72,0,0,1,1.12,2.71v5.75a3.84,3.84,0,0,1-3.82,3.82h-3.85a3.68,3.68,0,0,1-2.7-1.12,3.72,3.72,0,0,1-1.13-2.7v-5.75a3.88,3.88,0,0,1,3.83-3.85Zm0,3.85v5.75a1.93,1.93,0,0,0,3.85,0v-5.75a1.93,1.93,0,0,0-3.85,0Z"/>
      <path d="M828.84,377.89V376h3.82v1.93Zm0,15.32V379.79h3.82v13.42Z"/>
      <path d="M846.09,383.64h-1.91c-.17-1.29-.77-1.93-1.81-1.93a2.5,2.5,0,0,0-1.53.4,1.43,1.43,0,0,0-.51,1.19c0,.56.93,1.33,2.79,2.32,1.52.82,2.39,1.49,2.62,2a4.25,4.25,0,0,1,.35,1.71,3.74,3.74,0,0,1-1.13,2.73,3.68,3.68,0,0,1-2.7,1.12h-1.92c-2.56,0-3.83-1.27-3.83-3.82h1.92c.15,1.27.75,1.91,1.8,1.91a2.45,2.45,0,0,0,1.53-.4,1.44,1.44,0,0,0,.51-1.2c0-.54-.93-1.31-2.79-2.32-1.52-.81-2.39-1.48-2.63-2a4.31,4.31,0,0,1-.34-1.71,3.86,3.86,0,0,1,3.83-3.86h1.92Q845.85,379.79,846.09,383.64Z"/>
      <path d="M857.47,376h3.83v3.83h1.92v1.92H861.3v7.68a1.69,1.69,0,0,0,.61,1.41,1.84,1.84,0,0,0,1.13.49h.18v1.92H861.3a3.82,3.82,0,0,1-3.83-3.82v-7.68h-1.92v-1.92h1.92Z"/>
      <path d="M867.05,393.21V376h3.82v5.75a2.37,2.37,0,0,1,.6-1.44,1.79,1.79,0,0,1,1.33-.48h1.92a3.66,3.66,0,0,1,2.7,1.14,3.73,3.73,0,0,1,1.13,2.71v9.57h-3.83v-9.57a1.93,1.93,0,0,0-3.85,0v9.57Z"/>
      <path d="M890.05,385.54v-1.9a1.95,1.95,0,0,0-1.93-1.93H886.2c-1.13,0-1.77.64-1.9,1.93h-1.93c.3-2.57,1.57-3.85,3.83-3.85h3.85a3.67,3.67,0,0,1,2.7,1.14,3.72,3.72,0,0,1,1.12,2.71v9.57h-3.82v-1.92c-.15,1.28-.79,1.92-1.93,1.92H886.2a3.68,3.68,0,0,1-2.7-1.12,3.72,3.72,0,0,1-1.13-2.7v0a3.88,3.88,0,0,1,3.83-3.83Zm0,1.92h-1.93a1.83,1.83,0,0,0-1.35.57,1.81,1.81,0,0,0-.57,1.34v0a1.93,1.93,0,0,0,3.85,0Z"/>
      <path d="M899.62,376h3.83v3.83h1.92v1.92h-1.92v7.68a1.69,1.69,0,0,0,.61,1.41,1.87,1.87,0,0,0,1.13.49h.18v1.92h-1.92a3.68,3.68,0,0,1-2.7-1.12,3.72,3.72,0,0,1-1.13-2.7v-7.68H897.7v-1.92h1.92Z"/>
      <path d="M918.64,393.21h-3.82V379.79h3.82v3.85a4.74,4.74,0,0,1,1.19-2.89,3.6,3.6,0,0,1,2.66-1h1.9v3.85h-3.82a1.84,1.84,0,0,0-1.36.56,1.81,1.81,0,0,0-.57,1.34Z"/>
      <path d="M937.82,387.46h-7.68v1.93a1.93,1.93,0,0,0,1.93,1.9H934a1.68,1.68,0,0,0,1.9-1.9h1.93q-.45,3.83-3.83,3.82h-3.85a3.82,3.82,0,0,1-3.82-3.82v-5.75a3.86,3.86,0,0,1,3.82-3.85H934a3.66,3.66,0,0,1,2.7,1.14,3.73,3.73,0,0,1,1.13,2.71Zm-7.68-1.92H934v-1.9a1.93,1.93,0,0,0-3.85,0Z"/>
      <path d="M949.32,385.54v-1.9a1.95,1.95,0,0,0-1.93-1.93h-1.92c-1.13,0-1.77.64-1.9,1.93h-1.93c.3-2.57,1.57-3.85,3.83-3.85h3.85a3.86,3.86,0,0,1,3.82,3.85v9.57h-3.82v-1.92c-.15,1.28-.79,1.92-1.93,1.92h-1.92a3.68,3.68,0,0,1-2.7-1.12,3.72,3.72,0,0,1-1.13-2.7v0a3.88,3.88,0,0,1,3.83-3.83Zm0,1.92h-1.93A1.83,1.83,0,0,0,946,388a1.81,1.81,0,0,0-.57,1.34v0a1.93,1.93,0,0,0,3.85,0Z"/>
      <path d="M957,393.21V376h3.83v17.25Z"/>
      <path d="M964.64,393.21V376h3.83v17.25Z"/>
      <path d="M974.24,395.14c.09,1.27.72,1.9,1.9,1.9h1.93a1.87,1.87,0,0,0,1.35-.56,1.81,1.81,0,0,0,.57-1.34v-3.85q-.22,1.92-1.92,1.92h-1.93a3.82,3.82,0,0,1-3.82-3.82v-9.6h3.82v9.6a1.93,1.93,0,0,0,1.93,1.9,1.91,1.91,0,0,0,1.92-1.9v-9.6h3.83v15.35A3.88,3.88,0,0,1,980,399h-3.85c-2.25,0-3.53-1.27-3.82-3.82Z"/>
      <path d="M1000.93,385.54v-1.9a1.95,1.95,0,0,0-1.92-1.93h-1.92c-1.14,0-1.77.64-1.91,1.93h-1.92q.43-3.86,3.83-3.85h3.84a3.66,3.66,0,0,1,2.7,1.14,3.73,3.73,0,0,1,1.13,2.71v9.57h-3.83v-1.92q-.23,1.92-1.92,1.92h-1.92a3.84,3.84,0,0,1-3.83-3.82v0a3.86,3.86,0,0,1,3.83-3.83Zm0,1.92H999a1.85,1.85,0,0,0-1.36.57,1.8,1.8,0,0,0-.56,1.34v0a1.83,1.83,0,0,0,.56,1.34,1.92,1.92,0,0,0,3.28-1.34Z"/>
      <path d="M1014.2,393.21V376H1018v17.25Z"/>
      <path d="M1025.7,379.79h3.85a3.86,3.86,0,0,1,3.82,3.85v5.75a3.84,3.84,0,0,1-3.82,3.82h-3.85a3.68,3.68,0,0,1-2.7-1.12,3.72,3.72,0,0,1-1.13-2.7v-5.75a3.88,3.88,0,0,1,3.83-3.85Zm0,3.85v5.75a1.91,1.91,0,0,0,1.92,1.9,1.93,1.93,0,0,0,1.93-1.9v-5.75a1.82,1.82,0,0,0-.58-1.36,1.92,1.92,0,0,0-3.27,1.36Z"/>
      <path d="M1046.78,383.64h-1.91c-.16-1.29-.77-1.93-1.81-1.93a2.5,2.5,0,0,0-1.53.4,1.43,1.43,0,0,0-.51,1.19c0,.56.93,1.33,2.79,2.32,1.52.82,2.39,1.49,2.62,2a4.25,4.25,0,0,1,.35,1.71,3.74,3.74,0,0,1-1.13,2.73,3.68,3.68,0,0,1-2.7,1.12H1041q-3.83,0-3.83-3.82h1.92c.15,1.27.75,1.91,1.8,1.91a2.43,2.43,0,0,0,1.53-.4,1.44,1.44,0,0,0,.51-1.2c0-.54-.93-1.31-2.79-2.32-1.52-.81-2.39-1.48-2.62-2a4.32,4.32,0,0,1-.35-1.71,3.86,3.86,0,0,1,3.83-3.86H1043C1045.35,379.79,1046.62,381.07,1046.78,383.64Z"/>
      <path d="M1060.2,383.64h-1.9c-.17-1.29-.78-1.93-1.82-1.93a2.52,2.52,0,0,0-1.53.4,1.43,1.43,0,0,0-.51,1.19c0,.56.93,1.33,2.8,2.32,1.51.82,2.38,1.49,2.61,2a4.09,4.09,0,0,1,.35,1.71,3.74,3.74,0,0,1-1.13,2.73,3.68,3.68,0,0,1-2.7,1.12h-1.92q-3.83,0-3.83-3.82h1.93c.15,1.27.74,1.91,1.79,1.91a2.43,2.43,0,0,0,1.53-.4,1.44,1.44,0,0,0,.51-1.2c0-.54-.93-1.31-2.78-2.32-1.52-.81-2.4-1.48-2.63-2a4.32,4.32,0,0,1-.35-1.71,3.88,3.88,0,0,1,3.83-3.86h1.92C1058.77,379.79,1060,381.07,1060.2,383.64Z"/>
      <path d="M1067.87,387.46v-1.92a4.47,4.47,0,0,1,2.5-3.88l.3-.18a1.89,1.89,0,0,0,1-1.69,1.91,1.91,0,0,0-1.9-1.9h-1.93c-1.18,0-1.82.63-1.92,1.9h-1.9c.29-2.55,1.57-3.83,3.82-3.83h3.83a3.73,3.73,0,0,1,2.71,1.13,3.66,3.66,0,0,1,1.14,2.7,3.47,3.47,0,0,1-2.2,3.46l-.31.13c-.69.31-1.08.61-1.19.9a4.15,4.15,0,0,0-.15,1.26v1.92Zm0,5.75v-3.82h3.83v3.82Z"/>
      <path d="M1085,393.21V376h9.58v1.93h-5.75v5.75h3.84v1.9h-3.84v7.67Z"/>
      <path d="M1102.24,393.21h-3.83V379.79h3.83v3.85a4.73,4.73,0,0,1,1.18-2.89,3.6,3.6,0,0,1,2.66-1H1108v3.85h-3.83a1.91,1.91,0,0,0-1.92,1.9Z"/>
      <path d="M1121.41,387.46h-7.67v1.93a1.83,1.83,0,0,0,.56,1.34,1.86,1.86,0,0,0,1.36.56h1.92a1.68,1.68,0,0,0,1.91-1.9h1.92c-.3,2.55-1.57,3.82-3.83,3.82h-3.84a3.68,3.68,0,0,1-2.7-1.12,3.72,3.72,0,0,1-1.13-2.7v-5.75a3.86,3.86,0,0,1,3.83-3.85h3.84a3.66,3.66,0,0,1,2.7,1.14,3.73,3.73,0,0,1,1.13,2.71Zm-7.67-1.92h3.84v-1.9a1.92,1.92,0,0,0-3.28-1.36,1.88,1.88,0,0,0-.56,1.36Z"/>
      <path d="M1136.74,387.46h-7.68v1.93a1.93,1.93,0,0,0,1.93,1.9h1.92a1.68,1.68,0,0,0,1.9-1.9h1.93q-.45,3.83-3.83,3.82h-3.85a3.82,3.82,0,0,1-3.82-3.82v-5.75a3.86,3.86,0,0,1,3.82-3.85h3.85a3.66,3.66,0,0,1,2.7,1.14,3.73,3.73,0,0,1,1.13,2.71Zm-7.68-1.92h3.85v-1.9a1.93,1.93,0,0,0-3.85,0Z"/>
      <path d="M1148.1,376h3.83v3.83h1.92v1.92h-1.92v7.68a1.69,1.69,0,0,0,.61,1.41,1.87,1.87,0,0,0,1.13.49h.18v1.92h-1.92a3.66,3.66,0,0,1-2.7-1.12,3.72,3.72,0,0,1-1.13-2.7v-7.68h-1.92v-1.92h1.92Z"/>
      <path d="M1157.68,393.21V376h3.83v5.75a2.37,2.37,0,0,1,.59-1.44,1.81,1.81,0,0,1,1.33-.48h1.92a3.66,3.66,0,0,1,2.7,1.14,3.73,3.73,0,0,1,1.13,2.71v9.57h-3.83v-9.57a1.92,1.92,0,0,0-3.28-1.36,1.88,1.88,0,0,0-.56,1.36v9.57Z"/>
      <path d="M1184.51,387.46h-7.68v1.93a1.93,1.93,0,0,0,1.93,1.9h1.92a1.68,1.68,0,0,0,1.9-1.9h1.93q-.45,3.83-3.83,3.82h-3.85a3.82,3.82,0,0,1-3.82-3.82v-5.75a3.86,3.86,0,0,1,3.82-3.85h3.85a3.66,3.66,0,0,1,2.7,1.14,3.73,3.73,0,0,1,1.13,2.71Zm-7.68-1.92h3.85v-1.9a1.93,1.93,0,0,0-3.85,0Z"/>
      <path d="M1194,393.21V379.79h3.83v1.92a2.31,2.31,0,0,1,.59-1.44,1.81,1.81,0,0,1,1.33-.48h1.92a3.66,3.66,0,0,1,2.7,1.14,3.73,3.73,0,0,1,1.13,2.71v9.57h-3.83v-9.57a1.92,1.92,0,0,0-3.28-1.36,1.88,1.88,0,0,0-.56,1.36v9.57Z"/>
      <path d="M1209.28,377.89V376h3.82v1.93Zm0,15.32V379.79h3.82v13.42Z"/>
      <path d="M1217,379.79h3.83v1.92a1.94,1.94,0,0,1,.48-1.44,2,2,0,0,1,1.44-.48h1.92a3.66,3.66,0,0,1,2.7,1.14,3.73,3.73,0,0,1,1.13,2.71v5.75a3.72,3.72,0,0,1-1.13,2.7,3.68,3.68,0,0,1-2.7,1.12h-3.84V397H1217Zm3.83,11.5h1.92a1.87,1.87,0,0,0,1.35-.56,1.81,1.81,0,0,0,.57-1.34v-5.75a1.85,1.85,0,0,0-.57-1.36,1.87,1.87,0,0,0-1.35-.56,1.84,1.84,0,0,0-1.36.56,1.88,1.88,0,0,0-.56,1.36Z"/>
      <path d="M1232.28,379.79h3.82v1.92a1.71,1.71,0,0,1,1.93-1.92H1240a3.66,3.66,0,0,1,2.7,1.14,3.73,3.73,0,0,1,1.13,2.71v5.75a3.72,3.72,0,0,1-1.13,2.7,3.68,3.68,0,0,1-2.7,1.12h-3.85V397h-3.82Zm3.82,11.5H1238a1.87,1.87,0,0,0,1.35-.56,1.81,1.81,0,0,0,.57-1.34v-5.75a1.85,1.85,0,0,0-.57-1.36,1.87,1.87,0,0,0-1.35-.56,1.93,1.93,0,0,0-1.93,1.92Z"/>
      <path d="M1247.6,393.21V376h3.83v17.25Z"/>
      <path d="M1266.78,387.46h-7.68v1.93a1.91,1.91,0,0,0,1.93,1.9H1263a1.68,1.68,0,0,0,1.9-1.9h1.93q-.45,3.83-3.83,3.82h-3.85a3.82,3.82,0,0,1-3.82-3.82v-5.75a3.86,3.86,0,0,1,3.82-3.85H1263a3.66,3.66,0,0,1,2.7,1.14,3.73,3.73,0,0,1,1.13,2.71Zm-7.68-1.92H1263v-1.9a1.93,1.93,0,0,0-3.85,0Z"/>
      <path d="M1272.51,387.46V376h3.83v11.5Zm0,5.75v-3.82h3.83v3.82Z"/>
    </g>
    <path class="cls-16" d="M670.4,760.65s248.25,184.44,569.87,0C1240.27,760.65,984.73,1040.73,670.4,760.65Z"/>
    <g>
      <path class="cls-17" d="M969.44,492.81s51.41-9.15,59.83-4.32c0,0,5.68,1.62,11.73,7.59s7.39,18.12,7.39,18.12,1,22.48-.34,34.48,1.72,24.47,1.72,24.47,2,20.56-5.54,31.27-7,12.2-17.94,19.92-33.38-2.63-33.38-2.63l-15.4-9.36-18-18.37s2-64.54,0-76A25.76,25.76,0,0,1,969.44,492.81Z"/>
      <path class="cls-17" d="M1006.72,623.41s-8.87,7.47-3.12,13.53,30.59,4.75,30.59,4.75,11.45-2,18.77,5.54,31.93,47.22,37.76,54.77,20.91,24.69,27.28,29.77c0,0,0-27.8,4.17-40.14s8.42-27.16,9.15-40.55-1.67-17.9-2.13-19.89-9.24-11.08-9.24-11.08-8.31-7.59-6.74-12,.1-6,4.65-10.35-3.43-31.33-3.43-31.33-6.63-18-2.54-24.86,8.84,5.11,8.84,5.11l9.68,42.86,9.24-46s-.36-3.16,5.07-5.87c7.77-3.88,2.6,21.58,2.6,21.58L1143,581.79s6.51-2.86,9.34,5.62c0,0,7.49-2.84,8.87,3.63s-.43,24.82-.43,24.82S1154,633.11,1149.92,638s0,30.28,0,30.28,10.57,105.92-14.32,109.45-53.08-30.21-53.08-30.21l-7.8-8.08s-2,26.27-31.21,24.77c0,0-10.58,65.34-36.19,82.27l-123.62,1S960,794.53,909,706.28l-62.87,47.05S831.9,770,818.45,772.7,793.24,738,793.24,738s-9.45-27.47-7.22-41.33.57-47.64.57-47.64-26.47-32.73-26.23-46.63,4.32-19.78,12.7-16.65c0,0,2.16-5.75,9.26-3.36s-8.7-40.69-8.7-40.69,2.4-7.42,9.12-2.11,15.08,46.64,15.08,46.64L809,539.73s9.58-10.21,9.64,5l-11,52s7.44,1.8,4.63,14.4c0,0-9.58,15.14-7.08,32.92,0,0,.18,27.24,6.18,36.43s17.88,34.69,17.88,34.69S884.07,662,887.16,652s16-19.54,33.13-15,27.14-.13,27.14-.13,7.64-8.25,13.73-47.05l15.93,21.75,15.39,9.36Z"/>
      <path class="cls-15" d="M1008.88,700.43s37.93,36.49,5.94,63.53C1014.82,764,1038.53,742.22,1008.88,700.43Z"/>
      <path class="cls-18" d="M949.41,478.13s10.33-16.95,36.24-16.92,36.84,4.14,36.84,4.14,14,4.69,20.59,10.24,12.18,20.27,12.18,20.27,4.34,15.13,3,18.87-3.85,27.63-10.34,34.08V520.05l-.37-4.52s-2.77-26.4-24.51-27.46c0,0-2.76-.37-12.2.17,0,0-17.53.8-20.68,1.68s-20.83,3-20.83,3-7.14,4.21-8.15,16.88l-.36,20.26,1,25.53-.32,19.68-.28,13.26-3.12,21.89-2.63,11s-1.72,5.35-3.2,9.06a18.37,18.37,0,0,1-4.81,6.37s-8.87,3.44-16.51,2.61a123.06,123.06,0,0,1-16.37-3.25L912.6,636a167.51,167.51,0,0,0,.47-27.14s-2.81-15.22-6.08-22.63S902.82,545,902.82,545s.55-26.57,7.74-37.94a93.94,93.94,0,0,1,16-18.94S933.92,479.58,949.41,478.13Z"/>
      <path class="cls-18" d="M1025.8,641.78a39.91,39.91,0,0,1,1.79-18.36s-7.82,6.46-23.16,1.5c0,0-5.76,6.62-.83,12S1025.8,641.78,1025.8,641.78Z"/>
      <path class="cls-18" d="M1018.9,532.68s1.39,3.14,5.73,1.78a38.28,38.28,0,0,1,8.91-1.53s4.93-.27,8.68,4.84a20.69,20.69,0,0,0-7.76-2.28s-2.65.54-6,1.32a10.87,10.87,0,0,1-6.35-.59S1019,535,1018.9,532.68Z"/>
      <path class="cls-18" d="M999.84,532.34s-4.71,2.59-9,1.08a26.65,26.65,0,0,0-8.65-1.38,12.58,12.58,0,0,0-10.1,4.5,34.4,34.4,0,0,1,9.09-2s2.63.63,6,1.53a10.93,10.93,0,0,0,6.37-.37S999.68,534.62,999.84,532.34Z"/>
      <path class="cls-15" d="M1013.92,559.73c.08,3.83,2.9,4.6,2.9,4.6a56.06,56.06,0,0,1,7,0s2.82.21,2.2,3.71-4.52,7.06-4.52,7.06-.54.92-1-.18,2.35-3.87,2.35-3.87a3.07,3.07,0,0,0,1-3.13c-.57-1.87-3.08-1.3-3.08-1.3a15.44,15.44,0,0,1-5.35-.74c-2.21-.89-2.2-3.75-2.2-3.75S1013.88,557.81,1013.92,559.73Z"/>
      <path class="cls-15" d="M1027.87,573.17s1.62,3.86,5.12,3.81,4.8,2,4.8,2a7.71,7.71,0,0,1-.07,4.17,17.29,17.29,0,0,1-2.66,4.35s1.26-1.35.24-7.11c0,0,0,0,0,0s-.11-.68-2.93-.94A5.26,5.26,0,0,1,1027.87,573.17Z"/>
      <path class="cls-15" d="M996.57,570.23s1.64,2.17-.48,5.57a6,6,0,0,1-5.56,3s-3.93-1.07-4.33-.46c0,0-1.16.14-1.79,5.25,0,0-1.82-.64.19-6.07,0,0,3-2.89,6.22-1.77S996.14,572.75,996.57,570.23Z"/>
      <path class="cls-15" d="M989.32,581.81s11,2.28,14.92-1,11.34-1.84,11.79-.21c0,0,6.79-4.58,11.57,2.52a14.82,14.82,0,0,1-1,6.52s1.48,14.69-7.89,16.56-17.53-4.3-17.53-4.3S991.71,592.08,989.32,581.81Z"/>
      <path class="cls-19" d="M992.73,584.93l33.07.58s-.12,8.22-12.45,11.35S992.73,584.93,992.73,584.93Z"/>
      <path class="cls-20" d="M995.53,591s4.41,8.4,16.66,8.16c0,0,7.16-1.11,11.09-4.76a9.34,9.34,0,0,0,2-2.64s.3,5.29-1.72,7.62-4,4.47-7.82,4.75A22.27,22.27,0,0,1,995.53,591Z"/>
      <path class="cls-20" d="M1003.92,583.89l21.9.38s.89-2.2-4-3.75a8,8,0,0,0-6,1.14,9.61,9.61,0,0,0-5.22-1.47C1007.67,580.28,1005,581.29,1003.92,583.89Z"/>
      <ellipse class="cls-21" cx="986.72" cy="552.6" rx="4.81" ry="12.1" transform="translate(416.98 1529.53) rotate(-89)"/>
      <circle cx="986.72" cy="552.6" r="5.41" transform="translate(416.98 1529.53) rotate(-89)"/>
      <ellipse class="cls-21" cx="1033.33" cy="553.42" rx="4.81" ry="12.1" transform="translate(461.96 1576.93) rotate(-89)"/>
      <circle cx="1032.83" cy="553.41" r="5.41" transform="translate(461.48 1576.42) rotate(-89)"/>
      <path class="cls-22" d="M930.24,684.84C936.4,676.42,909,702.6,909,702.6l-.55,3.64"/>
      <path class="cls-22" d="M1004.43,624.92s-20.93-11.6-22.75-20.07C981.68,604.85,984.19,617,1004.43,624.92Z"/>
      <path class="cls-22" d="M1072.73,723.62a33.34,33.34,0,0,0-10.11-20c-9.5-9.29-7.17-14.67-7.17-14.67s-1.34,10.23,4.46,16S1072.73,723.62,1072.73,723.62Z"/>
      <circle class="cls-23" cx="1055.2" cy="739.37" r="11.22"/>
      <circle class="cls-24" cx="1055.2" cy="737.15" r="8.31"/>
      <circle class="cls-25" cx="1055.2" cy="736.59" r="5.14"/>
      <circle class="cls-26" cx="1055.2" cy="736.38" r="2.57"/>
      <circle class="cls-23" cx="990.35" cy="742.57" r="11.22"/>
      <circle class="cls-24" cx="990.35" cy="740.35" r="8.31"/>
      <circle class="cls-25" cx="990.35" cy="739.79" r="5.14"/>
      <circle class="cls-26" cx="990.35" cy="739.58" r="2.57"/>
    </g>
  </g>
</svg>
