<svg xmlns="http://www.w3.org/2000/svg" width="677.33mm" height="381mm" viewBox="0 0 1920 1080">
  <defs>
    <style>
      .cls-1 {
        fill: #b76d70;
      }

      .cls-2 {
        fill: #b56e6e;
      }

      .cls-3 {
        fill: #f5c1c1;
      }

      .cls-4 {
        fill: #f2dde2;
      }

      .cls-5 {
        fill: #c59c9e;
      }

      .cls-6 {
        fill: #ebbbbc;
      }

      .cls-7 {
        fill: #f4d5d7;
      }

      .cls-8 {
        fill: #f2ccdc;
      }

      .cls-9 {
        fill: #edc5d8;
      }

      .cls-10 {
        fill: #f0a0b0;
      }

      .cls-11 {
        fill: #577a7e;
      }

      .cls-12 {
        fill: #003b46;
      }

      .cls-13 {
        fill: #cbe2de;
      }

      .cls-14 {
        fill: #e8f2ef;
      }

      .cls-15 {
        fill: #95272d;
      }

      .cls-16 {
        fill: #e0b2b2;
      }

      .cls-17 {
        fill: #42210b;
      }

      .cls-18 {
        fill: #8a3031;
      }

      .cls-19, .cls-25 {
        fill: #d38e8d;
      }

      .cls-20, .cls-21 {
        fill: #fff;
      }

      .cls-21, .cls-23 {
        opacity: 0.75;
      }

      .cls-22 {
        fill: #e08cb2;
      }

      .cls-23 {
        fill: #de9f8a;
      }

      .cls-24 {
        fill: #c6776a;
      }

      .cls-25 {
        opacity: 0.7;
      }

      .cls-26 {
        fill: #a4b9b3;
      }
    </style>
  </defs>
  <g id="Level_complete" data-name="Level complete">
    <rect class="cls-1" x="-4.46" y="0.56" width="152.01" height="151.04"/>
    <rect class="cls-2" x="-4.46" y="303.61" width="152.01" height="152.01" transform="translate(-308.07 451.15) rotate(-90)"/>
    <rect class="cls-3" x="147.54" y="303.61" width="152.01" height="152.01" transform="translate(-156.07 603.16) rotate(-90)"/>
    <rect class="cls-4" x="299.55" y="303.61" width="152.01" height="152.01" transform="translate(-4.06 755.16) rotate(-90)"/>
    <rect class="cls-5" x="147.54" y="151.6" width="152.01" height="152.01" transform="translate(-4.06 451.15) rotate(-90)"/>
    <rect class="cls-6" x="299.55" y="151.6" width="152.01" height="152.01" transform="translate(147.95 603.16) rotate(-90)"/>
    <rect class="cls-7" x="147.54" y="455.62" width="152.01" height="152.01" transform="translate(-308.07 755.16) rotate(-90)"/>
    <rect class="cls-8" x="-4.46" y="151.6" width="152.01" height="152.01" transform="translate(-156.07 299.14) rotate(-90)"/>
    <rect class="cls-9" x="147.54" y="0.56" width="152.01" height="151.04"/>
    <rect class="cls-2" x="299.55" y="455.62" width="152.01" height="152.01" transform="translate(-156.07 907.17) rotate(-90)"/>
    <rect class="cls-5" x="-4.46" y="455.62" width="152.01" height="152.01" transform="translate(-460.08 603.16) rotate(-90)"/>
    <rect class="cls-8" x="-4.46" y="607.62" width="152.01" height="152.01" transform="translate(-612.09 755.16) rotate(-90)"/>
    <rect class="cls-4" x="299.55" y="0.56" width="152.01" height="151.04"/>
    <rect class="cls-9" x="147.54" y="607.62" width="152.01" height="152.01" transform="translate(-460.08 907.17) rotate(-90)"/>
    <rect class="cls-4" x="299.55" y="607.62" width="152.01" height="152.01" transform="translate(-308.07 1059.18) rotate(-90)"/>
    <rect class="cls-5" x="-4.46" y="759.63" width="152.01" height="152.01" transform="translate(-764.09 907.17) rotate(-90)"/>
    <rect class="cls-10" x="147.54" y="759.63" width="152.01" height="152.01" transform="translate(-612.09 1059.18) rotate(-90)"/>
    <polygon class="cls-8" points="147.54 911.64 147.54 1080.59 -4.46 1080.63 -4.46 911.64 147.54 911.64"/>
    <rect class="cls-3" x="299.55" y="759.63" width="152.01" height="152.01" transform="translate(-460.08 1211.18) rotate(-90)"/>
    <polygon class="cls-2" points="299.55 912.22 299.55 1080.56 147.54 1080.59 147.54 912.22 299.55 912.22"/>
    <rect class="cls-7" x="299.55" y="911.64" width="152.01" height="168.92"/>
    <rect class="cls-1" x="451.55" y="0.56" width="152.01" height="152.51"/>
    <rect class="cls-2" x="451.55" y="305.08" width="152.01" height="152.01" transform="translate(146.48 908.64) rotate(-90)"/>
    <rect class="cls-3" x="603.56" y="305.08" width="152.01" height="152.01" transform="translate(298.48 1060.65) rotate(-90)"/>
    <rect class="cls-4" x="755.57" y="305.08" width="152.01" height="152.01" transform="translate(450.49 1212.65) rotate(-90)"/>
    <rect class="cls-5" x="603.56" y="153.07" width="152.01" height="152.01" transform="translate(450.49 908.64) rotate(-90)"/>
    <rect class="cls-6" x="755.57" y="153.07" width="152.01" height="152.01" transform="translate(602.5 1060.64) rotate(-90)"/>
    <rect class="cls-7" x="603.56" y="457.08" width="152.01" height="152.01" transform="translate(146.48 1212.65) rotate(-90)"/>
    <rect class="cls-8" x="451.55" y="153.07" width="152.01" height="152.01" transform="translate(298.48 756.63) rotate(-90)"/>
    <rect class="cls-9" x="603.56" y="0.56" width="152.01" height="152.51"/>
    <rect class="cls-2" x="755.57" y="457.08" width="152.01" height="152.01" transform="translate(298.48 1364.66) rotate(-90)"/>
    <rect class="cls-5" x="451.55" y="457.08" width="152.01" height="152.01" transform="translate(-5.53 1060.65) rotate(-90)"/>
    <rect class="cls-8" x="451.55" y="609.09" width="152.01" height="152.01" transform="translate(-157.54 1212.65) rotate(-90)"/>
    <polygon class="cls-4" points="902.37 0.56 907.57 153.07 755.57 153.07 755.57 0.56 902.37 0.56"/>
    <rect class="cls-9" x="603.56" y="609.09" width="152.01" height="152.01" transform="translate(-5.53 1364.66) rotate(-90)"/>
    <rect class="cls-4" x="755.57" y="609.09" width="152.01" height="152.01" transform="translate(146.48 1516.67) rotate(-90)"/>
    <rect class="cls-5" x="451.55" y="761.1" width="152.01" height="152.01" transform="translate(-309.54 1364.66) rotate(-90)"/>
    <rect class="cls-10" x="603.56" y="761.1" width="152.01" height="152.01" transform="translate(-157.54 1516.67) rotate(-90)"/>
    <polygon class="cls-8" points="603.56 913.11 603.56 1081.48 451.55 1081.52 451.55 913.11 603.56 913.11"/>
    <rect class="cls-3" x="755.57" y="761.1" width="152.01" height="152.01" transform="translate(-5.53 1668.67) rotate(-90)"/>
    <polygon class="cls-2" points="755.57 913.11 755.57 1081.45 603.56 1081.48 603.56 913.11 755.57 913.11"/>
    <rect class="cls-7" x="755.57" y="913.11" width="152.01" height="168.34"/>
    <polygon class="cls-1" points="1054.24 153.07 904.02 153.07 902.37 0.56 1054.24 0.56 1054.24 153.07"/>
    <rect class="cls-2" x="902.24" y="305.08" width="152.01" height="152.01" transform="translate(597.16 1359.32) rotate(-90)"/>
    <rect class="cls-3" x="1054.24" y="305.08" width="152.01" height="152.01" transform="translate(749.17 1511.33) rotate(-90)"/>
    <rect class="cls-4" x="1206.25" y="305.08" width="152.01" height="152.01" transform="translate(901.17 1663.33) rotate(-90)"/>
    <rect class="cls-5" x="1054.24" y="153.07" width="152.01" height="152.01" transform="translate(901.17 1359.32) rotate(-90)"/>
    <rect class="cls-6" x="1206.25" y="153.07" width="152.01" height="152.01" transform="translate(1053.18 1511.33) rotate(-90)"/>
    <rect class="cls-7" x="1054.24" y="457.08" width="152.01" height="152.01" transform="translate(597.16 1663.33) rotate(-90)"/>
    <rect class="cls-8" x="902.24" y="153.07" width="152.01" height="152.01" transform="translate(749.17 1207.31) rotate(-90)"/>
    <rect class="cls-9" x="1054.24" y="0.56" width="152.01" height="152.51"/>
    <rect class="cls-2" x="1206.25" y="457.08" width="152.01" height="152.01" transform="translate(749.16 1815.34) rotate(-90)"/>
    <rect class="cls-5" x="902.24" y="457.08" width="152.01" height="152.01" transform="translate(445.15 1511.33) rotate(-90)"/>
    <rect class="cls-8" x="902.24" y="609.09" width="152.01" height="152.01" transform="translate(293.15 1663.34) rotate(-90)"/>
    <rect class="cls-4" x="1206.25" y="0.56" width="152.01" height="152.51"/>
    <rect class="cls-9" x="1054.24" y="609.09" width="152.01" height="152.01" transform="translate(445.15 1815.34) rotate(-90)"/>
    <rect class="cls-4" x="1206.25" y="609.09" width="152.01" height="152.01" transform="translate(597.16 1967.35) rotate(-90)"/>
    <rect class="cls-5" x="902.24" y="761.1" width="152.01" height="152.01" transform="translate(141.14 1815.34) rotate(-90)"/>
    <rect class="cls-10" x="1054.24" y="761.1" width="152.01" height="152.01" transform="translate(293.14 1967.35) rotate(-90)"/>
    <polygon class="cls-8" points="1054.24 913.11 1054.24 1081.48 902.24 1081.52 902.24 913.11 1054.24 913.11"/>
    <rect class="cls-3" x="1206.25" y="761.1" width="152.01" height="152.01" transform="translate(445.15 2119.35) rotate(-90)"/>
    <polygon class="cls-2" points="1206.25 913.11 1206.25 1081.45 1054.24 1081.48 1054.24 913.11 1206.25 913.11"/>
    <rect class="cls-7" x="1206.25" y="913.11" width="152.01" height="168.34"/>
    <polygon class="cls-1" points="1510.26 153.07 1358.26 154.03 1358.26 0.56 1510.26 0.56 1510.26 153.07"/>
    <rect class="cls-2" x="1358.26" y="305.08" width="152.01" height="152.01" transform="translate(1053.18 1815.34) rotate(-90)"/>
    <rect class="cls-3" x="1510.26" y="305.08" width="152.01" height="152.01" transform="translate(1205.18 1967.35) rotate(-90)"/>
    <rect class="cls-4" x="1662.27" y="305.08" width="152.01" height="152.01" transform="translate(1357.19 2119.35) rotate(-90)"/>
    <rect class="cls-5" x="1510.26" y="153.07" width="152.01" height="152.01" transform="translate(1357.19 1815.34) rotate(-90)"/>
    <rect class="cls-6" x="1662.27" y="153.07" width="152.01" height="152.01" transform="translate(1509.2 1967.35) rotate(-90)"/>
    <rect class="cls-7" x="1510.26" y="457.08" width="152.01" height="152.01" transform="translate(1053.18 2119.35) rotate(-90)"/>
    <rect class="cls-8" x="1358.26" y="153.07" width="152.01" height="152.01" transform="translate(1205.18 1663.33) rotate(-90)"/>
    <rect class="cls-9" x="1510.26" y="0.56" width="152.01" height="152.51"/>
    <rect class="cls-2" x="1662.27" y="457.08" width="152.01" height="152.01" transform="translate(1205.18 2271.36) rotate(-90)"/>
    <rect class="cls-5" x="1358.26" y="457.08" width="152.01" height="152.01" transform="translate(901.17 1967.35) rotate(-90)"/>
    <rect class="cls-8" x="1358.26" y="609.09" width="152.01" height="152.01" transform="translate(749.16 2119.35) rotate(-90)"/>
    <rect class="cls-4" x="1662.27" y="0.56" width="152.01" height="152.51"/>
    <rect class="cls-9" x="1510.26" y="609.09" width="152.01" height="152.01" transform="translate(901.17 2271.36) rotate(-90)"/>
    <rect class="cls-4" x="1662.27" y="609.09" width="152.01" height="152.01" transform="translate(1053.18 2423.37) rotate(-90)"/>
    <rect class="cls-5" x="1358.26" y="761.1" width="152.01" height="152.01" transform="translate(597.16 2271.36) rotate(-90)"/>
    <rect class="cls-10" x="1510.26" y="761.1" width="152.01" height="152.01" transform="translate(749.16 2423.37) rotate(-90)"/>
    <polygon class="cls-8" points="1510.26 913.11 1510.26 1081.48 1358.26 1081.52 1358.26 913.11 1510.26 913.11"/>
    <rect class="cls-3" x="1662.27" y="761.1" width="152.01" height="152.01" transform="translate(901.17 2575.37) rotate(-90)"/>
    <polygon class="cls-2" points="1662.27 913.11 1662.27 1081.45 1510.26 1081.48 1510.26 913.11 1662.27 913.11"/>
    <rect class="cls-7" x="1662.27" y="913.11" width="152.01" height="168.34"/>
    <rect class="cls-3" x="1814.28" y="305.1" width="152.01" height="152.01" transform="translate(1509.18 2271.38) rotate(-90)"/>
    <rect class="cls-5" x="1814.28" y="153.09" width="152.01" height="152.01" transform="translate(1661.19 2119.37) rotate(-90)"/>
    <rect class="cls-7" x="1814.28" y="457.1" width="152.01" height="152.01" transform="translate(1357.17 2423.38) rotate(-90)"/>
    <rect class="cls-9" x="1814.28" y="0.56" width="152.01" height="152.53"/>
    <rect class="cls-9" x="1814.28" y="609.11" width="152.01" height="152.01" transform="translate(1205.17 2575.39) rotate(-90)"/>
    <rect class="cls-10" x="1814.28" y="761.12" width="152.01" height="152.01" transform="translate(1053.16 2727.4) rotate(-90)"/>
    <polygon class="cls-2" points="1966.28 913.12 1966.28 1081.46 1814.28 1081.5 1814.28 913.12 1966.28 913.12"/>
    <rect class="cls-11" x="1232.96" y="761.19" width="351.97" height="96.41" rx="30.43" transform="translate(823.36 -706.3) rotate(39)"/>
    <circle class="cls-12" cx="968.13" cy="463.38" r="423.31"/>
    <circle class="cls-13" cx="968.13" cy="463.38" r="402.15"/>
    <path class="cls-14" d="M724.66,230.6S836.2,87.37,934.78,117.54,867,111.77,724.66,230.6Z"/>
    <g>
      <path class="cls-15" d="M805.67,222.2V194.36h6.18V219.1h9.28v3.1Z"/>
      <path class="cls-15" d="M845.9,212.92H833.51V216a3.11,3.11,0,0,0,3.11,3.07h3.1q3.07,0,3.07-3.07h3.11c-.49,4.12-2.54,6.17-6.18,6.17h-6.21a6.2,6.2,0,0,1-6.17-6.17v-9.28a6.21,6.21,0,0,1,6.17-6.21h6.21a6,6,0,0,1,4.36,1.83,6,6,0,0,1,1.82,4.38Zm-12.39-3.1h6.21v-3.07a3.11,3.11,0,0,0-6.21,0Z"/>
      <path class="cls-15" d="M864.46,200.54h6.18v11.09a10.64,10.64,0,0,1-10.57,10.57h-8V200.54h6.17V219.1h3.11a3.11,3.11,0,0,0,3.1-3.07Z"/>
      <path class="cls-15" d="M895.38,212.92H883V216a3.11,3.11,0,0,0,3.11,3.07h3.1q3.07,0,3.07-3.07h3.11q-.74,6.18-6.18,6.17H883a6.2,6.2,0,0,1-6.17-6.17v-9.28a6.21,6.21,0,0,1,6.17-6.21h6.21a6,6,0,0,1,4.36,1.83,6,6,0,0,1,1.82,4.38ZM883,209.82h6.21v-3.07a3.11,3.11,0,0,0-6.21,0Z"/>
      <path class="cls-15" d="M901.56,222.2V194.36h6.17V222.2Z"/>
      <path class="cls-15" d="M938.46,206.75h-3.07c-.24-2.07-1.28-3.11-3.1-3.11a3.14,3.14,0,0,0-3.11,3.11V216a3.11,3.11,0,0,0,3.11,3.07c1.82,0,2.86-1,3.1-3.07h3.07q-.37,6.18-6.17,6.17h-3.11A6.2,6.2,0,0,1,923,216v-9.28a6.23,6.23,0,0,1,6.18-6.21h3.11Q938.11,200.54,938.46,206.75Z"/>
      <path class="cls-15" d="M950.85,200.54h6.2a5.92,5.92,0,0,1,4.36,1.83,6,6,0,0,1,1.82,4.38V216a6.23,6.23,0,0,1-6.18,6.17h-6.2a6.2,6.2,0,0,1-6.18-6.17v-9.28a6.23,6.23,0,0,1,6.18-6.21Zm0,6.21V216a3.1,3.1,0,0,0,6.2,0v-9.28a2.94,2.94,0,0,0-.92-2.19,3.1,3.1,0,0,0-5.28,2.19Z"/>
      <path class="cls-15" d="M988,222.2h-6.18V206.75a2.94,2.94,0,0,0-.92-2.19,3.1,3.1,0,0,0-5.28,2.19V222.2h-6.18V200.54h6.18v3.1a3.77,3.77,0,0,1,1-2.33,2.92,2.92,0,0,1,2.14-.77h3.1a5.21,5.21,0,0,1,4.64,2.19,4.55,4.55,0,0,1,1.89-1.65,6.47,6.47,0,0,1,2.76-.54h3.07a6,6,0,0,1,4.37,1.82,5.92,5.92,0,0,1,1.84,4.39V222.2h-6.21V206.75a3,3,0,0,0-.91-2.19,3.1,3.1,0,0,0-5.27,2.19Z"/>
      <path class="cls-15" d="M1006.53,200.54h6.18v3.1a3.1,3.1,0,0,1,.79-2.33,3.18,3.18,0,0,1,2.32-.77h3.1a6,6,0,0,1,4.36,1.83,6,6,0,0,1,1.82,4.38V216a6.2,6.2,0,0,1-6.18,6.17h-6.21v6.18h-6.18Zm6.18,18.56h3.11a3,3,0,0,0,2.18-.91,2.93,2.93,0,0,0,.92-2.16v-9.28a3,3,0,0,0-.92-2.19,3,3,0,0,0-2.18-.9,2.91,2.91,0,0,0-2.19.9,3,3,0,0,0-.92,2.19Z"/>
      <path class="cls-15" d="M1031.27,222.2V194.36h6.18V222.2Z"/>
      <path class="cls-15" d="M1062.22,212.92h-12.38V216a3.09,3.09,0,0,0,3.1,3.07h3.1q3.07,0,3.08-3.07h3.1q-.72,6.18-6.18,6.17h-6.2a6.2,6.2,0,0,1-6.18-6.17v-9.28a6.23,6.23,0,0,1,6.18-6.21h6.2a5.92,5.92,0,0,1,4.36,1.83,6,6,0,0,1,1.82,4.38Zm-12.38-3.1h6.2v-3.07a2.94,2.94,0,0,0-.92-2.19,3.1,3.1,0,0,0-5.28,2.19Z"/>
      <path class="cls-15" d="M1071.5,194.36h6.18v6.18h3.1v3.1h-3.1V216a2.75,2.75,0,0,0,1,2.28,3,3,0,0,0,1.82.79h.29v3.1h-3.1a6.2,6.2,0,0,1-6.18-6.17V203.64h-3.1v-3.1h3.1Z"/>
      <path class="cls-15" d="M1105.52,212.92h-12.38V216a3.11,3.11,0,0,0,3.1,3.07h3.11q3.08,0,3.07-3.07h3.1q-.72,6.18-6.17,6.17h-6.21A6.2,6.2,0,0,1,1087,216v-9.28a6.23,6.23,0,0,1,6.18-6.21h6.21a5.91,5.91,0,0,1,4.35,1.83,6,6,0,0,1,1.82,4.38Zm-12.38-3.1h6.21v-3.07a3,3,0,0,0-.92-2.19,3,3,0,0,0-2.19-.92,3.12,3.12,0,0,0-3.1,3.11Z"/>
      <path class="cls-15" d="M1114.78,212.92V194.36H1121v18.56Zm0,9.28V216H1121v6.17Z"/>
    </g>
    <path class="cls-16" d="M914.79,546.29c-3.39-43.77,9.12-85.4,59.3-89.75,22.12-5.47,48.9,14.56,54.05,28.59s6.46,24.92,5,21.47c6.58,4.19,9.15,12.84,8.23,20.73s-3.12,12.14-.38,20.66-.55,19.56-7.47,26.57c34.13,21.38,54.13,61.24,56.65,100.46,1.53,14,8,26.17,15.92,37.61,4.64,9.12,6.84,18.94,8.2,29,5,8.87,11,17.42,20.7,21.2a41.63,41.63,0,0,0,11.79,7.52c2.49,2.28,9.29,9.6,5.81,12.58s-7.84-3.11-9.66-5.53c3.35,3.43,3.76,8.21,3.34,12.86,0,2.25-2.57,1.54-3.93,1.13.68,3.62-2,4.22-5,4.14-1.59,2.12-2.68,4.66-6.11,1.93s-3.19-7.27-8.82-10.87c-13.08,2.09-21.63-11.3-27.51-20.51-2.92-4.52-7.91-6.88-12.65-8.88-4.43,42.15-49.26,104.8-75.37,102.86-25.91,2.36-124.39-41.69-147.31-36.31s-26.76-37.13-31.71-54,2.59-37.49,6.2-53.53c-7-10.74-17.41-10.37-12.43-28.81s15.19-28.94,16.47-57.37c7.38-36,29.2-54.8,64.07-60.75C904.54,561,910,553.41,914.79,546.29Z"/>
    <path class="cls-17" d="M954,498.63s2.21,3.74,10.69,1.12,9.25-1.58,9.25-1.58,3.15.84,3.68,3-4.7-4.88-11.67.34S954,498.63,954,498.63Z"/>
    <path class="cls-17" d="M944.45,499.47s-1.52,4.06-10.33,3-9.39.05-9.39.05-3,1.37-3.1,3.6,3.78-5.62,11.55-1.69S944.45,499.47,944.45,499.47Z"/>
    <path class="cls-18" d="M935.19,538.83s-2.59-4-1-5.44a3.75,3.75,0,0,1,3.55-.84s4.31-1.57,4-4.38,3.21-6,3.21-6,1.88-1.59,1.73-3.25a7.8,7.8,0,0,1-1.54,5.4,3.75,3.75,0,0,0-.75,4.23s.59,2.51,4,1.09c0,0,3.93-1.24,6.71-.22s4.39-1.88,4.39-1.88,0-3.65-4.59-2.13c0,0,2.8-3,5.34-.4s4.11,5.1,8.48,3.89c0,0,4.16-.36,4.44,5.44,0,0-1.31-3-3.59-3.49,0,0-5.71,1.39-8.53-1.8A5.8,5.8,0,0,1,959,531c-1.36.72-4.48.1-4.48.1a12.29,12.29,0,0,0-6,1c-3,1.38-5.84-1.88-5.84-1.88s-.85,4-6.59,4.09C936.14,534.34,933.46,535.32,935.19,538.83Z"/>
    <path class="cls-18" d="M1013.61,509.81s2-4.85,9.27-3.06,8,13.43,8,13.43-.27,10.86-11.68,12.3a14.49,14.49,0,0,0,8-14.41C1026.58,507.38,1018.68,507.29,1013.61,509.81Z"/>
    <path class="cls-19" d="M1015.62,509s7.7-2.57,10.4,2.35,1.09,13.31,1.09,13.31-2.32,8.06-8.09,7.78-5.83-1-5.83-1,10.21.92,11-7.85-1.8-11.1-1.8-11.1S1019.06,508.55,1015.62,509Z"/>
    <path class="cls-18" d="M938,535.68l32.09-2.47S958,561.24,938,535.68Z"/>
    <path class="cls-20" d="M942.3,537.26l24.49-2.14S955.88,552.86,942.3,537.26Z"/>
    <path class="cls-18" d="M943.25,548s13.93,8.6,24.11-2.7C967.36,545.34,958.87,563,943.25,548Z"/>
    <path class="cls-19" d="M946.8,551s10,7.5,18.06-2C964.86,549,958.41,563.14,946.8,551Z"/>
    <path class="cls-15" d="M873.94,707.66s-7.62.32-12.73,3.55-22.92,8.28-28,3.68l.48,3.27s18.35,5.31,31.24-6.32C864.92,711.84,869.48,708.4,873.94,707.66Z"/>
    <path class="cls-15" d="M1038.25,698h0s-25,19.31-63.65,8.36c0,0-25.35-10.87-44.7-3.46,0,0,27.94,2.79,42.18,5.86,27.67,6,62.86.75,66.17-10.76"/>
    <ellipse class="cls-21" cx="934.04" cy="514.34" rx="9.68" ry="3.85" transform="translate(-41.27 83.36) rotate(-5)"/>
    <circle class="cls-17" cx="934.04" cy="514.34" r="4.05"/>
    <path class="cls-22" d="M961.08,540.53c.09,1-2.45,3.15-6,3.47s-6.79-1.32-6.88-2.34,2.73-2.11,6.28-2.42S961,539.51,961.08,540.53Z"/>
    <g>
      <circle class="cls-23" cx="840.77" cy="696.66" r="9.48"/>
      <circle class="cls-24" cx="841.12" cy="696.87" r="2.48"/>
    </g>
    <g>
      <circle class="cls-23" cx="1004.12" cy="689.16" r="9.48"/>
      <circle class="cls-24" cx="1004.47" cy="689.36" r="2.48"/>
    </g>
    <path class="cls-25" d="M939.5,491.61s6.89-.89,8.53-2.05,5.2-.31,6.65.72,7.14-.07,7.14-.07-5.64,2.9-8.59.75-5.42,0-6.43.47S939.5,491.61,939.5,491.61Z"/>
    <path class="cls-19" d="M937.87,488.07s7.66-1,9.48-2.28,5.77-.34,7.39.8,7.93-.08,7.93-.08-6.27,3.23-9.54.84-6,0-7.15.53S937.87,488.07,937.87,488.07Z"/>
    <path class="cls-19" d="M1079.7,760.41l2.62-3.19s-18-4.42-29.1-38.11c0,0-.7-5.85-10.16-18.16a25.85,25.85,0,0,1-3.82-13.19c-.11-7.8-15.3-22.48-15.3-22.48s-7.48-9.25-8.82-18.08c0,0-.22,14.11,12,28.09,0,0,8.76,8.26,9.91,20.5a37,37,0,0,0,9.11,16.13,20.6,20.6,0,0,1,4.38,11C1051.32,730.11,1062.47,753.66,1079.7,760.41Z"/>
    <path class="cls-19" d="M902.68,568.22,901.8,571a146.41,146.41,0,0,1,18.75-5.53C930,563.51,902.68,568.22,902.68,568.22Z"/>
    <path class="cls-19" d="M1034.85,573.25l-1.92,2.32s-41.11-11.44-77.09-13.49C955.84,562.08,1002.35,560.12,1034.85,573.25Z"/>
    <g>
      <path d="M693,311.67q-.25,3.82-3.83,3.82h-3.85a3.82,3.82,0,0,1-3.82-3.82v-9.6a3.71,3.71,0,0,1,1.11-2.68,3.61,3.61,0,0,1,2.71-1.15h3.85c2.41,0,3.68,1.28,3.83,3.83h-1.93c-.15-1.27-.78-1.9-1.9-1.9h-1.92a1.84,1.84,0,0,0-1.36.56,1.81,1.81,0,0,0-.57,1.34v9.6a1.93,1.93,0,0,0,1.93,1.9h1.92c1.13,0,1.76-.63,1.9-1.9Z"/>
      <path d="M700.64,302.07h3.85a3.86,3.86,0,0,1,3.82,3.85v5.75a3.84,3.84,0,0,1-3.82,3.82h-3.85a3.84,3.84,0,0,1-3.83-3.82v-5.75a3.88,3.88,0,0,1,3.83-3.85Zm0,3.85v5.75a1.91,1.91,0,0,0,1.92,1.9,1.93,1.93,0,0,0,1.93-1.9v-5.75a1.95,1.95,0,0,0-1.93-1.93,1.83,1.83,0,0,0-1.35.57A1.85,1.85,0,0,0,700.64,305.92Z"/>
      <path d="M712.14,315.49V302.07H716V304a2.4,2.4,0,0,1,.6-1.44,1.78,1.78,0,0,1,1.32-.48h1.92a3.88,3.88,0,0,1,3.83,3.85v9.57h-3.83v-9.57a1.92,1.92,0,0,0-3.28-1.36,1.88,1.88,0,0,0-.56,1.36v9.57Z"/>
      <path d="M739,302.07v15.35a3.88,3.88,0,0,1-3.83,3.82H731.3q-3.39,0-3.83-3.82h1.92c.09,1.27.73,1.9,1.91,1.9h1.92a1.87,1.87,0,0,0,1.35-.56,1.81,1.81,0,0,0,.57-1.34v-3.85q-.23,1.92-1.92,1.92H731.3a3.84,3.84,0,0,1-3.83-3.82v-5.75a3.86,3.86,0,0,1,3.83-3.85ZM735.14,304h-1.92a1.93,1.93,0,0,0-1.92,1.93v5.75a1.83,1.83,0,0,0,.56,1.34,1.92,1.92,0,0,0,3.28-1.34Z"/>
      <path d="M746.62,315.49H742.8V302.07h3.82v3.85a4.76,4.76,0,0,1,1.19-2.89,3.6,3.6,0,0,1,2.66-1h1.9v3.85h-3.82a1.84,1.84,0,0,0-1.36.56,1.81,1.81,0,0,0-.57,1.34Z"/>
      <path d="M762,307.82v-1.9a1.95,1.95,0,0,0-1.92-1.93h-1.93c-1.13,0-1.76.65-1.9,1.93H754.3q.44-3.85,3.82-3.85H762a3.66,3.66,0,0,1,2.7,1.14,3.73,3.73,0,0,1,1.13,2.71v9.57H762v-1.92q-.22,1.92-1.92,1.92h-1.93a3.82,3.82,0,0,1-3.82-3.82v0a3.86,3.86,0,0,1,3.82-3.83Zm0,1.92h-1.92a1.85,1.85,0,0,0-1.36.57,1.81,1.81,0,0,0-.57,1.34v0a1.93,1.93,0,0,0,3.85,0Z"/>
      <path d="M771.54,298.24h3.83v3.83h1.92V304h-1.92v7.68a1.72,1.72,0,0,0,.61,1.41,1.87,1.87,0,0,0,1.14.49h.17v1.92h-1.92a3.84,3.84,0,0,1-3.83-3.82V304h-1.92v-1.92h1.92Z"/>
      <path d="M792.62,302.07v13.42h-3.83v-1.92c-.14,1.28-.79,1.92-1.92,1.92H785a3.84,3.84,0,0,1-3.83-3.82v-9.6H785v9.6a1.91,1.91,0,0,0,1.92,1.9,1.85,1.85,0,0,0,1.36-.56,1.83,1.83,0,0,0,.56-1.34v-9.6Z"/>
      <path d="M796.45,315.49V298.24h3.83v17.25Z"/>
      <path d="M811.79,307.82v-1.9a1.95,1.95,0,0,0-1.92-1.93H808c-1.13,0-1.77.65-1.91,1.93h-1.92c.3-2.57,1.57-3.85,3.83-3.85h3.84a3.88,3.88,0,0,1,3.83,3.85v9.57h-3.83v-1.92q-.22,1.92-1.92,1.92H808a3.84,3.84,0,0,1-3.83-3.82v0a3.86,3.86,0,0,1,3.83-3.83Zm0,1.92h-1.92a1.95,1.95,0,0,0-1.92,1.91v0a1.92,1.92,0,0,0,3.28,1.34,1.83,1.83,0,0,0,.56-1.34Z"/>
      <path d="M821.37,298.24h3.83v3.83h1.92V304H825.2v7.68a1.69,1.69,0,0,0,.61,1.41,1.84,1.84,0,0,0,1.13.49h.18v1.92H825.2a3.82,3.82,0,0,1-3.83-3.82V304h-1.92v-1.92h1.92Z"/>
      <path d="M831,300.17v-1.93h3.83v1.93Zm0,15.32V302.07h3.83v13.42Z"/>
      <path d="M842.45,302.07h3.84a3.88,3.88,0,0,1,3.83,3.85v5.75a3.86,3.86,0,0,1-3.83,3.82h-3.84a3.84,3.84,0,0,1-3.83-3.82v-5.75a3.86,3.86,0,0,1,3.83-3.85Zm0,3.85v5.75a1.92,1.92,0,0,0,3.28,1.34,1.83,1.83,0,0,0,.56-1.34v-5.75a1.92,1.92,0,0,0-3.28-1.36A1.88,1.88,0,0,0,842.45,305.92Z"/>
      <path d="M854,315.49V302.07h3.83V304a2.33,2.33,0,0,1,.59-1.44,1.81,1.81,0,0,1,1.33-.48h1.92a3.66,3.66,0,0,1,2.7,1.14,3.73,3.73,0,0,1,1.13,2.71v9.57h-3.83v-9.57a1.92,1.92,0,1,0-3.84,0v9.57Z"/>
      <path d="M878.85,305.92H877c-.17-1.28-.77-1.93-1.82-1.93a2.48,2.48,0,0,0-1.52.4,1.41,1.41,0,0,0-.52,1.19c0,.56.94,1.33,2.8,2.32,1.51.82,2.39,1.49,2.62,2a4.28,4.28,0,0,1,.34,1.71,3.82,3.82,0,0,1-3.82,3.85H873.1q-3.83,0-3.82-3.82h1.92c.15,1.27.75,1.91,1.8,1.91a2.42,2.42,0,0,0,1.52-.4A1.44,1.44,0,0,0,875,312c0-.54-.92-1.31-2.78-2.32-1.52-.8-2.4-1.48-2.63-2a4.3,4.3,0,0,1-.34-1.7,3.86,3.86,0,0,1,3.82-3.87H875C877.42,302.07,878.7,303.35,878.85,305.92Z"/>
      <path d="M882.7,311.67h3.83v3.82q0,3.4-3.83,3.83v-1.9a1.79,1.79,0,0,0,1.92-1.93H882.7Z"/>
      <path d="M897.91,317.42c.09,1.27.72,1.9,1.9,1.9h1.93a1.87,1.87,0,0,0,1.35-.56,1.81,1.81,0,0,0,.57-1.34v-3.85q-.23,1.92-1.92,1.92h-1.93a3.82,3.82,0,0,1-3.82-3.82v-9.6h3.82v9.6a1.93,1.93,0,0,0,1.93,1.9,1.91,1.91,0,0,0,1.92-1.9v-9.6h3.83v15.35a3.88,3.88,0,0,1-3.83,3.82h-3.85c-2.25,0-3.53-1.27-3.82-3.82Z"/>
      <path d="M915.14,302.07H919a3.86,3.86,0,0,1,3.82,3.85v5.75a3.84,3.84,0,0,1-3.82,3.82h-3.85a3.84,3.84,0,0,1-3.83-3.82v-5.75a3.88,3.88,0,0,1,3.83-3.85Zm0,3.85v5.75a1.91,1.91,0,0,0,1.92,1.9,1.93,1.93,0,0,0,1.93-1.9v-5.75a1.95,1.95,0,0,0-1.93-1.93,1.83,1.83,0,0,0-1.35.57A1.85,1.85,0,0,0,915.14,305.92Z"/>
      <path d="M938.14,302.07v13.42h-3.83v-1.92q-.22,1.92-1.92,1.92h-1.92a3.84,3.84,0,0,1-3.83-3.82v-9.6h3.83v9.6A1.83,1.83,0,0,0,931,313a1.93,1.93,0,0,0,2.72,0,1.83,1.83,0,0,0,.56-1.34v-9.6Z"/>
      <path d="M947.58,302.07h3.83v11.5h1.92a1.93,1.93,0,0,0,1.93-1.9v-9.6h3.82v11.5H961a1.91,1.91,0,0,0,1.9-1.9v-9.6h3.85v6.87a6.59,6.59,0,0,1-6.55,6.55h-5v-.61a5.57,5.57,0,0,1-2.73.61h-4.95Z"/>
      <path d="M974.41,302.07h3.85a3.86,3.86,0,0,1,3.82,3.85v5.75a3.84,3.84,0,0,1-3.82,3.82h-3.85a3.84,3.84,0,0,1-3.83-3.82v-5.75a3.86,3.86,0,0,1,3.83-3.85Zm0,3.85v5.75a1.91,1.91,0,0,0,1.92,1.9,1.93,1.93,0,0,0,1.93-1.9v-5.75a1.82,1.82,0,0,0-.58-1.36,1.92,1.92,0,0,0-3.27,1.36Z"/>
      <path d="M985.91,315.49V302.07h3.83V304a2.39,2.39,0,0,1,.59-1.44,1.82,1.82,0,0,1,1.33-.48h1.92a3.66,3.66,0,0,1,2.7,1.14,3.73,3.73,0,0,1,1.13,2.71v9.57h-3.83v-9.57a1.92,1.92,0,0,0-3.28-1.36,1.88,1.88,0,0,0-.56,1.36v9.57Z"/>
      <path d="M1003.14,309.74v-11.5H1007v11.5Zm0,5.75v-3.82H1007v3.82Z"/>
      <path d="M1022.18,315.49v-7.67q-3.82-.44-3.83-3.83v-5.75h3.83V304a1.85,1.85,0,0,0,.57,1.36,1.88,1.88,0,0,0,2.7,0A1.86,1.86,0,0,0,1026,304v-5.75h3.82V304q0,3.39-3.82,3.83v7.67Z"/>
      <path d="M1037.51,302.07h3.84a3.66,3.66,0,0,1,2.7,1.14,3.73,3.73,0,0,1,1.13,2.71v5.75a3.71,3.71,0,0,1-1.13,2.69,3.65,3.65,0,0,1-2.7,1.13h-3.84a3.84,3.84,0,0,1-3.83-3.82v-5.75a3.86,3.86,0,0,1,3.83-3.85Zm0,3.85v5.75a1.83,1.83,0,0,0,.56,1.34,1.93,1.93,0,0,0,2.72,0,1.83,1.83,0,0,0,.56-1.34v-5.75a1.92,1.92,0,0,0-3.28-1.36A1.88,1.88,0,0,0,1037.51,305.92Z"/>
      <path d="M1060.51,302.07v13.42h-3.83v-1.92q-.23,1.92-1.92,1.92h-1.93a3.82,3.82,0,0,1-3.82-3.82v-9.6h3.82v9.6a1.93,1.93,0,0,0,1.93,1.9,1.91,1.91,0,0,0,1.92-1.9v-9.6Z"/>
      <path d="M1077.62,307.82v-1.9a1.95,1.95,0,0,0-1.92-1.93h-1.92c-1.14,0-1.77.65-1.91,1.93H1070q.43-3.85,3.83-3.85h3.84a3.66,3.66,0,0,1,2.7,1.14,3.73,3.73,0,0,1,1.13,2.71v9.57h-3.83v-1.92q-.22,1.92-1.92,1.92h-1.92a3.84,3.84,0,0,1-3.83-3.82v0a3.86,3.86,0,0,1,3.83-3.83Zm0,1.92h-1.92a1.85,1.85,0,0,0-1.36.57,1.8,1.8,0,0,0-.56,1.34v0a1.83,1.83,0,0,0,.56,1.34,1.92,1.92,0,0,0,3.28-1.34Z"/>
      <path d="M1089.1,315.49h-3.82V302.07h3.82v3.85a4.76,4.76,0,0,1,1.19-2.89,3.6,3.6,0,0,1,2.66-1h1.9v3.85H1091a1.84,1.84,0,0,0-1.36.56,1.81,1.81,0,0,0-.57,1.34Z"/>
      <path d="M1108.28,309.74h-7.68v1.93a1.93,1.93,0,0,0,1.93,1.9h1.92a1.68,1.68,0,0,0,1.9-1.9h1.93q-.45,3.82-3.83,3.82h-3.85a3.82,3.82,0,0,1-3.82-3.82v-5.75a3.86,3.86,0,0,1,3.82-3.85h3.85a3.66,3.66,0,0,1,2.7,1.14,3.73,3.73,0,0,1,1.13,2.71Zm-7.68-1.92h3.85v-1.9a1.93,1.93,0,0,0-3.85,0Z"/>
      <path d="M1125.39,307.82v-1.9a1.95,1.95,0,0,0-1.92-1.93h-1.92c-1.14,0-1.77.65-1.91,1.93h-1.92q.43-3.85,3.83-3.85h3.84a3.66,3.66,0,0,1,2.7,1.14,3.73,3.73,0,0,1,1.13,2.71v9.57h-3.83v-1.92q-.23,1.92-1.92,1.92h-1.92a3.84,3.84,0,0,1-3.83-3.82v0a3.86,3.86,0,0,1,3.83-3.83Zm0,1.92h-1.92a1.85,1.85,0,0,0-1.36.57,1.8,1.8,0,0,0-.56,1.34v0a1.83,1.83,0,0,0,.56,1.34,1.92,1.92,0,0,0,3.28-1.34Z"/>
      <path d="M1138.66,315.49V302.07h3.83V304a2.4,2.4,0,0,1,.6-1.44,1.78,1.78,0,0,1,1.32-.48h1.92a3.88,3.88,0,0,1,3.83,3.85v9.57h-3.83v-9.57a1.92,1.92,0,0,0-3.28-1.36,1.88,1.88,0,0,0-.56,1.36v9.57Z"/>
      <path d="M1161.66,307.82v-1.9a1.95,1.95,0,0,0-1.92-1.93h-1.92c-1.14,0-1.77.65-1.91,1.93H1154q.43-3.85,3.83-3.85h3.84a3.66,3.66,0,0,1,2.7,1.14,3.73,3.73,0,0,1,1.13,2.71v9.57h-3.83v-1.92q-.23,1.92-1.92,1.92h-1.92a3.84,3.84,0,0,1-3.83-3.82v0a3.86,3.86,0,0,1,3.83-3.83Zm0,1.92h-1.92a1.85,1.85,0,0,0-1.36.57,1.8,1.8,0,0,0-.56,1.34v0a1.83,1.83,0,0,0,.56,1.34,1.92,1.92,0,0,0,3.28-1.34Z"/>
      <path d="M1171.24,298.24h3.83v3.83H1177V304h-1.92v7.68a1.69,1.69,0,0,0,.61,1.41,1.82,1.82,0,0,0,1.13.49h.18v1.92h-1.92a3.82,3.82,0,0,1-3.83-3.82V304h-1.92v-1.92h1.92Z"/>
      <path d="M1192.32,302.07v13.42h-3.83v-1.92q-.23,1.92-1.92,1.92h-1.93a3.82,3.82,0,0,1-3.82-3.82v-9.6h3.82v9.6a1.93,1.93,0,0,0,3.85,0v-9.6Z"/>
      <path d="M1200,315.49h-3.83V302.07H1200v3.85a4.7,4.7,0,0,1,1.19-2.89,3.58,3.58,0,0,1,2.66-1h1.9v3.85h-3.83a1.93,1.93,0,0,0-1.92,1.9Z"/>
      <path d="M1215.32,307.82v-1.9a2,2,0,0,0-1.93-1.93h-1.92c-1.13,0-1.77.65-1.9,1.93h-1.93c.3-2.57,1.57-3.85,3.83-3.85h3.85a3.88,3.88,0,0,1,3.82,3.85v9.57h-3.82v-1.92c-.15,1.28-.8,1.92-1.93,1.92h-1.92a3.84,3.84,0,0,1-3.83-3.82v0a3.86,3.86,0,0,1,3.83-3.83Zm0,1.92h-1.93a1.83,1.83,0,0,0-1.35.57,1.81,1.81,0,0,0-.57,1.34v0a1.91,1.91,0,0,0,1.92,1.9,1.93,1.93,0,0,0,1.93-1.9Z"/>
      <path d="M1223,315.49V298.24h3.83v17.25Z"/>
      <path d="M1230.64,309.74v-1.92h9.58v1.92Z"/>
      <path d="M681.49,352.49V335.24h3.82V341a2.4,2.4,0,0,1,.6-1.44,1.79,1.79,0,0,1,1.33-.48h1.92a3.66,3.66,0,0,1,2.7,1.14,3.73,3.73,0,0,1,1.13,2.71v5.75a3.71,3.71,0,0,1-1.13,2.69,3.65,3.65,0,0,1-2.7,1.13Zm3.82-1.92h1.93a1.91,1.91,0,0,0,1.92-1.9v-5.75a1.93,1.93,0,0,0-3.85,0Z"/>
      <path d="M700.64,339.07h3.85a3.86,3.86,0,0,1,3.82,3.85v5.75a3.84,3.84,0,0,1-3.82,3.82h-3.85a3.84,3.84,0,0,1-3.83-3.82v-5.75a3.88,3.88,0,0,1,3.83-3.85Zm0,3.85v5.75a1.91,1.91,0,0,0,1.92,1.9,1.93,1.93,0,0,0,1.93-1.9v-5.75a1.95,1.95,0,0,0-1.93-1.93,1.83,1.83,0,0,0-1.35.57A1.85,1.85,0,0,0,700.64,342.92Z"/>
      <path d="M716,352.49h-3.83V339.07H716v3.85a4.76,4.76,0,0,1,1.18-2.89,3.6,3.6,0,0,1,2.66-1h1.91v3.85h-3.83a1.91,1.91,0,0,0-1.92,1.9Z"/>
      <path d="M723.64,352.49V339.07h3.83V341a2.4,2.4,0,0,1,.6-1.44,1.78,1.78,0,0,1,1.32-.48h1.92a3.88,3.88,0,0,1,3.83,3.85v9.57h-3.83v-9.57a1.92,1.92,0,0,0-3.28-1.36,1.88,1.88,0,0,0-.56,1.36v9.57Z"/>
      <path d="M744.58,337.17v-1.93h3.83v1.93Zm0,15.32V339.07h3.83v13.42Z"/>
      <path d="M752.26,352.49V339.07h3.82V341a2.4,2.4,0,0,1,.6-1.44,1.79,1.79,0,0,1,1.33-.48h1.92a3.66,3.66,0,0,1,2.7,1.14,3.73,3.73,0,0,1,1.13,2.71v9.57h-3.83v-9.57a1.93,1.93,0,0,0-3.85,0v9.57Z"/>
      <path d="M777.16,342.92h-1.9c-.17-1.28-.78-1.93-1.82-1.93a2.5,2.5,0,0,0-1.53.4,1.43,1.43,0,0,0-.51,1.19c0,.56.93,1.33,2.8,2.32,1.51.82,2.38,1.49,2.61,2a4.29,4.29,0,0,1,.35,1.71,3.72,3.72,0,0,1-1.13,2.73,3.68,3.68,0,0,1-2.7,1.12h-1.92q-3.82,0-3.83-3.82h1.93c.15,1.27.74,1.91,1.79,1.91a2.43,2.43,0,0,0,1.53-.4,1.44,1.44,0,0,0,.51-1.2c0-.54-.93-1.31-2.78-2.32-1.52-.8-2.4-1.48-2.63-2a4.31,4.31,0,0,1-.35-1.7,3.86,3.86,0,0,1,3.83-3.87h1.92C775.73,339.07,777,340.35,777.16,342.92Z"/>
      <path d="M782.93,335.24h3.83v3.83h1.92V341h-1.92v7.68a1.69,1.69,0,0,0,.61,1.41,1.82,1.82,0,0,0,1.13.49h.18v1.92h-1.92a3.82,3.82,0,0,1-3.83-3.82V341H781v-1.92h1.92Z"/>
      <path d="M800.18,344.82v-1.9a1.95,1.95,0,0,0-1.92-1.93h-1.93c-1.13,0-1.76.65-1.9,1.93h-1.92q.43-3.85,3.82-3.85h3.85a3.66,3.66,0,0,1,2.7,1.14,3.73,3.73,0,0,1,1.13,2.71v9.57h-3.83v-1.92q-.23,1.92-1.92,1.92h-1.93a3.82,3.82,0,0,1-3.82-3.82v0a3.86,3.86,0,0,1,3.82-3.83Zm0,1.92h-1.92a1.85,1.85,0,0,0-1.36.57,1.81,1.81,0,0,0-.57,1.34v0a1.93,1.93,0,0,0,3.85,0Z"/>
      <path d="M819.33,339.07v15.35a3.86,3.86,0,0,1-3.83,3.82h-3.84c-2.26,0-3.53-1.27-3.83-3.82h1.92c.09,1.27.73,1.9,1.91,1.9h1.92a1.87,1.87,0,0,0,1.35-.56,1.81,1.81,0,0,0,.57-1.34v-3.85q-.22,1.92-1.92,1.92h-1.92a3.84,3.84,0,0,1-3.83-3.82v-5.75a3.86,3.86,0,0,1,3.83-3.85ZM815.5,341h-1.92a1.83,1.83,0,0,0-1.35.57,1.85,1.85,0,0,0-.57,1.36v5.75a1.91,1.91,0,0,0,1.92,1.9,1.85,1.85,0,0,0,1.36-.56,1.83,1.83,0,0,0,.56-1.34Z"/>
      <path d="M827,352.49h-3.83V339.07H827v3.85a4.76,4.76,0,0,1,1.18-2.89,3.6,3.6,0,0,1,2.66-1h1.91v3.85h-3.83a1.91,1.91,0,0,0-1.92,1.9Z"/>
      <path d="M842.33,344.82v-1.9a1.95,1.95,0,0,0-1.92-1.93h-1.92c-1.14,0-1.77.65-1.91,1.93h-1.92q.44-3.85,3.83-3.85h3.84a3.66,3.66,0,0,1,2.7,1.14,3.73,3.73,0,0,1,1.13,2.71v9.57h-3.83v-1.92q-.23,1.92-1.92,1.92h-1.92a3.84,3.84,0,0,1-3.83-3.82v0a3.86,3.86,0,0,1,3.83-3.83Zm0,1.92h-1.92a1.93,1.93,0,0,0-1.92,1.91v0a1.83,1.83,0,0,0,.56,1.34,1.93,1.93,0,0,0,2.72,0,1.83,1.83,0,0,0,.56-1.34Z"/>
      <path d="M861.49,352.49h-3.83v-9.57a1.93,1.93,0,0,0-3.85,0v9.57H850V339.07h3.82V341a2.4,2.4,0,0,1,.6-1.44,1.79,1.79,0,0,1,1.33-.48h1.92a3.21,3.21,0,0,1,2.87,1.36,2.74,2.74,0,0,1,1.17-1,3.92,3.92,0,0,1,1.71-.34h1.9a3.88,3.88,0,0,1,3.85,3.85v9.57h-3.85v-9.57a1.9,1.9,0,0,0-3.26-1.36,1.88,1.88,0,0,0-.56,1.36Z"/>
      <path d="M878.6,337.17v-1.93h3.83v1.93Zm0,15.32V339.07h3.83v13.42Z"/>
      <path d="M886.27,352.49V339.07h3.83V341a2.4,2.4,0,0,1,.6-1.44,1.78,1.78,0,0,1,1.32-.48H894a3.66,3.66,0,0,1,2.7,1.14,3.72,3.72,0,0,1,1.12,2.71v9.57H894v-9.57a1.93,1.93,0,0,0-3.85,0v9.57Z"/>
      <path d="M911.18,342.92h-1.91c-.16-1.28-.77-1.93-1.81-1.93a2.5,2.5,0,0,0-1.53.4,1.43,1.43,0,0,0-.51,1.19c0,.56.93,1.33,2.79,2.32,1.52.82,2.39,1.49,2.62,2a4.29,4.29,0,0,1,.35,1.71,3.72,3.72,0,0,1-1.13,2.73,3.68,3.68,0,0,1-2.7,1.12h-1.92q-3.82,0-3.83-3.82h1.92c.15,1.27.75,1.91,1.8,1.91a2.43,2.43,0,0,0,1.53-.4,1.44,1.44,0,0,0,.51-1.2c0-.54-.93-1.31-2.78-2.32-1.53-.8-2.4-1.48-2.63-2a4.31,4.31,0,0,1-.35-1.7,3.86,3.86,0,0,1,3.83-3.87h1.92C909.75,339.07,911,340.35,911.18,342.92Z"/>
      <path d="M915,339.07h3.83V341a1.92,1.92,0,0,1,.49-1.44,2,2,0,0,1,1.43-.48h1.93a3.66,3.66,0,0,1,2.7,1.14,3.72,3.72,0,0,1,1.12,2.71v5.75a3.82,3.82,0,0,1-3.82,3.82h-3.85v3.83H915Zm3.83,11.5h1.92a1.88,1.88,0,0,0,1.36-.56,1.81,1.81,0,0,0,.57-1.34v-5.75a1.81,1.81,0,0,0-.57-1.35,1.85,1.85,0,0,0-1.36-.57,1.82,1.82,0,0,0-1.35.56,1.85,1.85,0,0,0-.57,1.36Z"/>
      <path d="M941.85,346.74h-7.67v1.93a1.91,1.91,0,0,0,1.92,1.9H938a1.68,1.68,0,0,0,1.91-1.9h1.92c-.3,2.55-1.57,3.82-3.83,3.82h-3.84a3.84,3.84,0,0,1-3.83-3.82v-5.75a3.86,3.86,0,0,1,3.83-3.85H938a3.88,3.88,0,0,1,3.83,3.85Zm-7.67-1.92H938v-1.9a1.92,1.92,0,0,0-3.28-1.36,1.88,1.88,0,0,0-.56,1.36Z"/>
      <path d="M955.26,342.92h-1.91c-.15-1.28-.79-1.93-1.92-1.93a1.93,1.93,0,0,0-1.92,1.93v5.75a1.83,1.83,0,0,0,.56,1.34,1.86,1.86,0,0,0,1.36.56c1.13,0,1.77-.63,1.92-1.9h1.91q-.24,3.82-3.83,3.82h-1.92a3.84,3.84,0,0,1-3.83-3.82v-5.75a3.86,3.86,0,0,1,3.83-3.85h1.92C953.84,339.07,955.11,340.35,955.26,342.92Z"/>
      <path d="M961,335.24h3.83v3.83h1.92V341h-1.92v7.68a1.69,1.69,0,0,0,.61,1.41,1.87,1.87,0,0,0,1.13.49h.18v1.92h-1.92a3.84,3.84,0,0,1-3.83-3.82V341H959.1v-1.92H961Z"/>
      <path d="M974.43,339.07h3.84a3.88,3.88,0,0,1,3.83,3.85v5.75a3.86,3.86,0,0,1-3.83,3.82h-3.84a3.84,3.84,0,0,1-3.83-3.82v-5.75a3.86,3.86,0,0,1,3.83-3.85Zm0,3.85v5.75a1.92,1.92,0,0,0,3.28,1.34,1.83,1.83,0,0,0,.56-1.34v-5.75a1.95,1.95,0,0,0-1.92-1.93,1.81,1.81,0,0,0-1.35.57A1.85,1.85,0,0,0,974.43,342.92Z"/>
      <path d="M989.76,352.49h-3.83V339.07h3.83v3.85a4.76,4.76,0,0,1,1.18-2.89,3.6,3.6,0,0,1,2.66-1h1.91v3.85h-3.83a1.84,1.84,0,0,0-1.36.56,1.8,1.8,0,0,0-.56,1.34Z"/>
      <path d="M997.43,352.49v-3.82h3.83v3.82Z"/>
      <path d="M1014.54,352.49v-7.67q-3.82-.44-3.82-3.83v-5.75h3.82V341a1.93,1.93,0,0,0,3.85,0v-5.75h3.83V341q0,3.39-3.83,3.83v7.67Z"/>
      <path d="M1029.87,339.07h3.85a3.86,3.86,0,0,1,3.82,3.85v5.75a3.84,3.84,0,0,1-3.82,3.82h-3.85a3.84,3.84,0,0,1-3.83-3.82v-5.75a3.86,3.86,0,0,1,3.83-3.85Zm0,3.85v5.75a1.91,1.91,0,0,0,1.92,1.9,1.93,1.93,0,0,0,1.93-1.9v-5.75a1.82,1.82,0,0,0-.58-1.36,1.92,1.92,0,0,0-3.27,1.36Z"/>
      <path d="M1052.87,339.07v13.42H1049v-1.92q-.22,1.92-1.92,1.92h-1.92a3.84,3.84,0,0,1-3.83-3.82v-9.6h3.83v9.6a1.83,1.83,0,0,0,.56,1.34,1.93,1.93,0,0,0,2.72,0,1.83,1.83,0,0,0,.56-1.34v-9.6Z"/>
      <path d="M1062.31,339.07h3.83v11.5h1.92a1.93,1.93,0,0,0,1.93-1.9v-9.6h3.82v11.5h1.93a1.91,1.91,0,0,0,1.9-1.9v-9.6h3.85v6.87a6.59,6.59,0,0,1-6.55,6.55h-5v-.61a5.57,5.57,0,0,1-2.73.61h-5Z"/>
      <path d="M1096.81,346.74h-7.67v1.93a1.91,1.91,0,0,0,1.92,1.9H1093a1.68,1.68,0,0,0,1.9-1.9h1.92q-.45,3.82-3.82,3.82h-3.85a3.84,3.84,0,0,1-3.83-3.82v-5.75a3.86,3.86,0,0,1,3.83-3.85H1093a3.88,3.88,0,0,1,3.82,3.85Zm-7.67-1.92H1093v-1.9a2,2,0,0,0-1.93-1.93,1.83,1.83,0,0,0-1.35.57,1.85,1.85,0,0,0-.57,1.36Z"/>
      <path d="M1104.47,352.49h-3.83V339.07h3.83v3.85a4.76,4.76,0,0,1,1.18-2.89,3.6,3.6,0,0,1,2.66-1h1.91v3.85h-3.83a1.91,1.91,0,0,0-1.92,1.9Z"/>
      <path d="M1123.64,346.74H1116v1.93a1.83,1.83,0,0,0,.56,1.34,1.86,1.86,0,0,0,1.36.56h1.92a1.68,1.68,0,0,0,1.91-1.9h1.92q-.45,3.82-3.83,3.82H1116a3.84,3.84,0,0,1-3.83-3.82v-5.75a3.86,3.86,0,0,1,3.83-3.85h3.84a3.66,3.66,0,0,1,2.7,1.14,3.73,3.73,0,0,1,1.13,2.71Zm-7.67-1.92h3.84v-1.9a1.92,1.92,0,0,0-3.28-1.36,1.88,1.88,0,0,0-.56,1.36Z"/>
      <path d="M1140.75,344.82v-1.9a1.95,1.95,0,0,0-1.92-1.93h-1.92c-1.13,0-1.77.65-1.91,1.93h-1.92c.3-2.57,1.57-3.85,3.83-3.85h3.84a3.88,3.88,0,0,1,3.83,3.85v9.57h-3.83v-1.92q-.23,1.92-1.92,1.92h-1.92a3.84,3.84,0,0,1-3.83-3.82v0a3.86,3.86,0,0,1,3.83-3.83Zm0,1.92h-1.92a1.95,1.95,0,0,0-1.92,1.91v0a1.91,1.91,0,0,0,1.92,1.9,1.85,1.85,0,0,0,1.36-.56,1.83,1.83,0,0,0,.56-1.34Z"/>
      <path d="M1148.41,352.49V335.24h3.83V341a2.33,2.33,0,0,1,.59-1.44,1.81,1.81,0,0,1,1.33-.48h1.92a3.66,3.66,0,0,1,2.7,1.14,3.73,3.73,0,0,1,1.13,2.71v5.75a3.71,3.71,0,0,1-1.13,2.69,3.65,3.65,0,0,1-2.7,1.13Zm3.83-1.92h1.92a1.91,1.91,0,0,0,1.92-1.9v-5.75a1.92,1.92,0,1,0-3.84,0Z"/>
      <path d="M1163.74,352.49V335.24h3.82v17.25Z"/>
      <path d="M1182.91,346.74h-7.67v1.93a1.83,1.83,0,0,0,.56,1.34,1.86,1.86,0,0,0,1.36.56h1.92a1.68,1.68,0,0,0,1.91-1.9h1.92q-.45,3.82-3.83,3.82h-3.84a3.84,3.84,0,0,1-3.83-3.82v-5.75a3.86,3.86,0,0,1,3.83-3.85h3.84a3.66,3.66,0,0,1,2.7,1.14,3.73,3.73,0,0,1,1.13,2.71Zm-7.67-1.92h3.84v-1.9a1.92,1.92,0,1,0-3.84,0Z"/>
      <path d="M1194.27,335.24h3.83v3.83H1200V341h-1.92v7.68a1.69,1.69,0,0,0,.61,1.41,1.87,1.87,0,0,0,1.13.49h.18v1.92h-1.92a3.84,3.84,0,0,1-3.83-3.82V341h-1.92v-1.92h1.92Z"/>
      <path d="M1207.68,339.07h3.84a3.88,3.88,0,0,1,3.83,3.85v5.75a3.86,3.86,0,0,1-3.83,3.82h-3.84a3.84,3.84,0,0,1-3.83-3.82v-5.75a3.86,3.86,0,0,1,3.83-3.85Zm0,3.85v5.75A1.92,1.92,0,0,0,1211,350a1.83,1.83,0,0,0,.56-1.34v-5.75a1.95,1.95,0,0,0-1.92-1.93,1.81,1.81,0,0,0-1.35.57A1.85,1.85,0,0,0,1207.68,342.92Z"/>
      <path d="M681.49,389.49V376.07h3.82V378a2.4,2.4,0,0,1,.6-1.44,1.79,1.79,0,0,1,1.33-.48h1.92a3.66,3.66,0,0,1,2.7,1.14,3.73,3.73,0,0,1,1.13,2.71v9.57h-3.83v-9.57a1.93,1.93,0,0,0-3.85,0v9.57Z"/>
      <path d="M704.49,381.82v-1.9a1.95,1.95,0,0,0-1.93-1.93h-1.92c-1.13,0-1.77.65-1.9,1.93h-1.93c.3-2.57,1.57-3.85,3.83-3.85h3.85a3.86,3.86,0,0,1,3.82,3.85v9.57h-3.82v-1.92c-.15,1.28-.79,1.92-1.93,1.92h-1.92a3.84,3.84,0,0,1-3.83-3.82v0a3.88,3.88,0,0,1,3.83-3.83Zm0,1.92h-1.93a1.83,1.83,0,0,0-1.35.57,1.81,1.81,0,0,0-.57,1.34v0a1.91,1.91,0,0,0,1.92,1.9,1.93,1.93,0,0,0,1.93-1.9Z"/>
      <path d="M719.81,376.07h3.83v6.87a6.59,6.59,0,0,1-6.55,6.55h-5V376.07H716v11.5h1.92a1.86,1.86,0,0,0,1.36-.56,1.83,1.83,0,0,0,.56-1.34Z"/>
      <path d="M727.47,374.17v-1.93h3.83v1.93Zm0,15.32V376.07h3.83v13.42Z"/>
      <path d="M746.64,376.07v15.35a3.88,3.88,0,0,1-3.83,3.82H739q-3.39,0-3.83-3.82h1.92c.09,1.27.73,1.9,1.91,1.9h1.92a1.87,1.87,0,0,0,1.35-.56,1.81,1.81,0,0,0,.57-1.34v-3.85q-.22,1.92-1.92,1.92H739a3.84,3.84,0,0,1-3.83-3.82v-5.75a3.86,3.86,0,0,1,3.83-3.85ZM742.81,378h-1.92a1.85,1.85,0,0,0-1.36.57,1.88,1.88,0,0,0-.56,1.36v5.75a1.83,1.83,0,0,0,.56,1.34,1.93,1.93,0,0,0,2.72,0,1.83,1.83,0,0,0,.56-1.34Z"/>
      <path d="M758.14,381.82v-1.9a1.95,1.95,0,0,0-1.92-1.93h-1.93c-1.13,0-1.76.65-1.9,1.93h-1.92c.29-2.57,1.57-3.85,3.82-3.85h3.85a3.66,3.66,0,0,1,2.7,1.14,3.73,3.73,0,0,1,1.13,2.71v9.57h-3.83v-1.92q-.23,1.92-1.92,1.92h-1.93a3.84,3.84,0,0,1-3.82-3.82v0a3.86,3.86,0,0,1,3.82-3.83Zm0,1.92h-1.92a1.85,1.85,0,0,0-1.36.57,1.81,1.81,0,0,0-.57,1.34v0a1.93,1.93,0,0,0,1.93,1.9,1.91,1.91,0,0,0,1.92-1.9Z"/>
      <path d="M767.72,372.24h3.82v3.83h1.93V378h-1.93v7.68a1.7,1.7,0,0,0,.62,1.41,1.82,1.82,0,0,0,1.13.49h.18v1.92h-1.93a3.82,3.82,0,0,1-3.82-3.82V378h-1.93v-1.92h1.93Z"/>
      <path d="M788.79,383.74h-7.67v1.93a1.91,1.91,0,0,0,1.92,1.9H785a1.68,1.68,0,0,0,1.9-1.9h1.92c-.29,2.55-1.57,3.82-3.82,3.82h-3.85a3.84,3.84,0,0,1-3.83-3.82v-5.75a3.88,3.88,0,0,1,3.83-3.85H785a3.66,3.66,0,0,1,2.7,1.14,3.72,3.72,0,0,1,1.12,2.71Zm-7.67-1.92H785v-1.9a1.93,1.93,0,0,0-3.85,0Z"/>
      <path d="M798.24,374.17v-1.93h3.82v1.93Zm0,15.32V376.07h3.82v13.42Z"/>
      <path d="M805.91,389.49V376.07h3.83V378a2.33,2.33,0,0,1,.59-1.44,1.81,1.81,0,0,1,1.33-.48h1.92a3.66,3.66,0,0,1,2.7,1.14,3.73,3.73,0,0,1,1.13,2.71v9.57h-3.83v-9.57a1.92,1.92,0,0,0-3.28-1.36,1.88,1.88,0,0,0-.56,1.36v9.57Z"/>
      <path d="M828.77,372.24h3.83v3.83h1.92V378H832.6v7.68a1.72,1.72,0,0,0,.61,1.41,1.87,1.87,0,0,0,1.13.49h.18v1.92H832.6a3.84,3.84,0,0,1-3.83-3.82V378h-1.92v-1.92h1.92Z"/>
      <path d="M838.35,389.49V372.24h3.83V378a2.4,2.4,0,0,1,.6-1.44,1.78,1.78,0,0,1,1.32-.48H846a3.88,3.88,0,0,1,3.83,3.85v9.57H846v-9.57A1.95,1.95,0,0,0,844.1,378a1.81,1.81,0,0,0-1.35.57,1.85,1.85,0,0,0-.57,1.36v9.57Z"/>
      <path d="M865.18,383.74h-7.67v1.93a1.83,1.83,0,0,0,.56,1.34,1.86,1.86,0,0,0,1.36.56h1.92a1.68,1.68,0,0,0,1.91-1.9h1.92q-.45,3.82-3.83,3.82h-3.84a3.84,3.84,0,0,1-3.83-3.82v-5.75a3.86,3.86,0,0,1,3.83-3.85h3.84a3.66,3.66,0,0,1,2.7,1.14,3.73,3.73,0,0,1,1.13,2.71Zm-7.67-1.92h3.84v-1.9a1.92,1.92,0,1,0-3.84,0Z"/>
      <path d="M876.54,389.49V378h-1.92v-1.92h1.92v-.17a3.69,3.69,0,0,1,3.66-3.66h4v1.93h-2.09a1.71,1.71,0,0,0-1.23.51,1.69,1.69,0,0,0-.51,1.22v.17h1.92V378h-1.92v11.5Z"/>
      <path d="M897.62,383.74H890v1.93a1.91,1.91,0,0,0,1.92,1.9h1.92a1.68,1.68,0,0,0,1.91-1.9h1.92c-.3,2.55-1.57,3.82-3.83,3.82H890a3.84,3.84,0,0,1-3.83-3.82v-5.75a3.86,3.86,0,0,1,3.83-3.85h3.84a3.88,3.88,0,0,1,3.83,3.85ZM890,381.82h3.84v-1.9a1.92,1.92,0,0,0-3.28-1.36,1.88,1.88,0,0,0-.56,1.36Z"/>
      <path d="M913,383.74h-7.67v1.93a1.83,1.83,0,0,0,.56,1.34,1.86,1.86,0,0,0,1.36.56h1.92a1.68,1.68,0,0,0,1.91-1.9H913q-.45,3.82-3.83,3.82h-3.84a3.84,3.84,0,0,1-3.83-3.82v-5.75a3.86,3.86,0,0,1,3.83-3.85h3.84a3.66,3.66,0,0,1,2.7,1.14,3.73,3.73,0,0,1,1.13,2.71Zm-7.67-1.92h3.84v-1.9a1.92,1.92,0,1,0-3.84,0Z"/>
      <path d="M928.28,389.49h-3.83v-1.92q-.23,1.92-1.92,1.92H920.6a3.82,3.82,0,0,1-3.82-3.82v-5.75a3.86,3.86,0,0,1,3.82-3.85h3.85v-3.83h3.83ZM924.45,378h-1.92a1.95,1.95,0,0,0-1.93,1.93v5.75a1.93,1.93,0,0,0,3.85,0Z"/>
      <path d="M945.39,381.82v-1.9a1.95,1.95,0,0,0-1.92-1.93h-1.92c-1.14,0-1.77.65-1.91,1.93h-1.92q.43-3.85,3.83-3.85h3.84a3.66,3.66,0,0,1,2.7,1.14,3.73,3.73,0,0,1,1.13,2.71v9.57h-3.83v-1.92q-.23,1.92-1.92,1.92h-1.92a3.84,3.84,0,0,1-3.83-3.82v0a3.86,3.86,0,0,1,3.83-3.83Zm0,1.92h-1.92a1.85,1.85,0,0,0-1.36.57,1.8,1.8,0,0,0-.56,1.34v0a1.83,1.83,0,0,0,.56,1.34,1.92,1.92,0,0,0,3.28-1.34Z"/>
      <path d="M953.05,389.49V376.07h3.82V378a2.4,2.4,0,0,1,.6-1.44,1.79,1.79,0,0,1,1.33-.48h1.92a3.66,3.66,0,0,1,2.7,1.14,3.73,3.73,0,0,1,1.13,2.71v9.57h-3.83v-9.57a1.93,1.93,0,0,0-3.85,0v9.57Z"/>
      <path d="M979.87,389.49h-3.82v-1.92c-.15,1.28-.8,1.92-1.93,1.92H972.2a3.84,3.84,0,0,1-3.83-3.82v-5.75a3.86,3.86,0,0,1,3.83-3.85h3.85v-3.83h3.82ZM976.05,378h-1.93a1.83,1.83,0,0,0-1.35.57,1.85,1.85,0,0,0-.57,1.36v5.75a1.91,1.91,0,0,0,1.92,1.9,1.93,1.93,0,0,0,1.93-1.9Z"/>
      <path d="M989.32,389.49V376.07h3.82V378a2.4,2.4,0,0,1,.6-1.44,1.79,1.79,0,0,1,1.33-.48H997a3.66,3.66,0,0,1,2.7,1.14,3.73,3.73,0,0,1,1.13,2.71v9.57H997v-9.57a1.93,1.93,0,0,0-3.85,0v9.57Z"/>
      <path d="M1008.47,376.07h3.85a3.88,3.88,0,0,1,3.82,3.85v5.75a3.86,3.86,0,0,1-3.82,3.82h-3.85a3.84,3.84,0,0,1-3.83-3.82v-5.75a3.86,3.86,0,0,1,3.83-3.85Zm0,3.85v5.75a1.91,1.91,0,0,0,1.92,1.9,1.93,1.93,0,0,0,1.93-1.9v-5.75a2,2,0,0,0-1.93-1.93,1.83,1.83,0,0,0-1.35.57A1.85,1.85,0,0,0,1008.47,379.92Z"/>
      <path d="M1021.89,372.24h3.83v3.83h1.92V378h-1.92v7.68a1.69,1.69,0,0,0,.61,1.41,1.87,1.87,0,0,0,1.13.49h.18v1.92h-1.92a3.84,3.84,0,0,1-3.83-3.82V378H1020v-1.92h1.92Z"/>
      <path d="M1039,389.49V378h-1.93v-1.92H1039v-.17a3.52,3.52,0,0,1,1.08-2.58,3.48,3.48,0,0,1,2.57-1.08h4v1.93h-2.08a1.68,1.68,0,0,0-1.23.51,1.7,1.7,0,0,0-.52,1.22v.17h1.93V378h-1.93v11.5Z"/>
      <path d="M1052.41,389.49h-3.83V376.07h3.83v3.85a4.76,4.76,0,0,1,1.19-2.89,3.58,3.58,0,0,1,2.66-1h1.9v3.85h-3.83a1.84,1.84,0,0,0-1.35.56,1.81,1.81,0,0,0-.57,1.34Z"/>
      <path d="M1071.58,383.74h-7.67v1.93a1.91,1.91,0,0,0,1.92,1.9h1.93a1.68,1.68,0,0,0,1.9-1.9h1.92c-.29,2.55-1.57,3.82-3.82,3.82h-3.85a3.84,3.84,0,0,1-3.83-3.82v-5.75a3.88,3.88,0,0,1,3.83-3.85h3.85a3.66,3.66,0,0,1,2.7,1.14,3.72,3.72,0,0,1,1.12,2.71Zm-7.67-1.92h3.85v-1.9a1.93,1.93,0,0,0-3.85,0Z"/>
      <path d="M1086.91,383.74h-7.67v1.93a1.91,1.91,0,0,0,1.92,1.9h1.92a1.68,1.68,0,0,0,1.91-1.9h1.92c-.3,2.55-1.57,3.82-3.83,3.82h-3.84a3.84,3.84,0,0,1-3.83-3.82v-5.75a3.86,3.86,0,0,1,3.83-3.85h3.84a3.88,3.88,0,0,1,3.83,3.85Zm-7.67-1.92h3.84v-1.9a1.95,1.95,0,0,0-1.92-1.93,1.81,1.81,0,0,0-1.35.57,1.85,1.85,0,0,0-.57,1.36Z"/>
      <path d="M1098.28,372.24h3.82v3.83H1104V378h-1.93v7.68a1.72,1.72,0,0,0,.61,1.41,1.87,1.87,0,0,0,1.14.49h.18v1.92h-1.93a3.82,3.82,0,0,1-3.82-3.82V378h-1.93v-1.92h1.93Z"/>
      <path d="M1107.85,389.49V372.24h3.83V378a2.4,2.4,0,0,1,.6-1.44,1.78,1.78,0,0,1,1.32-.48h1.93a3.67,3.67,0,0,1,2.7,1.14,3.72,3.72,0,0,1,1.12,2.71v9.57h-3.82v-9.57a1.95,1.95,0,0,0-1.93-1.93,1.83,1.83,0,0,0-1.35.57,1.85,1.85,0,0,0-.57,1.36v9.57Z"/>
      <path d="M1134.68,383.74H1127v1.93a1.91,1.91,0,0,0,1.92,1.9h1.92a1.68,1.68,0,0,0,1.91-1.9h1.92c-.3,2.55-1.57,3.82-3.83,3.82H1127a3.84,3.84,0,0,1-3.83-3.82v-5.75a3.86,3.86,0,0,1,3.83-3.85h3.84a3.88,3.88,0,0,1,3.83,3.85Zm-7.67-1.92h3.84v-1.9a1.95,1.95,0,0,0-1.92-1.93,1.81,1.81,0,0,0-1.35.57,1.85,1.85,0,0,0-.57,1.36Z"/>
      <path d="M1144.12,389.49V376.07H1148V378a2.4,2.4,0,0,1,.6-1.44,1.78,1.78,0,0,1,1.32-.48h1.93a3.86,3.86,0,0,1,3.82,3.85v9.57h-3.82v-9.57a1.95,1.95,0,0,0-1.93-1.93,1.83,1.83,0,0,0-1.35.57,1.85,1.85,0,0,0-.57,1.36v9.57Z"/>
      <path d="M1159.45,374.17v-1.93h3.83v1.93Zm0,15.32V376.07h3.83v13.42Z"/>
      <path d="M1167.12,376.07H1171V378a1.92,1.92,0,0,1,.49-1.44,2,2,0,0,1,1.43-.48h1.93a3.86,3.86,0,0,1,3.82,3.85v5.75a3.82,3.82,0,0,1-3.82,3.82H1171v3.83h-3.83Zm3.83,11.5h1.92a1.87,1.87,0,0,0,1.35-.56,1.78,1.78,0,0,0,.58-1.34v-5.75a1.79,1.79,0,0,0-.58-1.35,1.85,1.85,0,0,0-1.35-.57,1.82,1.82,0,0,0-1.35.56,1.85,1.85,0,0,0-.57,1.36Z"/>
      <path d="M1182.45,376.07h3.83V378a2,2,0,0,1,.48-1.44,2,2,0,0,1,1.44-.48h1.92a3.66,3.66,0,0,1,2.7,1.14,3.73,3.73,0,0,1,1.13,2.71v5.75a3.84,3.84,0,0,1-3.83,3.82h-3.84v3.83h-3.83Zm3.83,11.5h1.92a1.87,1.87,0,0,0,1.35-.56,1.81,1.81,0,0,0,.57-1.34v-5.75a1.81,1.81,0,0,0-.57-1.35,1.91,1.91,0,0,0-2.71,0,1.88,1.88,0,0,0-.56,1.36Z"/>
      <path d="M1197.78,389.49V372.24h3.82v17.25Z"/>
      <path d="M1217,383.74h-7.67v1.93a1.83,1.83,0,0,0,.56,1.34,1.86,1.86,0,0,0,1.36.56h1.92a1.68,1.68,0,0,0,1.91-1.9H1217c-.3,2.55-1.57,3.82-3.83,3.82h-3.84a3.84,3.84,0,0,1-3.83-3.82v-5.75a3.86,3.86,0,0,1,3.83-3.85h3.84a3.66,3.66,0,0,1,2.7,1.14,3.73,3.73,0,0,1,1.13,2.71Zm-7.67-1.92h3.84v-1.9a1.92,1.92,0,0,0-3.28-1.36,1.88,1.88,0,0,0-.56,1.36Z"/>
      <path d="M1220.78,385.67h3.82v3.82q0,3.4-3.82,3.83v-1.9a1.79,1.79,0,0,0,1.92-1.93h-1.92Z"/>
      <path d="M681.49,426.49V409.24h3.82V415a2.4,2.4,0,0,1,.6-1.44,1.79,1.79,0,0,1,1.33-.48h1.92a3.66,3.66,0,0,1,2.7,1.14,3.73,3.73,0,0,1,1.13,2.71v5.75a3.71,3.71,0,0,1-1.13,2.69,3.65,3.65,0,0,1-2.7,1.13Zm3.82-1.92h1.93a1.91,1.91,0,0,0,1.92-1.9v-5.75a1.93,1.93,0,0,0-3.85,0Z"/>
      <path d="M708.31,413.07v13.42h-3.82v-1.92c-.15,1.28-.79,1.92-1.93,1.92h-1.92a3.84,3.84,0,0,1-3.83-3.82v-9.6h3.83v9.6a1.91,1.91,0,0,0,1.92,1.9,1.93,1.93,0,0,0,1.93-1.9v-9.6Z"/>
      <path d="M714.06,409.24h3.83v3.83h1.92V415h-1.92v7.68a1.69,1.69,0,0,0,.61,1.41,1.87,1.87,0,0,0,1.13.49h.18v1.92h-1.92a3.84,3.84,0,0,1-3.83-3.82V415h-1.92v-1.92h1.92Z"/>
      <path d="M729.26,411.17v-1.93h3.82v1.93Zm0,15.32V413.07h3.82v13.42Z"/>
      <path d="M746.51,416.92H744.6c-.17-1.28-.77-1.93-1.81-1.93a2.5,2.5,0,0,0-1.53.4,1.43,1.43,0,0,0-.51,1.19c0,.56.93,1.33,2.79,2.32,1.52.82,2.39,1.49,2.62,2a4.29,4.29,0,0,1,.35,1.71,3.72,3.72,0,0,1-1.13,2.73,3.68,3.68,0,0,1-2.7,1.12h-1.92c-2.56,0-3.83-1.27-3.83-3.82h1.92c.15,1.27.75,1.91,1.8,1.91a2.47,2.47,0,0,0,1.53-.4,1.44,1.44,0,0,0,.51-1.2c0-.54-.93-1.31-2.79-2.32-1.52-.8-2.4-1.48-2.63-2a4.3,4.3,0,0,1-.34-1.7,3.86,3.86,0,0,1,3.83-3.87h1.92Q746.27,413.07,746.51,416.92Z"/>
      <path d="M757.89,409.24h3.83v3.83h1.92V415h-1.92v7.68a1.69,1.69,0,0,0,.61,1.41,1.82,1.82,0,0,0,1.13.49h.18v1.92h-1.92a3.82,3.82,0,0,1-3.83-3.82V415H756v-1.92h1.92Z"/>
      <path d="M767.47,426.49V409.24h3.82V415a2.4,2.4,0,0,1,.6-1.44,1.79,1.79,0,0,1,1.33-.48h1.92a3.66,3.66,0,0,1,2.7,1.14,3.73,3.73,0,0,1,1.13,2.71v9.57h-3.83v-9.57a1.93,1.93,0,0,0-3.85,0v9.57Z"/>
      <path d="M790.47,418.82v-1.9a1.95,1.95,0,0,0-1.93-1.93h-1.92c-1.13,0-1.77.65-1.9,1.93h-1.93c.3-2.57,1.57-3.85,3.83-3.85h3.85a3.86,3.86,0,0,1,3.82,3.85v9.57h-3.82v-1.92c-.15,1.28-.79,1.92-1.93,1.92h-1.92a3.84,3.84,0,0,1-3.83-3.82v0a3.88,3.88,0,0,1,3.83-3.83Zm0,1.92h-1.93a1.83,1.83,0,0,0-1.35.57,1.81,1.81,0,0,0-.57,1.34v0a1.91,1.91,0,0,0,1.92,1.9,1.93,1.93,0,0,0,1.93-1.9Z"/>
      <path d="M800,409.24h3.83v3.83h1.92V415h-1.92v7.68a1.69,1.69,0,0,0,.61,1.41,1.87,1.87,0,0,0,1.13.49h.18v1.92h-1.92a3.84,3.84,0,0,1-3.83-3.82V415h-1.92v-1.92H800Z"/>
      <path d="M819.06,426.49h-3.82V413.07h3.82v3.85a4.76,4.76,0,0,1,1.19-2.89,3.6,3.6,0,0,1,2.66-1h1.9v3.85H821a1.84,1.84,0,0,0-1.36.56,1.81,1.81,0,0,0-.57,1.34Z"/>
      <path d="M838.24,420.74h-7.68v1.93a1.91,1.91,0,0,0,1.93,1.9h1.92a1.68,1.68,0,0,0,1.9-1.9h1.93q-.45,3.82-3.83,3.82h-3.85a3.82,3.82,0,0,1-3.82-3.82v-5.75a3.86,3.86,0,0,1,3.82-3.85h3.85a3.66,3.66,0,0,1,2.7,1.14,3.73,3.73,0,0,1,1.13,2.71Zm-7.68-1.92h3.85v-1.9a1.93,1.93,0,0,0-3.85,0Z"/>
      <path d="M849.74,418.82v-1.9a1.85,1.85,0,0,0-.57-1.36,1.88,1.88,0,0,0-1.36-.57h-1.92c-1.13,0-1.77.65-1.9,1.93h-1.93c.3-2.57,1.57-3.85,3.83-3.85h3.85a3.86,3.86,0,0,1,3.82,3.85v9.57h-3.82v-1.92c-.15,1.28-.8,1.92-1.93,1.92h-1.92a3.84,3.84,0,0,1-3.83-3.82v0a3.86,3.86,0,0,1,3.83-3.83Zm0,1.92h-1.93a1.83,1.83,0,0,0-1.35.57,1.81,1.81,0,0,0-.57,1.34v0a1.91,1.91,0,0,0,1.92,1.9,1.93,1.93,0,0,0,1.93-1.9Z"/>
      <path d="M857.39,426.49V409.24h3.83v17.25Z"/>
      <path d="M865.06,426.49V409.24h3.83v17.25Z"/>
      <path d="M874.66,428.42c.09,1.27.72,1.9,1.9,1.9h1.93a1.87,1.87,0,0,0,1.35-.56,1.81,1.81,0,0,0,.57-1.34v-3.85q-.23,1.92-1.92,1.92h-1.93a3.82,3.82,0,0,1-3.82-3.82v-9.6h3.82v9.6a1.93,1.93,0,0,0,3.85,0v-9.6h3.83v15.35a3.88,3.88,0,0,1-3.83,3.82h-3.85q-3.39,0-3.82-3.82Z"/>
      <path d="M901.35,418.82v-1.9a1.95,1.95,0,0,0-1.92-1.93H897.5c-1.13,0-1.76.65-1.9,1.93h-1.92c.29-2.57,1.57-3.85,3.82-3.85h3.85a3.66,3.66,0,0,1,2.7,1.14,3.73,3.73,0,0,1,1.13,2.71v9.57h-3.83v-1.92q-.23,1.92-1.92,1.92H897.5a3.84,3.84,0,0,1-3.82-3.82v0a3.86,3.86,0,0,1,3.82-3.83Zm0,1.92h-1.92a1.85,1.85,0,0,0-1.36.57,1.81,1.81,0,0,0-.57,1.34v0a1.93,1.93,0,0,0,1.93,1.9,1.91,1.91,0,0,0,1.92-1.9Z"/>
      <path d="M914.62,413.07h3.83v11.5h1.92a1.86,1.86,0,0,0,1.36-.56,1.83,1.83,0,0,0,.56-1.34v-9.6h3.83v11.5H928a1.91,1.91,0,0,0,1.91-1.9v-9.6h3.84v6.87a6.57,6.57,0,0,1-6.55,6.55h-5v-.61a5.5,5.5,0,0,1-2.72.61h-5Z"/>
      <path d="M937.62,411.17v-1.93h3.83v1.93Zm0,15.32V413.07h3.83v13.42Z"/>
      <path d="M945.29,426.49V413.07h3.83V415a2.4,2.4,0,0,1,.6-1.44,1.78,1.78,0,0,1,1.32-.48H953a3.86,3.86,0,0,1,3.83,3.85v9.57H953v-9.57A1.95,1.95,0,0,0,951,415a1.83,1.83,0,0,0-1.35.57,1.85,1.85,0,0,0-.57,1.36v9.57Z"/>
      <path d="M964.45,420.74v-1.92a4.45,4.45,0,0,1,2.5-3.88l.29-.18a1.89,1.89,0,0,0,1-1.69,1.91,1.91,0,0,0-1.9-1.9h-1.92c-1.18,0-1.82.63-1.93,1.9h-1.9q.43-3.82,3.83-3.83h3.82a3.71,3.71,0,0,1,2.71,1.13,3.66,3.66,0,0,1,1.14,2.7,3.47,3.47,0,0,1-2.19,3.46l-.32.14c-.69.3-1.08.6-1.18.89a4.11,4.11,0,0,0-.16,1.26v1.92Zm0,5.75v-3.82h3.82v3.82Z"/>
    </g>
    <path class="cls-26" d="M683.19,747.16s248.25,184.44,569.87,0C1253.06,747.16,997.52,1027.24,683.19,747.16Z"/>
    <ellipse class="cls-21" cx="968.13" cy="512.26" rx="9.68" ry="3.85" transform="translate(-40.96 86.33) rotate(-5)"/>
    <circle class="cls-17" cx="968.14" cy="512.45" r="4.05"/>
  </g>
</svg>
