<svg xmlns="http://www.w3.org/2000/svg" width="76mm" height="59mm" viewBox="0 0 215.43 167.24">
  <defs>
    <style>
      .cls-1 {
        fill: #f1d6d1;
      }

      .cls-2 {
        fill: #eabec9;
      }

      .cls-3 {
        fill: #c6636a;
      }

      .cls-4 {
        fill: #f15a24;
      }
    </style>
  </defs>
  <g id="Spillelementer">
    <g>
      <rect class="cls-1" x="15.74" y="36.03" width="183.95" height="76.51"/>
      <path class="cls-1" d="M199.69,110.53c0,17.31-31.47,20.69-48.77,20.69s-48.78-3.38-48.78-20.69,28-40.26,45.28-40.26S199.69,93.23,199.69,110.53Z"/>
      <path class="cls-1" d="M113.29,110.53c0,17.31-33.34,18-50.64,18s-46.91-.71-46.91-18S43.71,70.27,61,70.27,113.29,93.23,113.29,110.53Z"/>
      <circle class="cls-2" cx="62.65" cy="101.91" r="15.25"/>
      <circle class="cls-2" cx="150.92" cy="105.2" r="15.25"/>
      <circle class="cls-3" cx="62.65" cy="108.7" r="3.5"/>
      <circle class="cls-3" cx="150.92" cy="110.16" r="3.5"/>
      <path class="cls-2" d="M107.72,108.41s8.59-20.85,4.67-29.92C112.39,78.49,114.66,89.35,107.72,108.41Z"/>
      <path class="cls-4" d="M98.69,67.5s6.45-9.55,3.5-16.36C102.19,51.14,103.9,53.21,98.69,67.5Z"/>
      <path class="cls-4" d="M111.63,42.58s3.22,4.78,1.75,8.18C113.38,50.76,114.23,49.72,111.63,42.58Z"/>
    </g>
  </g>
</svg>
