<svg xmlns="http://www.w3.org/2000/svg" width="76mm" height="59mm" viewBox="0 0 215.43 167.24">
  <defs>
    <style>
      .cls-1 {
        fill: #e0b2b2;
      }

      .cls-2 {
        fill: #de9f8a;
        opacity: 0.75;
      }

      .cls-3 {
        fill: #c6776a;
      }
    </style>
  </defs>
  <g id="Spillelementer">
    <g>
      <path class="cls-1" d="M42.6,23.24A59.43,59.43,0,0,0,30,47.2C26.22,61.91,4.79,100.88,4.79,100.88s-12.28,13.77,8.5,29.64,45.39,5.87,45.39,5.87,49.42-18.61,63.92-5.19,60.54,15.7,60.54,15.7S199.48,146,208.71,136s4.12-32.69,4.12-32.69-.62-5.18-5-23.39-5.17-59.53-5.17-59.53L42.6,23.24"/>
      <circle class="cls-2" cx="183.14" cy="125.79" r="9.48"/>
      <circle class="cls-2" cx="27.29" cy="116.32" r="9.48"/>
      <circle class="cls-3" cx="183.14" cy="125.79" r="2.48"/>
      <circle class="cls-3" cx="27.29" cy="116.32" r="2.48"/>
      <path class="cls-2" d="M91.36,127.61s17.21-2,21.27-26.62C112.63,101,112.49,113.71,91.36,127.61Z"/>
      <path class="cls-2" d="M138,139.1s-17.22-2-21.28-26.62C116.75,112.48,116.89,125.21,138,139.1Z"/>
    </g>
  </g>
</svg>
