<svg xmlns="http://www.w3.org/2000/svg" width="76mm" height="59mm" viewBox="0 0 215.43 167.24">
  <defs>
    <style>
      .cls-1 {
        fill: #de9f67;
      }

      .cls-2 {
        fill: #b77c52;
      }

      .cls-3 {
        fill: #603813;
      }
    </style>
  </defs>
  <g id="Spillelementer">
    <g>
      <path class="cls-1" d="M200.86,34c1.74,11.7,2.37,6.56,1.82,26.5-.54,19.48-7.67,31.91,3,48.39s1.64,21.86-9.48,30.21-28.67,10-43.9,2.18-44.65-19.78-61.14-8.07-47.56,14.48-62.81,12-13.91-4.7-20.85-13.76,2.58-20.75,6.28-30.1,2-6.93,3-21.15S5.05,46,5.41,23C76.22,19.11,130.4,19.7,200.86,34"/>
      <circle class="cls-2" cx="26.25" cy="126.5" r="9.48"/>
      <circle class="cls-2" cx="182.11" cy="117.02" r="9.48"/>
      <circle class="cls-3" cx="26.25" cy="126.5" r="2.48"/>
      <circle class="cls-3" cx="182.11" cy="117.02" r="2.48"/>
      <path class="cls-2" d="M60.1,144S73,142.46,76.05,124C76.05,124,76,133.56,60.1,144Z"/>
      <path class="cls-2" d="M163.69,142.63s-8.61-1-10.63-13.31C153.06,129.32,153.12,135.69,163.69,142.63Z"/>
    </g>
  </g>
</svg>
