<svg xmlns="http://www.w3.org/2000/svg" width="76mm" height="59mm" viewBox="0 0 215.43 167.24">
  <defs>
    <style>
      .cls-1 {
        fill: #de9f8a;
      }

      .cls-2 {
        fill: #ba7c5e;
      }

      .cls-3 {
        fill: #765036;
      }

      .cls-4 {
        fill: #cc8071;
      }

      .cls-5 {
        fill: #c6776a;
      }
    </style>
  </defs>
  <g id="Spillelementer">
    <g>
      <path class="cls-1" d="M175.77,22.68c7.1,9.37,9,11.39,13,25s3.32,30.36,11.53,43.19,4.18,41.92-6.85,50.68-17-1.45-32.8-6.58-48.48-13.73-62.93-1.48S54.2,148.71,39.18,146.73,21.37,140.89,14,133.24s.43-20.35-.25-30.29S14,87.63,14,70.77,17.87,40.39,20.63,20c57.19,11.17,98.3,3.71,155.14,2.73"/>
      <path class="cls-2" d="M25,127.44a10.41,10.41,0,0,0,9.25,9.32c4.78.35,8.89-3.16,8.56-8.16s-5.17-8-9.76-8.17S24.65,122.73,25,127.44Z"/>
      <path class="cls-2" d="M175.09,127.7a8.82,8.82,0,0,0,9.83,8.24,9,9,0,0,0,8.49-9.77,8.89,8.89,0,0,0-9.84-8.27A9,9,0,0,0,175.09,127.7Z"/>
      <path class="cls-3" d="M31.57,128.49a2.57,2.57,0,0,0,2.5,2.21,1.89,1.89,0,0,0,2.16-2,2.53,2.53,0,0,0-2.49-2.19A1.88,1.88,0,0,0,31.57,128.49Z"/>
      <path class="cls-3" d="M181.86,127.12a2.31,2.31,0,0,0,2.56,2.16,2.36,2.36,0,0,0,2.22-2.56,2.31,2.31,0,0,0-2.56-2.16A2.37,2.37,0,0,0,181.86,127.12Z"/>
      <path class="cls-4" d="M128.63,117.86c-13.24-1.79-18.54-13.73-22.1-25.07C108.25,104.42,119.77,111.94,128.63,117.86Z"/>
      <path class="cls-5" d="M82.35,131.41c13.32-2.64,17.8-15.42,20.49-27.11C102.13,116.27,90.94,124.83,82.35,131.41Z"/>
    </g>
  </g>
</svg>
