<svg xmlns="http://www.w3.org/2000/svg" width="76mm" height="59mm" viewBox="0 0 215.43 167.24">
  <defs>
    <style>
      .cls-1 {
        fill: #ba7c5e;
      }

      .cls-2 {
        fill: #fff;
      }

      .cls-3 {
        fill: #765036;
      }

      .cls-4 {
        fill: #553a3e;
      }
    </style>
  </defs>
  <g id="Spillelementer">
    <g>
      <path class="cls-1" d="M214.63,50.4s-42.92,143.75-92.48,61.46l-20.44-75,111.58,1.51"/>
      <path class="cls-1" d="M.81,50.4s44.27,142.67,93.83,60.38l22.58-66.36L.81,36.85"/>
      <rect class="cls-1" x="93.77" y="50.4" width="28.37" height="61.46"/>
      <polygon class="cls-2" points="122.15 111.86 93.8 112.15 107.96 91.82 122.15 111.86"/>
      <rect class="cls-1" x="0.81" y="29.54" width="213.82" height="20.87"/>
      <path class="cls-3" d="M104.67,80.65s-1.62-19.7.57-23.6Z"/>
      <path class="cls-3" d="M99,52.78s12.11-4.45,14.3-8.36Z"/>
      <ellipse class="cls-3" cx="62.54" cy="131.99" rx="11.1" ry="4.36"/>
      <path class="cls-4" d="M68.5,134c0,.76-1,2.36-6,2.36s-4.9-1.6-4.9-2.36.45-2.94,5.43-2.94S68.5,133.22,68.5,134Z"/>
      <ellipse class="cls-3" cx="154.08" cy="132.93" rx="11.1" ry="4.36"/>
      <path class="cls-4" d="M159.51,135.35c0,.77-1,2.36-6,2.36s-4.9-1.59-4.9-2.36.45-2.93,5.43-2.93S159.51,134.59,159.51,135.35Z"/>
      <path class="cls-3" d="M78.62,36.85s12.11,4.46,14.29,8.36Z"/>
      <path class="cls-3" d="M117.22,63.56s15.84,3.9,13.65,0Z"/>
    </g>
  </g>
</svg>
