<svg xmlns="http://www.w3.org/2000/svg" width="26mm" height="26mm" viewBox="0 0 73.7 73.7">
  <defs>
    <style>
      .cls-1 {
        fill: #666;
      }

      .cls-2 {
        fill: #de9f8a;
      }

      .cls-3 {
        fill: #c6776a;
      }

      .cls-4 {
        fill: #cc8071;
      }

      .cls-5 {
        fill: #d58d7a;
      }
    </style>
  </defs>
  <g id="UI_elementer" data-name="UI elementer">
    <g>
      <path class="cls-1" d="M40.84,3.82l2.29,7.08a4.19,4.19,0,0,0,6.22,2.27l6.3-4a4.2,4.2,0,0,1,6.12,5.14L59,21.24A4.19,4.19,0,0,0,62.28,27l7.37,1A4.2,4.2,0,0,1,71,35.86l-6.57,3.48a4.19,4.19,0,0,0-1.15,6.52l5,5.52a4.19,4.19,0,0,1-4,6.91L57,56.73A4.2,4.2,0,0,0,52,61l.27,7.43a4.19,4.19,0,0,1-7.5,2.73l-4.57-5.87a4.19,4.19,0,0,0-6.62,0L29,71.15a4.19,4.19,0,0,1-7.5-2.73L21.74,61a4.2,4.2,0,0,0-5.07-4.26L9.4,58.29a4.19,4.19,0,0,1-4-6.91l5-5.52a4.19,4.19,0,0,0-1.15-6.52L2.67,35.86A4.2,4.2,0,0,1,4.05,28l7.37-1a4.19,4.19,0,0,0,3.31-5.73l-2.8-6.89a4.2,4.2,0,0,1,6.12-5.14l6.3,4a4.19,4.19,0,0,0,6.22-2.27l2.29-7.08A4.19,4.19,0,0,1,40.84,3.82Z"/>
      <circle class="cls-2" cx="36.85" cy="37.52" r="16.83"/>
      <circle class="cls-3" cx="36.85" cy="37.52" r="5.61"/>
      <circle class="cls-4" cx="36.85" cy="36.41" r="4.16"/>
      <circle class="cls-5" cx="36.85" cy="36.13" r="2.57"/>
    </g>
  </g>
</svg>
