<svg xmlns="http://www.w3.org/2000/svg" width="134mm" height="34mm" viewBox="0 0 379.84 96.38">
  <defs>
    <style>
      .cls-1 {
        fill: #caf4fc;
      }

      .cls-2 {
        fill: #003b46;
      }

      .cls-3 {
        fill: #95272d;
      }
    </style>
  </defs>
  <g id="UI_elementer" data-name="UI elementer">
    <g>
      <rect class="cls-1" x="1.35" y="1.04" width="377.15" height="94.29" rx="47.14"/>
      <path class="cls-2" d="M124.29,10.8V65.55S103,54.75,95.38,74.38c0,0,1.68,11.3,16.89,11.3s17.66-10.44,17.66-10.44V28.38s12.47-6.13,29,22.32C158.92,50.7,155.69,8.43,124.29,10.8Z"/>
      <path class="cls-2" d="M254.7,11.21V66s-21.27-10.79-28.91,8.84c0,0,1.68,11.3,16.89,11.3s17.66-10.45,17.66-10.45V28.79s12.47-6.14,29,22.32C289.33,51.11,286.1,8.83,254.7,11.21Z"/>
      <polygon class="cls-3" points="278.07 83.08 273.61 85.25 239.07 14.44 243.38 11.94 278.07 83.08"/>
    </g>
  </g>
</svg>
