<svg id="Startskærm" xmlns="http://www.w3.org/2000/svg" xmlns:xlink="http://www.w3.org/1999/xlink" width="677.33mm" height="381mm" viewBox="0 0 1920 1080">
  <defs>
    <style>
      .cls-1 {
        fill: url(#linear-gradient);
      }

      .cls-2 {
        fill: #e0b2b2;
      }

      .cls-3 {
        fill: #95272d;
      }

      .cls-4 {
        fill: #42210b;
      }

      .cls-21, .cls-5 {
        fill: #fff;
      }

      .cls-6 {
        fill: #e08cb2;
      }

      .cls-7 {
        fill: #b56e6e;
      }

      .cls-8 {
        fill: #f5c1c1;
      }

      .cls-9 {
        fill: #f2dde2;
      }

      .cls-10 {
        fill: #c59c9e;
      }

      .cls-11 {
        fill: #ebbbbc;
      }

      .cls-12 {
        fill: #f4d5d7;
      }

      .cls-13 {
        fill: #efb3b9;
      }

      .cls-14 {
        fill: #f0a0b0;
      }

      .cls-15 {
        fill: #b76d70;
      }

      .cls-16 {
        fill: #eabec9;
      }

      .cls-17 {
        fill: #f1d6d1;
      }

      .cls-18 {
        fill: #f5bbbf;
      }

      .cls-19 {
        fill: #f2ccdc;
      }

      .cls-20 {
        fill: #edc5d8;
      }

      .cls-21, .cls-24 {
        opacity: 0.75;
      }

      .cls-22, .cls-26 {
        fill: #d38e8d;
      }

      .cls-23 {
        fill: #8a3031;
      }

      .cls-24, .cls-32 {
        fill: #de9f8a;
      }

      .cls-25 {
        fill: #c6776a;
      }

      .cls-26 {
        opacity: 0.7;
      }

      .cls-27 {
        fill: #577a7e;
      }

      .cls-28 {
        fill: #003b46;
      }

      .cls-29 {
        fill: #cbe2de;
      }

      .cls-30 {
        fill: #e8f2ef;
      }

      .cls-31 {
        fill: #a4b9b3;
      }
    </style>
    <linearGradient id="linear-gradient" x1="954.67" y1="-1.18" x2="965.58" y2="1077" gradientUnits="userSpaceOnUse">
      <stop offset="0.25" stop-color="#c0f5fd"/>
      <stop offset="0.53" stop-color="#ecbdc0"/>
      <stop offset="0.78" stop-color="#d490b0"/>
      <stop offset="1" stop-color="#95272d"/>
    </linearGradient>
  </defs>
  <rect class="cls-1" width="1920.3" height="1080"/>
  <path class="cls-2" d="M544.3,154.26s36.2-37.62,45.86-38.66c0,0,5.54-2,14-.76s16.63,10.32,16.63,10.32,14,17.57,20,28.09S656.5,172,656.5,172s13.69,15.46,13.91,28.55,1.54,14-2.81,26.66-28.55,17.49-28.55,17.49l-18,1.48L595.7,242s-36.35-53.36-44.6-61.47A25.74,25.74,0,0,1,544.3,154.26Z"/>
  <path class="cls-2" d="M651.22,238s-2.79,11.26,5.42,12.78,27.54-14.14,27.54-14.14,8.08-8.37,18.45-6.54,53.59,19.43,62.74,22.11,31.43,7.68,39.56,8c0,0-16.35-22.49-20.21-34.93s-9.15-26.92-16.43-38.18-11.88-13.5-13.42-14.84-14-3.53-14-3.53-11.18-1.26-12.52-5.77-3.42-4.88-2.32-11.1-21.19-23.34-21.19-23.34S688.91,117.92,688.17,110s10.17-1.06,10.17-1.06l33,29L711.8,95.23s-2.15-2.35.65-7.73c4-7.7,14.78,15.93,14.78,15.93L737,124.25s3.58-6.14,10.86-.93c0,0,4.39-6.71,9.31-2.28s14.23,20.33,14.23,20.33,4.68,17.93,4.27,24.27,17.78,24.52,17.78,24.52,70.8,79.48,52.75,97-60.71,6.76-60.71,6.76l-11.06-1.95s13.87,22.4-10.69,38.38c0,0,29.86,59.08,19.08,87.83L683.35,491.6S714,403.88,620.83,362.5l-23.2,75s-1.71,21.79-11,31.92-40.78-13.25-40.78-13.25S522.08,439.53,515.73,427s-27.54-38.88-27.54-38.88-40.65-10.92-48.62-22.31-8.14-18.54.48-20.94c0,0-1.63-5.92,5.52-8.15s-31-27.81-31-27.81-2.41-7.42,6.14-7.07,39.62,28.87,39.62,28.87l-18.29-44.2s1.75-13.9,10.76-1.6l21.71,48.54s7.08-2.92,12.21,8.93c0,0,1.16,17.87,13.62,30.78,0,0,16.16,21.94,26.42,25.85s34.85,17.55,34.85,17.55,13-75.24,9.66-85.15,1.47-25.22,18-31.63,21.88-16.06,21.88-16.06,1.33-11.16-16.55-46.13l25.67,8.24,18-1.48Z"/>
  <path class="cls-3" d="M698.24,299.05s52.13,7.22,42.14,47.9C740.38,347,746.79,315.43,698.24,299.05Z"/>
  <path class="cls-4" d="M519.46,154.16s-1.61-19.79,19.37-35,32.24-18.31,32.24-18.31,14.08-4.43,22.68-3.82,21.77,9.24,21.77,9.24,12.4,9.69,13.53,13.49,13.13,24.62,11.67,33.65l-16.91-23.26-3-3.44s-17.75-19.73-36-7.81c0,0-2.46,1.32-9.77,7.31,0,0-13.71,10.95-15.74,13.52s-15.08,14.69-15.08,14.69-3.3,7.6,3.33,18.45l11.62,16.6L575,209.56l11.31,16.12,7.57,10.89,10.34,19.54,4.32,10.44s1.76,5.33,2.74,9.21a18.33,18.33,0,0,1-.14,8s-5.16,8-11.83,11.82a122.3,122.3,0,0,1-15.15,7l-1.72.94a167.83,167.83,0,0,0-15.57-22.23s-11.22-10.66-18.22-14.73-27.57-30.85-27.57-30.85-15.17-21.83-16-35.25a93.92,93.92,0,0,1,1.78-24.71S507.78,164.43,519.46,154.16Z"/>
  <path class="cls-4" d="M677.45,241.65a39.88,39.88,0,0,1-9.34-15.91s-2.53,9.83-17.85,14.83c0,0-.78,8.74,6.38,10.21S677.45,241.65,677.45,241.65Z"/>
  <path class="cls-4" d="M607.74,157.44s3,1.73,5.69-1.93a38.2,38.2,0,0,1,6.31-6.47s3.82-3.12,9.86-1.19a20.79,20.79,0,0,0-7.62,2.72s-1.83,2-4.1,4.61a10.87,10.87,0,0,1-5.49,3.25S609.15,159.24,607.74,157.44Z"/>
  <path class="cls-4" d="M592.12,168.37s-2.29,4.87-6.65,6.17a26.77,26.77,0,0,0-7.81,4,12.57,12.57,0,0,0-5.53,9.58,34.4,34.4,0,0,1,6.19-7s2.5-1,5.74-2.27a10.86,10.86,0,0,0,4.93-4S593.33,170.31,592.12,168.37Z"/>
  <path class="cls-3" d="M619.61,182.26c2.31,3,5,2,5,2a56.4,56.4,0,0,1,5.7-4.09s2.4-1.49,3.95,1.71.5,8.37.5,8.37.1,1.06-.89.42-.37-4.52-.37-4.52a3.05,3.05,0,0,0-1-3.11c-1.56-1.17-3.26.76-3.26.76a15.26,15.26,0,0,1-4.77,2.54c-2.3.58-4-1.74-4-1.74S618.45,180.73,619.61,182.26Z"/>
  <path class="cls-3" d="M638.79,184.93s3.59,2.17,6.39.07,5.06-1.21,5.06-1.21a7.62,7.62,0,0,1,2.39,3.42,17.4,17.4,0,0,1,.41,5.08s.22-1.83-4-5.89c0,0,0,0,0,0s-.49-.49-2.92,1A5.27,5.27,0,0,1,638.79,184.93Z"/>
  <path class="cls-3" d="M611.75,201s2.6.79,2.88,4.79a6,6,0,0,1-2.75,5.66s-3.82,1.45-3.78,2.17c0,0-.86.8,1.64,5.3,0,0-1.85.55-3.42-5,0,0,.75-4.12,4-5.09S612.88,203.23,611.75,201Z"/>
  <path class="cls-3" d="M612.69,214.57s10.22-4.6,11.48-9.57,8.1-8.16,9.42-7.11c0,0,2.8-7.69,10.84-4.76a14.69,14.69,0,0,1,3,5.87s9.83,11,3.35,18-16.71,6.82-16.71,6.82S620.66,221.48,612.69,214.57Z"/>
  <path class="cls-5" d="M617.28,215.09l27.09-19s4.74,6.73-3.4,16.5S617.28,215.09,617.28,215.09Z"/>
  <path class="cls-6" d="M623.11,218.37s8.51,4.2,18.29-3.19c0,0,5.13-5.11,6.17-10.37a9.36,9.36,0,0,0,.09-3.33s3.35,4.1,3.08,7.18-.6,6-3.53,8.44A22.31,22.31,0,0,1,623.11,218.37Z"/>
  <path class="cls-6" d="M625.72,207.68l17.94-12.57s-.57-2.3-5.44-.68a8,8,0,0,0-4.15,4.43,9.62,9.62,0,0,0-5.1,1.88C626.64,202.55,625,205,625.72,207.68Z"/>
  <rect class="cls-7" x="748.31" y="287.9" width="12.67" height="12.67" transform="translate(-32.29 486.06) rotate(-35)"/>
  <rect class="cls-8" x="755.58" y="298.27" width="12.67" height="12.67" transform="translate(-36.92 492.1) rotate(-35)"/>
  <rect class="cls-9" x="762.84" y="308.65" width="12.67" height="12.67" transform="translate(-41.56 498.14) rotate(-35)"/>
  <rect class="cls-10" x="765.95" y="291.01" width="12.67" height="12.67" transform="translate(-30.88 496.74) rotate(-35)"/>
  <rect class="cls-11" x="773.22" y="301.38" width="12.67" height="12.67" transform="translate(-35.52 502.78) rotate(-35)"/>
  <rect class="cls-12" x="745.2" y="305.54" width="12.67" height="12.67" transform="translate(-42.97 487.46) rotate(-35)"/>
  <rect class="cls-13" x="682.05" y="336.17" width="12.67" height="12.67" transform="translate(-71.96 456.78) rotate(-35)"/>
  <rect class="cls-9" x="692.42" y="328.91" width="12.67" height="12.67" transform="translate(-65.92 461.42) rotate(-35)"/>
  <rect class="cls-14" x="699.69" y="339.28" width="12.67" height="12.67" transform="translate(-70.55 467.46) rotate(-35)"/>
  <rect class="cls-12" x="689.31" y="346.55" width="12.67" height="12.67" transform="translate(-76.6 462.82) rotate(-35)"/>
  <rect class="cls-15" x="678.94" y="353.81" width="12.67" height="12.67" transform="translate(-82.64 458.19) rotate(-35)"/>
  <rect class="cls-16" x="696.58" y="356.92" width="12.67" height="12.67" transform="translate(-81.24 468.87) rotate(-35)"/>
  <rect class="cls-17" x="706.95" y="349.66" width="12.67" height="12.67" transform="matrix(0.82, -0.57, 0.57, 0.82, -75.19, 473.51)"/>
  <rect class="cls-18" x="710.07" y="332.02" width="12.67" height="12.67" transform="translate(-64.51 472.1) rotate(-35)"/>
  <rect class="cls-19" x="758.69" y="280.63" width="12.67" height="12.67" transform="translate(-26.24 490.69) rotate(-35)"/>
  <rect class="cls-20" x="776.33" y="283.74" width="12.67" height="12.67" transform="translate(-24.84 501.38) rotate(-35)"/>
  <ellipse class="cls-21" cx="593.42" cy="192.47" rx="12.1" ry="4.81" transform="translate(-3.08 375.18) rotate(-35)"/>
  <circle cx="593.42" cy="192.47" r="5.41" transform="translate(-3.08 375.18) rotate(-35)"/>
  <ellipse class="cls-21" cx="631.6" cy="165.74" rx="12.1" ry="4.81" transform="translate(19.16 392.25) rotate(-35)"/>
  <circle cx="631.19" cy="166.02" r="5.41" transform="translate(18.92 392.06) rotate(-35)"/>
  <path class="cls-22" d="M625.45,332.66c0-10.44-6.73,26.84-6.73,26.84l1.7,3.26"/>
  <path class="cls-22" d="M650.26,240.57s-23.76,2.92-30.21-2.87C620.05,237.7,629.24,246.08,650.26,240.57Z"/>
  <path class="cls-22" d="M763.53,280.28A33.35,33.35,0,0,0,743.59,270c-13.14-1.93-14.42-7.66-14.42-7.66s4.92,9.06,13,10.29S763.53,280.28,763.53,280.28Z"/>
  <g>
    <g>
      <path class="cls-2" d="M1248.72,146.79c25.4-48.65,66.24-84.5,122.31-55.87,27.07,8.87,42.19,47.83,38.36,66.12s-9.66,30.69-8.89,26.08c4.19,8.81,1.19,19.69-5,27.44s-11.35,10.8-14.09,21.65-13.54,20.36-25.51,23.22c22,45.27,16.8,100.77-6.5,144-7.68,15.9-8.86,33-8,50.42-1.11,12.74-5.29,24.61-10.53,36.18-.58,12.72.08,25.74,7.91,36.2a52,52,0,0,0,7.51,15.78c1.14,4.06,3.49,16.32-2.17,17.19s-6.25-8.5-6.58-12.27c1.28,5.85-1.45,11.2-5,15.85-1.53,2.36-3.75-.08-4.92-1.41-1.68,4.28-4.89,3.17-8,1.1-3.1,1.2-5.93,3.17-7.76-2s1.44-9.81-2.14-17.37c-15.26-6.44-15.44-26.3-15.59-40-.1-6.72-3.82-12.52-7.52-17.78-32.62,41.74-128.71,98.3-155.11,78.95-29-14.66-69.66-154.87-97.52-164.35s-31.28-48.65-25.35-69.81,27.58-38,42-52.64c-.3-16-11.58-22.52,5.9-38.77s35.28-20.61,55.47-49.9c31.66-33.25,67.25-38.75,108.15-22C1228.12,155.58,1238.92,151.16,1248.72,146.79Z"/>
      <path class="cls-4" d="M1321.87,122.26s-.13,5.42,10.59,8.26,10.86,4.45,10.86,4.45,2.78,3,1.9,5.63-1.74-8.29-12.59-7.37S1321.87,122.26,1321.87,122.26Z"/>
      <path class="cls-4" d="M1311.17,116.8s-4.31,3.3-12.91-3.71-10-6.16-10-6.16-4-.5-5.67,1.76,7.73-3.45,13.36,5.86S1311.17,116.8,1311.17,116.8Z"/>
      <path class="cls-23" d="M1275.28,152.39s-.12-5.91,2.55-6.43a4.68,4.68,0,0,1,4.31,1.46s5.61,1.2,7.13-2,7.36-4.18,7.36-4.18,3-.45,4-2.31c0,0-1.76,3.65-5.22,4.71a4.68,4.68,0,0,0-3.59,4s-1,3.05,3.58,3.83c0,0,5,1.29,7.24,4.22s5.91.92,5.91.92,2.4-3.9-3.46-5.31c0,0,5-1.34,5.93,3.12s1,8.12,6.41,9.74c0,0,4.65,2.37,1.1,8.71,0,0,.62-4.08-1.49-6.09,0,0-7-2.3-7.85-7.55a7.27,7.27,0,0,1-3.46.64c-1.91-.14-4.8-2.86-4.8-2.86a15.61,15.61,0,0,0-7-2.85c-4.12-.53-5-5.86-5-5.86s-3.52,3.64-9.69,0C1279.27,148.26,1275.78,147.53,1275.28,152.39Z"/>
      <path class="cls-23" d="M1377.63,173.58s5.34-3.83,11.86,2.89-.39,19.56-.39,19.56-7.47,11.34-20.52,5.3a18.14,18.14,0,0,0,18.05-10C1393,179.59,1384.68,174.26,1377.63,173.58Z"/>
      <path class="cls-22" d="M1380.3,174.05s9.87,2.38,9.48,9.37-7.67,14.84-7.67,14.84-7.8,7-13.72,2.89-5.55-4.88-5.55-4.88,10.22,7.74,16.89-1,5.44-13,5.44-13S1384.25,175.85,1380.3,174.05Z"/>
      <path class="cls-23" d="M1280.36,150.93,1316,169.57S1284.59,191.24,1280.36,150.93Z"/>
      <path class="cls-5" d="M1283.87,155.44l27.37,13.95S1287.92,181,1283.87,155.44Z"/>
      <path class="cls-23" d="M1277.73,167.49s9.06,18.34,27.34,13.11C1305.07,180.6,1284.38,193.69,1277.73,167.49Z"/>
      <path class="cls-22" d="M1279.54,173s5.6,14.54,20.44,9.89C1300,182.86,1283.79,193.54,1279.54,173Z"/>
      <path class="cls-3" d="M1098.52,290.79s-8.29-4.71-15.84-4.67-29.78-6.41-32.14-14.65l-1.65,3.79s15.93,17.78,37.3,14C1086.19,289.24,1093.31,288.63,1098.52,290.79Z"/>
      <path class="cls-3" d="M1279.08,389.42h0s-39.33,3.89-73-33.3c0,0-19.68-28.31-45.1-33.27,0,0,27.77,21.46,40.84,34.14,25.39,24.64,66.13,42.44,77.27,32.43"/>
      <ellipse class="cls-21" cx="1290.29" cy="125.68" rx="4.81" ry="12.1" transform="translate(592.53 1218.28) rotate(-63)"/>
      <circle class="cls-4" cx="1290.29" cy="125.68" r="5.06"/>
      <ellipse class="cls-21" cx="1327.93" cy="146.17" rx="4.81" ry="12.1" transform="translate(594.83 1263) rotate(-63)"/>
      <path class="cls-6" d="M1301.6,171.34c-.58,1.15-4.69,1.72-8.67-.31s-6.32-5.89-5.73-7,4.28-.43,8.26,1.6S1302.19,170.2,1301.6,171.34Z"/>
      <circle class="cls-4" cx="1327.93" cy="146.17" r="5.06"/>
      <g>
        <circle class="cls-24" cx="1070.65" cy="257.16" r="11.85"/>
        <circle class="cls-25" cx="1070.88" cy="257.61" r="3.1"/>
      </g>
      <g>
        <circle class="cls-24" cx="1248.78" cy="357.41" r="11.85"/>
        <circle class="cls-25" cx="1249.01" cy="357.86" r="3.1"/>
      </g>
    </g>
    <path class="cls-26" d="M1311.14,105.19s7.89,3.62,10.4,3.48,5.71,3.11,6.57,5.17,7.61,4.65,7.61,4.65-7.9-.66-9.6-4.89-5.77-3.55-7.13-3.76S1311.14,105.19,1311.14,105.19Z"/>
    <path class="cls-22" d="M1311.75,100.36s8.77,4,11.56,3.86,6.35,3.46,7.3,5.75,8.45,5.16,8.45,5.16-8.77-.73-10.66-5.43-6.42-4-7.92-4.17S1311.75,100.36,1311.75,100.36Z"/>
    <path class="cls-22" d="M1281.69,483l4.9-1.65s-16.11-16.58-5.6-59.68c0,0,3.13-6.66,1.26-26a32.32,32.32,0,0,1,4.69-16.51c5-8.35-1.34-34-1.34-34s-1.79-14.76,2.63-25c0,0-9.58,14.82-5.91,37.72,0,0,3.82,14.56-3.07,28.3a46.33,46.33,0,0,0-1,23.13s1.22,6.45-2.65,14.59S1267.91,464.43,1281.69,483Z"/>
    <path class="cls-22" d="M1221.36,162l-2.8,2.39a185.26,185.26,0,0,1,23.53,6.56C1253.38,175.08,1221.36,162,1221.36,162Z"/>
    <path class="cls-22" d="M1358.13,254.9l-3.57,1.18s-36-39.35-72.79-65.36C1281.77,190.72,1332.37,219.45,1358.13,254.9Z"/>
  </g>
  <rect class="cls-27" x="1133.13" y="819.59" width="244.42" height="66.95" rx="30.43" transform="translate(816.61 -599.9) rotate(39)"/>
  <circle class="cls-28" cx="949.22" cy="612.77" r="293.97"/>
  <circle class="cls-29" cx="949.22" cy="612.77" r="279.27"/>
  <path class="cls-30" d="M780.15,451.12s77.45-99.46,145.91-78.51S879,368.6,780.15,451.12Z"/>
  <path class="cls-31" d="M751.35,809.84s172.39,128.08,395.74,0C1147.09,809.84,969.63,1004.34,751.35,809.84Z"/>
  <path class="cls-5" d="M328,518.54s14.67-18.34,35.76-11c0,0,22.93-20.88,52.27-1.73,0,0,26.6-2.85,29.35,8.15s-14.67,16.51-14.67,16.51-18.34,12.43-35.77,7.59c0,0-9.17,7.08-32.09-5.76C362.87,532.29,321.6,536,328,518.54Z"/>
  <path class="cls-5" d="M227.91,449.66s8.12-17.59,37.89-12.18c0,0,44.66-33.19,73.08-1,0,0,37.89-.31,36.53,18.63s-37.89,19-37.89,19-22.32,24.41-66,0C271.55,474.06,226.56,478.08,227.91,449.66Z"/>
  <path class="cls-5" d="M1507.55,291.94s4.64-10.05,21.65-7c0,0,25.52-19,41.76-.59,0,0,21.65-.18,20.88,10.64s-21.66,10.86-21.66,10.86-12.75,13.94-37.69,0C1532.49,305.89,1506.77,308.18,1507.55,291.94Z"/>
  <path class="cls-5" d="M1440.29,250.74s8.38-10.48,20.44-6.29c0,0,13.1-11.93,29.86-1,0,0,15.2-1.63,16.77,4.66s-8.38,9.43-8.38,9.43-10.48,7.11-20.44,4.34c0,0-5.24,4.05-18.34-3.29C1460.2,258.6,1436.62,260.7,1440.29,250.74Z"/>
  <g>
    <path class="cls-3" d="M412,538.22a11,11,0,0,1,3.17-11.28c4.2-3.57,10.9-2.88,14,.43.63.67,1.67,1.78,1.58,3.09C430.4,535.39,414.6,537.83,412,538.22Z"/>
    <path class="cls-3" d="M449.61,538.22a11.06,11.06,0,0,0-3.16-11.28c-4.2-3.57-10.91-2.88-14,.43-.63.67-1.67,1.78-1.58,3.09C431.18,535.39,447,537.83,449.61,538.22Z"/>
    <polygon class="cls-3" points="411.96 538.23 430.73 557.75 449.61 538.23 430.73 530.46 411.96 538.23"/>
  </g>
  <path class="cls-5" d="M1591.39,670.52s-14.67-18.34-35.76-11c0,0-22.93-20.89-52.27-1.73,0,0-26.6-2.85-29.35,8.15s14.67,16.51,14.67,16.51,18.34,12.43,35.77,7.59c0,0,9.17,7.08,32.09-5.76C1556.54,684.27,1597.81,687.94,1591.39,670.52Z"/>
  <path class="cls-5" d="M1730.84,616.56S1722.72,599,1693,604.38c0,0-44.66-33.19-73.08-1,0,0-37.89-.32-36.54,18.63s37.89,19,37.89,19,22.33,24.4,66,0C1687.19,641,1732.19,645,1730.84,616.56Z"/>
  <g>
    <path class="cls-3" d="M1610.83,722.24a11.08,11.08,0,0,0-3.16-11.29c-4.2-3.56-10.91-2.87-14,.44-.63.67-1.67,1.77-1.58,3.09C1592.4,719.41,1608.2,721.85,1610.83,722.24Z"/>
    <path class="cls-3" d="M1573.18,722.24a11.06,11.06,0,0,1,3.17-11.29c4.2-3.56,10.9-2.87,14,.44.63.67,1.67,1.77,1.58,3.09C1591.62,719.41,1575.82,721.85,1573.18,722.24Z"/>
    <polygon class="cls-3" points="1610.83 722.24 1592.06 741.77 1573.18 722.24 1592.07 714.48 1610.83 722.24"/>
  </g>
  <g>
    <g>
      <path class="cls-3" d="M825.46,113.11q-.6,9.15-9.15,9.15h-9.2a9.22,9.22,0,0,1-9.15-9.15v-23a8.91,8.91,0,0,1,2.66-6.42A8.69,8.69,0,0,1,807.11,81h9.2q8.64,0,9.15,9.15h-4.6q-.52-4.55-4.55-4.55h-4.6a4.61,4.61,0,0,0-4.6,4.55v23a4.61,4.61,0,0,0,4.6,4.55h4.6q4,0,4.55-4.55Z"/>
      <path class="cls-3" d="M862.11,108.51H843.77v4.6a4.59,4.59,0,0,0,4.59,4.55H853q4.56,0,4.56-4.55h4.59q-1.07,9.15-9.15,9.15h-9.19a9.22,9.22,0,0,1-9.16-9.15V99.36a9.24,9.24,0,0,1,9.16-9.2H853a8.79,8.79,0,0,1,6.46,2.72,8.9,8.9,0,0,1,2.69,6.48Zm-18.34-4.6H853V99.36a4.6,4.6,0,0,0-9.19,0Z"/>
      <path class="cls-3" d="M871.27,122.26V90.16h9.15v4.6a5.62,5.62,0,0,1,1.43-3.46A4.29,4.29,0,0,1,885,90.16h4.59a9.25,9.25,0,0,1,9.16,9.2v22.9h-9.16V99.36a4.6,4.6,0,0,0-9.19,0v22.9Z"/>
      <path class="cls-3" d="M930.82,99.36h-4.55c-.41-3.07-1.85-4.6-4.34-4.6a5.88,5.88,0,0,0-3.66,1,3.38,3.38,0,0,0-1.22,2.84q0,2,6.68,5.54Q929.16,107,930,109a10.28,10.28,0,0,1,.83,4.09,9.22,9.22,0,0,1-9.15,9.22h-4.6q-9.15,0-9.15-9.15h4.6c.35,3,1.79,4.57,4.29,4.57a5.83,5.83,0,0,0,3.65-1,3.43,3.43,0,0,0,1.23-2.86q0-1.94-6.66-5.54c-3.64-1.94-5.73-3.55-6.29-4.84a10.29,10.29,0,0,1-.82-4.08,9.22,9.22,0,0,1,9.15-9.24h4.6Q930.27,90.16,930.82,99.36Z"/>
      <path class="cls-3" d="M949.17,90.16h9.19a9.24,9.24,0,0,1,9.15,9.2v13.75a9.24,9.24,0,0,1-9.15,9.15h-9.19a9.22,9.22,0,0,1-9.16-9.15V99.36a9.24,9.24,0,0,1,9.16-9.2Zm0,9.2v13.75a4.59,4.59,0,0,0,4.59,4.55,4.59,4.59,0,0,0,4.6-4.55V99.36a4.6,4.6,0,0,0-9.19,0Z"/>
      <path class="cls-3" d="M985.82,122.26h-9.15V90.16h9.15v9.2c.36-3.07,1.3-5.37,2.84-6.9a8.59,8.59,0,0,1,6.35-2.3h4.56v9.2h-9.15a4.45,4.45,0,0,0-3.25,1.34,4.38,4.38,0,0,0-1.35,3.21Z"/>
      <path class="cls-3" d="M1022.19,81h9.15v9.15h4.6v4.6h-4.6v18.35a4.07,4.07,0,0,0,1.47,3.38,4.45,4.45,0,0,0,2.7,1.17h.43v4.6h-4.6a9.2,9.2,0,0,1-9.15-9.15V94.76h-4.6v-4.6h4.6Z"/>
      <path class="cls-3" d="M1045.09,122.26V81h9.16V94.76a5.62,5.62,0,0,1,1.43-3.46,4.28,4.28,0,0,1,3.16-1.14h4.6a9.24,9.24,0,0,1,9.15,9.2v22.9h-9.15V99.36a4.6,4.6,0,0,0-9.19,0v22.9Z"/>
      <path class="cls-3" d="M1109.25,108.51H1090.9v4.6a4.59,4.59,0,0,0,4.6,4.55h4.59q4.56,0,4.56-4.55h4.6q-1.08,9.15-9.16,9.15h-9.19a9.2,9.2,0,0,1-9.15-9.15V99.36a9.22,9.22,0,0,1,9.15-9.2h9.19a9.25,9.25,0,0,1,9.16,9.2Zm-18.35-4.6h9.19V99.36a4.6,4.6,0,0,0-9.19,0Z"/>
      <path class="cls-3" d="M870.94,188.26V147H873l25.41,22.9V147H903v41.25h-2.1l-25.4-22.9v22.9Z"/>
      <path class="cls-3" d="M912.19,151.61V147h9.16v4.6Zm0,36.65v-32.1h9.16v32.1Z"/>
      <path class="cls-3" d="M930.54,156.16h9.15v4.6a4.66,4.66,0,0,1,1.16-3.46,4.73,4.73,0,0,1,3.44-1.14h4.6a8.75,8.75,0,0,1,6.45,2.72,8.87,8.87,0,0,1,2.7,6.48v13.75a9.22,9.22,0,0,1-9.15,9.15h-9.2v9.15h-9.15Zm9.15,27.5h4.6a4.46,4.46,0,0,0,3.23-1.34,4.37,4.37,0,0,0,1.37-3.21V165.36a4.4,4.4,0,0,0-1.37-3.24,4.46,4.46,0,0,0-3.23-1.34,4.36,4.36,0,0,0-3.24,1.33,4.43,4.43,0,0,0-1.36,3.25Z"/>
      <path class="cls-3" d="M967.19,156.16h9.16v4.6a4.62,4.62,0,0,1,1.16-3.46,4.69,4.69,0,0,1,3.43-1.14h4.6a8.79,8.79,0,0,1,6.46,2.72,8.9,8.9,0,0,1,2.69,6.48v13.75a9.2,9.2,0,0,1-9.15,9.15h-9.19v9.15h-9.16Zm9.16,27.5h4.59a4.48,4.48,0,0,0,3.24-1.34,4.36,4.36,0,0,0,1.36-3.21V165.36a4.39,4.39,0,0,0-1.36-3.24,4.48,4.48,0,0,0-3.24-1.34,4.36,4.36,0,0,0-3.24,1.33,4.46,4.46,0,0,0-1.35,3.25Z"/>
      <path class="cls-3" d="M1003.84,188.26V147H1013v41.25Z"/>
      <path class="cls-3" d="M1049.69,174.51h-18.35v4.6a4.61,4.61,0,0,0,4.6,4.55h4.6c3,0,4.55-1.52,4.55-4.55h4.6q-1.07,9.15-9.15,9.15h-9.2a9.22,9.22,0,0,1-9.15-9.15V165.36a9.24,9.24,0,0,1,9.15-9.2h9.2a8.79,8.79,0,0,1,6.46,2.72,8.9,8.9,0,0,1,2.69,6.48Zm-18.35-4.6h9.2v-4.55a4.63,4.63,0,0,0-4.6-4.6,4.42,4.42,0,0,0-3.24,1.35,4.47,4.47,0,0,0-1.36,3.25Z"/>
    </g>
    <ellipse class="cls-3" cx="947.47" cy="172.38" rx="13.73" ry="17.29"/>
    <ellipse class="cls-3" cx="983.67" cy="172.38" rx="13.73" ry="17.29"/>
    <ellipse class="cls-32" cx="947.47" cy="173.04" rx="9.61" ry="12.1"/>
    <ellipse class="cls-32" cx="983.67" cy="173.04" rx="9.61" ry="12.1"/>
    <circle class="cls-25" cx="947.47" cy="173.04" r="3.78"/>
    <circle class="cls-25" cx="983.67" cy="173.04" r="3.78"/>
  </g>
  <g>
    <path class="cls-28" d="M713.7,484.75v-3.83h3.83v3.83Z"/>
    <path class="cls-28" d="M721.37,484.75v-3.83h3.83v3.83Z"/>
    <path class="cls-28" d="M729,484.75v-3.83h3.83v3.83Z"/>
    <path class="cls-28" d="M744.39,477.08v-1.91a1.95,1.95,0,0,0-1.92-1.92h-1.93c-1.13,0-1.76.64-1.9,1.92h-1.92c.29-2.56,1.57-3.84,3.82-3.84h3.85a3.69,3.69,0,0,1,2.7,1.13,3.73,3.73,0,0,1,1.13,2.71v9.58h-3.83v-1.92q-.23,1.92-1.92,1.92h-1.93a3.72,3.72,0,0,1-2.7-1.13,3.68,3.68,0,0,1-1.12-2.7v0a3.84,3.84,0,0,1,3.82-3.82Zm0,1.92h-1.92a1.88,1.88,0,0,0-1.36.56,1.82,1.82,0,0,0-.57,1.34v0a1.95,1.95,0,0,0,1.93,1.91,1.93,1.93,0,0,0,1.92-1.91Z"/>
    <path class="cls-28" d="M752,484.75V471.33h3.83v1.92a2.4,2.4,0,0,1,.6-1.45,1.82,1.82,0,0,1,1.32-.47h1.93a3.84,3.84,0,0,1,3.82,3.84v9.58h-3.82v-9.58a1.83,1.83,0,0,0-.57-1.35,1.85,1.85,0,0,0-1.36-.57,1.95,1.95,0,0,0-1.92,1.92v9.58Z"/>
    <path class="cls-28" d="M778.87,484.75H775v-1.92q-.22,1.92-1.92,1.92H771.2a3.86,3.86,0,0,1-3.83-3.83v-5.75a3.84,3.84,0,0,1,3.83-3.84H775V467.5h3.83ZM775,473.25h-1.92a1.93,1.93,0,0,0-1.92,1.92v5.75a1.92,1.92,0,0,0,3.28,1.34,1.81,1.81,0,0,0,.56-1.34Z"/>
    <path class="cls-28" d="M788.31,484.75V467.5h3.83v5.75a2.4,2.4,0,0,1,.6-1.45,1.82,1.82,0,0,1,1.32-.47H796a3.84,3.84,0,0,1,3.82,3.84v5.75a3.86,3.86,0,0,1-3.82,3.83Zm3.83-1.92h1.92a1.95,1.95,0,0,0,1.93-1.91v-5.75a1.83,1.83,0,0,0-.57-1.35,1.87,1.87,0,0,0-1.36-.57,1.95,1.95,0,0,0-1.92,1.92Z"/>
    <path class="cls-28" d="M815.14,479h-7.67v1.92a1.93,1.93,0,0,0,1.92,1.91h1.92a1.69,1.69,0,0,0,1.91-1.91h1.92c-.3,2.55-1.57,3.83-3.83,3.83h-3.84a3.86,3.86,0,0,1-3.83-3.83v-5.75a3.84,3.84,0,0,1,3.83-3.84h3.84a3.86,3.86,0,0,1,3.83,3.84Zm-7.67-1.92h3.84v-1.91a1.95,1.95,0,0,0-1.92-1.92,1.93,1.93,0,0,0-1.92,1.92Z"/>
    <path class="cls-28" d="M828.55,475.17h-1.91q-.23-1.92-1.92-1.92a1.85,1.85,0,0,0-1.36.57,1.82,1.82,0,0,0-.56,1.35v5.75a1.81,1.81,0,0,0,.56,1.34,1.84,1.84,0,0,0,1.36.57c1.13,0,1.77-.64,1.92-1.91h1.91q-.24,3.82-3.83,3.83H822.8a3.69,3.69,0,0,1-2.7-1.13,3.65,3.65,0,0,1-1.13-2.7v-5.75a3.73,3.73,0,0,1,1.13-2.72,3.68,3.68,0,0,1,2.7-1.12h1.92C827.13,471.33,828.4,472.61,828.55,475.17Z"/>
    <path class="cls-28" d="M836.22,471.33h3.84a3.69,3.69,0,0,1,2.7,1.13,3.73,3.73,0,0,1,1.13,2.71v5.75a3.88,3.88,0,0,1-3.83,3.83h-3.84a3.86,3.86,0,0,1-3.83-3.83v-5.75a3.84,3.84,0,0,1,3.83-3.84Zm0,3.84v5.75a1.81,1.81,0,0,0,.56,1.34,1.91,1.91,0,0,0,2.72,0,1.81,1.81,0,0,0,.56-1.34v-5.75a1.95,1.95,0,0,0-1.92-1.92,1.93,1.93,0,0,0-1.92,1.92Z"/>
    <path class="cls-28" d="M859.22,484.75h-3.83v-9.58a1.95,1.95,0,0,0-1.92-1.92,1.85,1.85,0,0,0-1.36.57,1.83,1.83,0,0,0-.57,1.35v9.58h-3.82V471.33h3.82v1.92a2.4,2.4,0,0,1,.6-1.45,1.83,1.83,0,0,1,1.33-.47h1.92a3.25,3.25,0,0,1,2.88,1.35,2.79,2.79,0,0,1,1.16-1,4.08,4.08,0,0,1,1.71-.33H863a3.86,3.86,0,0,1,3.85,3.84v9.58H863v-9.58a1.9,1.9,0,0,0-3.26-1.35,1.86,1.86,0,0,0-.56,1.35Z"/>
    <path class="cls-28" d="M882.22,479h-7.68v1.92a1.95,1.95,0,0,0,1.93,1.91h1.92a1.68,1.68,0,0,0,1.9-1.91h1.93q-.45,3.82-3.83,3.83h-3.85a3.86,3.86,0,0,1-3.82-3.83v-5.75a3.84,3.84,0,0,1,3.82-3.84h3.85a3.69,3.69,0,0,1,2.7,1.13,3.73,3.73,0,0,1,1.13,2.71Zm-7.68-1.92h3.85v-1.91a1.95,1.95,0,0,0-1.92-1.92,1.85,1.85,0,0,0-1.36.57,1.83,1.83,0,0,0-.57,1.35Z"/>
    <path class="cls-28" d="M893.56,484.75V467.5h3.84v17.25Z"/>
    <path class="cls-28" d="M903.16,484.75V471.33H907v1.92a2.34,2.34,0,0,1,.59-1.45,1.86,1.86,0,0,1,1.33-.47h1.92a3.69,3.69,0,0,1,2.7,1.13,3.73,3.73,0,0,1,1.13,2.71v9.58h-3.83v-9.58a1.95,1.95,0,0,0-1.92-1.92,1.93,1.93,0,0,0-1.92,1.92v9.58Z"/>
    <path class="cls-28" d="M928.06,475.17h-1.9c-.17-1.28-.77-1.92-1.82-1.92a2.42,2.42,0,0,0-1.52.4,1.42,1.42,0,0,0-.51,1.19c0,.55.93,1.32,2.79,2.32,1.51.81,2.39,1.49,2.62,2a4.33,4.33,0,0,1,.34,1.72,3.84,3.84,0,0,1-3.82,3.85h-1.93q-3.82,0-3.82-3.83h1.92q.23,1.92,1.8,1.92a2.42,2.42,0,0,0,1.52-.41,1.41,1.41,0,0,0,.52-1.19c0-.54-.93-1.32-2.79-2.32-1.52-.81-2.4-1.48-2.63-2a4.31,4.31,0,0,1-.34-1.71,3.72,3.72,0,0,1,1.13-2.74,3.67,3.67,0,0,1,2.69-1.12h1.93C926.63,471.33,927.91,472.61,928.06,475.17Z"/>
    <path class="cls-28" d="M933.83,467.5h3.83v3.83h1.92v1.92h-1.92v7.67a1.71,1.71,0,0,0,.61,1.42,1.93,1.93,0,0,0,1.13.49h.18v1.92h-1.92a3.86,3.86,0,0,1-3.83-3.83v-7.67h-1.92v-1.92h1.92Z"/>
    <path class="cls-28" d="M951.08,477.08v-1.91a1.95,1.95,0,0,0-1.92-1.92h-1.92c-1.14,0-1.77.64-1.91,1.92h-1.92q.44-3.84,3.83-3.84h3.84a3.69,3.69,0,0,1,2.7,1.13,3.73,3.73,0,0,1,1.13,2.71v9.58h-3.83v-1.92q-.23,1.92-1.92,1.92h-1.92a3.86,3.86,0,0,1-3.83-3.83v0a3.84,3.84,0,0,1,3.83-3.82Zm0,1.92h-1.92a1.88,1.88,0,0,0-1.36.56,1.85,1.85,0,0,0-.56,1.34v0a1.81,1.81,0,0,0,.56,1.34,1.91,1.91,0,0,0,2.72,0,1.81,1.81,0,0,0,.56-1.34Z"/>
    <path class="cls-28" d="M970.24,471.33v15.34a3.88,3.88,0,0,1-3.83,3.83h-3.85c-2.25,0-3.53-1.28-3.82-3.83h1.92c.09,1.27.72,1.91,1.9,1.91h1.93a1.87,1.87,0,0,0,1.35-.56,1.85,1.85,0,0,0,.57-1.35v-3.84q-.23,1.92-1.92,1.92h-1.93a3.72,3.72,0,0,1-2.7-1.13,3.68,3.68,0,0,1-1.12-2.7v-5.75a3.84,3.84,0,0,1,3.82-3.84Zm-3.83,1.92h-1.92a1.85,1.85,0,0,0-1.36.57,1.83,1.83,0,0,0-.57,1.35v5.75a1.93,1.93,0,0,0,3.85,0Z"/>
    <path class="cls-28" d="M977.89,484.75h-3.83V471.33h3.83v3.84a4.73,4.73,0,0,1,1.19-2.88,3.58,3.58,0,0,1,2.66-1h1.9v3.84h-3.83a1.93,1.93,0,0,0-1.92,1.91Z"/>
    <path class="cls-28" d="M993.24,477.08v-1.91a1.83,1.83,0,0,0-.57-1.35,1.87,1.87,0,0,0-1.36-.57h-1.92c-1.13,0-1.77.64-1.9,1.92h-1.93c.3-2.56,1.57-3.84,3.83-3.84h3.85a3.84,3.84,0,0,1,3.82,3.84v9.58h-3.82v-1.92c-.15,1.28-.79,1.92-1.93,1.92h-1.92a3.86,3.86,0,0,1-3.83-3.83v0a3.86,3.86,0,0,1,3.83-3.82Zm0,1.92h-1.93a1.86,1.86,0,0,0-1.35.56,1.82,1.82,0,0,0-.57,1.34v0a1.93,1.93,0,0,0,1.92,1.91,1.95,1.95,0,0,0,1.93-1.91Z"/>
    <path class="cls-28" d="M1012.39,484.75h-3.83v-9.58a1.95,1.95,0,0,0-1.92-1.92,1.93,1.93,0,0,0-1.92,1.92v9.58h-3.83V471.33h3.83v1.92a2.4,2.4,0,0,1,.6-1.45,1.82,1.82,0,0,1,1.32-.47h1.92a3.25,3.25,0,0,1,2.88,1.35,2.88,2.88,0,0,1,1.17-1,4,4,0,0,1,1.7-.33h1.91a3.84,3.84,0,0,1,3.84,3.84v9.58h-3.84v-9.58a1.85,1.85,0,0,0-.57-1.35,1.92,1.92,0,0,0-3.26,1.35Z"/>
    <path class="cls-28" d="M1029.51,469.42V467.5h3.82v1.92Zm0,15.33V471.33h3.82v13.42Z"/>
    <path class="cls-28" d="M1037.18,484.75V471.33H1041v1.92a2.34,2.34,0,0,1,.59-1.45,1.84,1.84,0,0,1,1.33-.47h1.92a3.69,3.69,0,0,1,2.7,1.13,3.73,3.73,0,0,1,1.13,2.71v9.58h-3.83v-9.58a1.95,1.95,0,0,0-1.92-1.92,1.85,1.85,0,0,0-1.36.57,1.82,1.82,0,0,0-.56,1.35v9.58Z"/>
    <path class="cls-28" d="M1062.08,475.17h-1.9c-.17-1.28-.77-1.92-1.82-1.92a2.42,2.42,0,0,0-1.52.4,1.43,1.43,0,0,0-.52,1.19c0,.55.93,1.32,2.8,2.32,1.51.81,2.39,1.49,2.62,2a4.33,4.33,0,0,1,.34,1.72,3.84,3.84,0,0,1-3.82,3.85h-1.93q-3.82,0-3.82-3.83h1.92q.22,1.92,1.8,1.92a2.42,2.42,0,0,0,1.52-.41,1.43,1.43,0,0,0,.51-1.19c0-.54-.92-1.32-2.78-2.32-1.52-.81-2.4-1.48-2.63-2a4.31,4.31,0,0,1-.34-1.71,3.72,3.72,0,0,1,1.13-2.74,3.67,3.67,0,0,1,2.69-1.12h1.93C1060.65,471.33,1061.93,472.61,1062.08,475.17Z"/>
    <path class="cls-28" d="M1065.93,471.33h3.83v1.92a2,2,0,0,1,.48-1.45,2,2,0,0,1,1.44-.47h1.92a3.69,3.69,0,0,1,2.7,1.13,3.73,3.73,0,0,1,1.13,2.71v5.75a3.86,3.86,0,0,1-3.83,3.83h-3.84v3.83h-3.83Zm3.83,11.5h1.92a1.87,1.87,0,0,0,1.35-.56,1.85,1.85,0,0,0,.57-1.35v-5.75a1.83,1.83,0,0,0-.57-1.35,1.87,1.87,0,0,0-1.35-.56,1.91,1.91,0,0,0-1.92,1.91Z"/>
    <path class="cls-28" d="M1092.76,479h-7.68v1.92a1.93,1.93,0,0,0,1.93,1.91h1.92a1.68,1.68,0,0,0,1.9-1.91h1.93q-.45,3.82-3.83,3.83h-3.85a3.84,3.84,0,0,1-3.82-3.83v-5.75a3.84,3.84,0,0,1,3.82-3.84h3.85a3.69,3.69,0,0,1,2.7,1.13,3.73,3.73,0,0,1,1.13,2.71Zm-7.68-1.92h3.85v-1.91a1.95,1.95,0,0,0-1.92-1.92,1.85,1.85,0,0,0-1.36.57,1.83,1.83,0,0,0-.57,1.35Z"/>
    <path class="cls-28" d="M1106.16,475.17h-1.9c-.15-1.28-.8-1.92-1.93-1.92a1.95,1.95,0,0,0-1.92,1.92v5.75a1.93,1.93,0,0,0,1.92,1.91c1.13,0,1.78-.64,1.93-1.91h1.9c-.16,2.55-1.43,3.83-3.83,3.83h-1.92a3.86,3.86,0,0,1-3.83-3.83v-5.75a3.84,3.84,0,0,1,3.83-3.84h1.92Q1105.95,471.33,1106.16,475.17Z"/>
    <path class="cls-28" d="M1111.93,467.5h3.83v3.83h1.92v1.92h-1.92v7.67a1.71,1.71,0,0,0,.61,1.42,1.88,1.88,0,0,0,1.13.49h.18v1.92h-1.92a3.84,3.84,0,0,1-3.83-3.83v-7.67H1110v-1.92h1.92Z"/>
    <path class="cls-28" d="M1125.33,471.33h3.85a3.69,3.69,0,0,1,2.7,1.13,3.73,3.73,0,0,1,1.13,2.71v5.75a3.88,3.88,0,0,1-3.83,3.83h-3.85a3.84,3.84,0,0,1-3.82-3.83v-5.75a3.84,3.84,0,0,1,3.82-3.84Zm0,3.84v5.75a1.93,1.93,0,0,0,3.85,0v-5.75a1.95,1.95,0,0,0-1.92-1.92,1.85,1.85,0,0,0-1.36.57A1.83,1.83,0,0,0,1125.33,475.17Z"/>
    <path class="cls-28" d="M1140.66,484.75h-3.83V471.33h3.83v3.84a4.73,4.73,0,0,1,1.19-2.88,3.58,3.58,0,0,1,2.66-1h1.9v3.84h-3.83a1.93,1.93,0,0,0-1.92,1.91Z"/>
    <path class="cls-28" d="M1155.87,484.75v-11.5H1154v-1.92h1.92v-.17a3.69,3.69,0,0,1,3.66-3.66h4v1.92h-2.09a1.65,1.65,0,0,0-1.23.52,1.67,1.67,0,0,0-.51,1.22v.17h1.92v1.92h-1.92v11.5Z"/>
    <path class="cls-28" d="M1169.28,471.33h3.84a3.69,3.69,0,0,1,2.7,1.13,3.73,3.73,0,0,1,1.13,2.71v5.75a3.88,3.88,0,0,1-3.83,3.83h-3.84a3.69,3.69,0,0,1-2.7-1.13,3.65,3.65,0,0,1-1.13-2.7v-5.75a3.73,3.73,0,0,1,1.13-2.72A3.68,3.68,0,0,1,1169.28,471.33Zm0,3.84v5.75a1.81,1.81,0,0,0,.56,1.34,1.92,1.92,0,0,0,3.28-1.34v-5.75a1.95,1.95,0,0,0-1.92-1.92,1.85,1.85,0,0,0-1.36.57A1.82,1.82,0,0,0,1169.28,475.17Z"/>
    <path class="cls-28" d="M1184.6,484.75h-3.82V471.33h3.82v3.84a4.73,4.73,0,0,1,1.19-2.88,3.6,3.6,0,0,1,2.66-1h1.9v3.84h-3.82a1.88,1.88,0,0,0-1.36.56,1.85,1.85,0,0,0-.57,1.35Z"/>
    <path class="cls-28" d="M721.69,504.68v-1.91a1.83,1.83,0,0,0-.57-1.35,1.88,1.88,0,0,0-1.36-.57h-1.92c-1.13,0-1.77.64-1.9,1.92H714c.3-2.56,1.57-3.84,3.83-3.84h3.85a3.84,3.84,0,0,1,3.82,3.84v9.58h-3.82v-1.92c-.15,1.28-.79,1.92-1.93,1.92h-1.92a3.86,3.86,0,0,1-3.83-3.83v0a3.86,3.86,0,0,1,3.83-3.82Zm0,1.92h-1.93a1.86,1.86,0,0,0-1.35.56,1.82,1.82,0,0,0-.57,1.34v0a1.93,1.93,0,0,0,1.92,1.91,1.95,1.95,0,0,0,1.93-1.91Z"/>
    <path class="cls-28" d="M746.46,512.35h-3.83v-1.92q-.23,1.92-1.92,1.92h-1.93a3.84,3.84,0,0,1-3.82-3.83v-5.75a3.84,3.84,0,0,1,3.82-3.84h3.85V495.1h3.83Zm-3.83-11.5h-1.92a1.85,1.85,0,0,0-1.36.57,1.83,1.83,0,0,0-.57,1.35v5.75a1.93,1.93,0,0,0,3.85,0Z"/>
    <path class="cls-28" d="M758,504.68v-1.91a1.8,1.8,0,0,0-.58-1.35,1.85,1.85,0,0,0-1.35-.57h-1.92c-1.13,0-1.77.64-1.9,1.92h-1.93c.3-2.56,1.57-3.84,3.83-3.84H758a3.86,3.86,0,0,1,3.82,3.84v9.58H758v-1.92c-.15,1.28-.8,1.92-1.93,1.92h-1.92a3.86,3.86,0,0,1-3.83-3.83v0a3.84,3.84,0,0,1,3.83-3.82Zm0,1.92H756a1.86,1.86,0,0,0-1.35.56,1.82,1.82,0,0,0-.57,1.34v0a1.93,1.93,0,0,0,1.92,1.91,1.95,1.95,0,0,0,1.93-1.91Z"/>
    <path class="cls-28" d="M767.53,514.27c.09,1.27.73,1.91,1.91,1.91h1.92a1.87,1.87,0,0,0,1.35-.56,1.85,1.85,0,0,0,.57-1.35v-3.84q-.22,1.92-1.92,1.92h-1.92a3.86,3.86,0,0,1-3.83-3.83v-9.59h3.83v9.59a1.81,1.81,0,0,0,.56,1.34,1.91,1.91,0,0,0,2.72,0,1.81,1.81,0,0,0,.56-1.34v-9.59h3.83v15.34a3.88,3.88,0,0,1-3.83,3.83h-3.84q-3.39,0-3.83-3.83Z"/>
    <path class="cls-28" d="M782.84,506.6V495.1h3.84v11.5Zm0,5.75v-3.83h3.84v3.83Z"/>
    <path class="cls-28" d="M714.64,567.55V550.3h3.83V558h3.84V550.3h3.83v17.25h-3.83v-7.67h-3.84v7.67Z"/>
    <path class="cls-28" d="M741.47,561.8h-7.68v1.92a1.93,1.93,0,0,0,1.93,1.91h1.92a1.68,1.68,0,0,0,1.9-1.91h1.93q-.45,3.82-3.83,3.83h-3.85a3.84,3.84,0,0,1-3.82-3.83V558a3.84,3.84,0,0,1,3.82-3.84h3.85a3.69,3.69,0,0,1,2.7,1.13,3.73,3.73,0,0,1,1.13,2.71Zm-7.68-1.92h3.85V558a1.95,1.95,0,0,0-1.92-1.92,1.85,1.85,0,0,0-1.36.57,1.83,1.83,0,0,0-.57,1.35Z"/>
    <path class="cls-28" d="M749.12,567.55h-3.83V554.13h3.83V558a4.73,4.73,0,0,1,1.19-2.88,3.58,3.58,0,0,1,2.66-1h1.9V558H751a1.93,1.93,0,0,0-1.92,1.91Z"/>
    <path class="cls-28" d="M768.29,561.8h-7.67v1.92a1.93,1.93,0,0,0,1.92,1.91h1.93a1.68,1.68,0,0,0,1.9-1.91h1.92q-.45,3.82-3.82,3.83h-3.85a3.86,3.86,0,0,1-3.83-3.83V558a3.84,3.84,0,0,1,3.83-3.84h3.85a3.84,3.84,0,0,1,3.82,3.84Zm-7.67-1.92h3.85V558a1.83,1.83,0,0,0-.57-1.35,1.88,1.88,0,0,0-1.36-.57,1.95,1.95,0,0,0-1.92,1.92Z"/>
    <path class="cls-28" d="M789.24,567.55h-3.83V558a1.95,1.95,0,0,0-1.92-1.92,1.85,1.85,0,0,0-1.36.57,1.83,1.83,0,0,0-.57,1.35v9.58h-3.82V554.13h3.82v1.92a2.4,2.4,0,0,1,.6-1.45,1.83,1.83,0,0,1,1.33-.47h1.92a3.23,3.23,0,0,1,2.87,1.35,2.88,2.88,0,0,1,1.17-1,4.08,4.08,0,0,1,1.71-.33h1.9a3.86,3.86,0,0,1,3.85,3.84v9.58h-3.85V558a1.87,1.87,0,0,0-.56-1.35,1.88,1.88,0,0,0-2.7,0,1.82,1.82,0,0,0-.56,1.35Z"/>
    <path class="cls-28" d="M812.24,561.8h-7.68v1.92a1.93,1.93,0,0,0,1.93,1.91h1.92a1.68,1.68,0,0,0,1.9-1.91h1.93q-.45,3.82-3.83,3.83h-3.85a3.84,3.84,0,0,1-3.82-3.83V558a3.84,3.84,0,0,1,3.82-3.84h3.85a3.69,3.69,0,0,1,2.7,1.13,3.73,3.73,0,0,1,1.13,2.71Zm-7.68-1.92h3.85V558a1.95,1.95,0,0,0-1.92-1.92,1.85,1.85,0,0,0-1.36.57,1.83,1.83,0,0,0-.57,1.35Z"/>
    <path class="cls-28" d="M816.06,567.55V554.13h3.83v1.92a2.4,2.4,0,0,1,.6-1.45,1.82,1.82,0,0,1,1.32-.47h1.92a3.86,3.86,0,0,1,3.83,3.84v9.58h-3.83V558a1.92,1.92,0,0,0-3.84,0v9.58Z"/>
    <path class="cls-28" d="M844.68,559.88V558a1.83,1.83,0,0,0-.57-1.35,1.85,1.85,0,0,0-1.36-.57h-1.92c-1.13,0-1.77.64-1.9,1.92H837c.3-2.56,1.57-3.84,3.83-3.84h3.85A3.84,3.84,0,0,1,848.5,558v9.58h-3.82v-1.92c-.15,1.28-.79,1.92-1.93,1.92h-1.92a3.86,3.86,0,0,1-3.83-3.83v0a3.86,3.86,0,0,1,3.83-3.82Zm0,1.92h-1.93a1.87,1.87,0,0,0-1.35.56,1.82,1.82,0,0,0-.57,1.34v0a1.93,1.93,0,0,0,3.85,0Z"/>
    <path class="cls-28" d="M856.16,567.55h-3.83V554.13h3.83V558a4.67,4.67,0,0,1,1.19-2.88,3.58,3.58,0,0,1,2.65-1h1.91V558h-3.83a1.93,1.93,0,0,0-1.92,1.91Z"/>
    <path class="cls-28" d="M875.33,561.8h-7.67v1.92a1.93,1.93,0,0,0,1.92,1.91h1.92a1.69,1.69,0,0,0,1.91-1.91h1.92c-.3,2.55-1.57,3.83-3.83,3.83h-3.84a3.86,3.86,0,0,1-3.83-3.83V558a3.84,3.84,0,0,1,3.83-3.84h3.84a3.86,3.86,0,0,1,3.83,3.84Zm-7.67-1.92h3.84V558a1.92,1.92,0,0,0-3.84,0Z"/>
    <path class="cls-28" d="M892.45,559.88V558a1.83,1.83,0,0,0-.57-1.35,1.85,1.85,0,0,0-1.36-.57H888.6c-1.13,0-1.77.64-1.9,1.92h-1.93c.3-2.56,1.57-3.84,3.83-3.84h3.85a3.84,3.84,0,0,1,3.82,3.84v9.58h-3.82v-1.92c-.15,1.28-.79,1.92-1.93,1.92H888.6a3.86,3.86,0,0,1-3.83-3.83v0a3.86,3.86,0,0,1,3.83-3.82Zm0,1.92h-1.93a1.86,1.86,0,0,0-1.35.56,1.82,1.82,0,0,0-.57,1.34v0a1.93,1.93,0,0,0,3.85,0Z"/>
    <path class="cls-28" d="M900.1,567.55V550.3h3.83v17.25Z"/>
    <path class="cls-28" d="M907.77,567.55V550.3h3.83v17.25Z"/>
    <path class="cls-28" d="M919.27,554.13h3.85a3.69,3.69,0,0,1,2.7,1.13A3.73,3.73,0,0,1,927,558v5.75a3.88,3.88,0,0,1-3.83,3.83h-3.85a3.72,3.72,0,0,1-2.7-1.13,3.68,3.68,0,0,1-1.12-2.7V558a3.84,3.84,0,0,1,3.82-3.84Zm0,3.84v5.75a1.93,1.93,0,0,0,3.85,0V558a1.95,1.95,0,0,0-1.92-1.92,1.85,1.85,0,0,0-1.36.57A1.83,1.83,0,0,0,919.27,558Z"/>
    <path class="cls-28" d="M930.77,554.13h3.83v11.5h1.92a1.95,1.95,0,0,0,1.93-1.91v-9.59h3.82v11.5h1.93a1.82,1.82,0,0,0,1.34-.57,1.85,1.85,0,0,0,.56-1.34v-9.59H950V561a6.61,6.61,0,0,1-6.55,6.55h-4.95v-.61a5.57,5.57,0,0,1-2.73.61h-5Z"/>
    <path class="cls-28" d="M965.27,561.8H957.6v1.92a1.93,1.93,0,0,0,1.92,1.91h1.93a1.69,1.69,0,0,0,1.9-1.91h1.92q-.45,3.82-3.82,3.83H957.6a3.86,3.86,0,0,1-3.83-3.83V558a3.84,3.84,0,0,1,3.83-3.84h3.85a3.86,3.86,0,0,1,3.82,3.84Zm-7.67-1.92h3.85V558a1.93,1.93,0,0,0-3.85,0Z"/>
    <path class="cls-28" d="M980.6,567.55h-3.83v-1.92q-.22,1.92-1.92,1.92h-1.92a3.86,3.86,0,0,1-3.83-3.83V558a3.73,3.73,0,0,1,1.13-2.72,3.69,3.69,0,0,1,2.7-1.12h3.84V550.3h3.83Zm-3.83-11.5h-1.92a1.93,1.93,0,0,0-1.92,1.92v5.75a1.81,1.81,0,0,0,.56,1.34,1.92,1.92,0,0,0,3.28-1.34Z"/>
    <path class="cls-28" d="M992,550.3h3.83v3.83h1.92v1.92h-1.92v7.67a1.74,1.74,0,0,0,.61,1.42,1.93,1.93,0,0,0,1.14.49h.17v1.92h-1.92a3.86,3.86,0,0,1-3.83-3.83v-7.67H990v-1.92H992Z"/>
    <path class="cls-28" d="M1005.37,554.13h3.84A3.86,3.86,0,0,1,1013,558v5.75a3.88,3.88,0,0,1-3.83,3.83h-3.84a3.86,3.86,0,0,1-3.83-3.83V558a3.84,3.84,0,0,1,3.83-3.84Zm0,3.84v5.75a1.93,1.93,0,0,0,1.92,1.91,1.93,1.93,0,0,0,1.92-1.91V558a1.92,1.92,0,0,0-3.84,0Z"/>
    <path class="cls-28" d="M1032.06,558h-1.9c-.17-1.28-.78-1.92-1.82-1.92a2.47,2.47,0,0,0-1.53.4,1.42,1.42,0,0,0-.51,1.19c0,.55.93,1.32,2.8,2.32,1.51.81,2.39,1.49,2.62,2a4.33,4.33,0,0,1,.34,1.72,3.86,3.86,0,0,1-3.83,3.85h-1.92q-3.82,0-3.83-3.83h1.93c.15,1.28.75,1.92,1.79,1.92a2.43,2.43,0,0,0,1.53-.41,1.43,1.43,0,0,0,.51-1.19c0-.54-.93-1.31-2.78-2.32-1.52-.81-2.4-1.48-2.63-2a4.32,4.32,0,0,1-.35-1.71,3.73,3.73,0,0,1,1.14-2.74,3.67,3.67,0,0,1,2.69-1.12h1.92Q1031.83,554.13,1032.06,558Z"/>
    <path class="cls-28" d="M1035.91,567.55V550.3h3.82v5.75a2.4,2.4,0,0,1,.6-1.45,1.83,1.83,0,0,1,1.33-.47h1.92a3.69,3.69,0,0,1,2.7,1.13,3.73,3.73,0,0,1,1.13,2.71v9.58h-3.83V558a1.95,1.95,0,0,0-1.92-1.92,1.85,1.85,0,0,0-1.36.57,1.83,1.83,0,0,0-.57,1.35v9.58Z"/>
    <path class="cls-28" d="M1055.06,554.13h3.85a3.84,3.84,0,0,1,3.82,3.84v5.75a3.86,3.86,0,0,1-3.82,3.83h-3.85a3.86,3.86,0,0,1-3.83-3.83V558a3.86,3.86,0,0,1,3.83-3.84Zm0,3.84v5.75a1.93,1.93,0,0,0,3.85,0V558a1.83,1.83,0,0,0-.57-1.35,1.87,1.87,0,0,0-1.36-.57,1.95,1.95,0,0,0-1.92,1.92Z"/>
    <path class="cls-28" d="M1066.56,554.13h3.83v11.5h1.92a1.84,1.84,0,0,0,1.36-.57,1.81,1.81,0,0,0,.56-1.34v-9.59h3.83v11.5H1080a1.93,1.93,0,0,0,1.91-1.91v-9.59h3.84V561a6.59,6.59,0,0,1-6.55,6.55h-5v-.61a5.5,5.5,0,0,1-2.72.61h-5Z"/>
    <path class="cls-28" d="M1095.18,567.55V550.3H1099v5.75a2.4,2.4,0,0,1,.6-1.45,1.83,1.83,0,0,1,1.33-.47h1.92a3.69,3.69,0,0,1,2.7,1.13,3.73,3.73,0,0,1,1.13,2.71v5.75a3.88,3.88,0,0,1-3.83,3.83Zm3.82-1.92h1.93a1.93,1.93,0,0,0,1.92-1.91V558a1.95,1.95,0,0,0-1.92-1.92,1.85,1.85,0,0,0-1.36.57A1.83,1.83,0,0,0,1099,558Z"/>
    <path class="cls-28" d="M1114.33,567.55h-3.83V554.13h3.83V558a4.73,4.73,0,0,1,1.19-2.88,3.58,3.58,0,0,1,2.66-1h1.9V558h-3.83a1.93,1.93,0,0,0-1.92,1.91Z"/>
    <path class="cls-28" d="M1133.5,561.8h-7.67v1.92a1.93,1.93,0,0,0,1.92,1.91h1.93a1.68,1.68,0,0,0,1.9-1.91h1.92q-.45,3.82-3.82,3.83h-3.85a3.86,3.86,0,0,1-3.83-3.83V558a3.86,3.86,0,0,1,3.83-3.84h3.85a3.84,3.84,0,0,1,3.82,3.84Zm-7.67-1.92h3.85V558a1.83,1.83,0,0,0-.57-1.35,1.87,1.87,0,0,0-1.36-.57,1.95,1.95,0,0,0-1.92,1.92Z"/>
    <path class="cls-28" d="M1145,559.88V558a1.95,1.95,0,0,0-1.92-1.92h-1.92c-1.13,0-1.77.64-1.91,1.92h-1.92q.43-3.84,3.83-3.84H1145a3.86,3.86,0,0,1,3.83,3.84v9.58H1145v-1.92q-.23,1.92-1.92,1.92h-1.92a3.86,3.86,0,0,1-3.83-3.83v0a3.84,3.84,0,0,1,3.83-3.82Zm0,1.92h-1.92a1.88,1.88,0,0,0-1.36.56,1.85,1.85,0,0,0-.56,1.34v0a1.92,1.92,0,0,0,3.28,1.34,1.81,1.81,0,0,0,.56-1.34Z"/>
    <path class="cls-28" d="M1162.24,558h-1.91c-.17-1.28-.77-1.92-1.81-1.92a2.43,2.43,0,0,0-1.53.4,1.42,1.42,0,0,0-.51,1.19c0,.55.93,1.32,2.79,2.32,1.52.81,2.39,1.49,2.62,2a4.34,4.34,0,0,1,.35,1.72,3.86,3.86,0,0,1-3.83,3.85h-1.92c-2.56,0-3.83-1.28-3.83-3.83h1.92q.23,1.92,1.8,1.92a2.47,2.47,0,0,0,1.53-.41,1.43,1.43,0,0,0,.51-1.19c0-.54-.93-1.31-2.79-2.32-1.52-.81-2.4-1.48-2.63-2a4.31,4.31,0,0,1-.34-1.71,3.76,3.76,0,0,1,1.13-2.74,3.68,3.68,0,0,1,2.7-1.12h1.92Q1162,554.13,1162.24,558Z"/>
    <path class="cls-28" d="M1168,550.3h3.83v3.83h1.92v1.92h-1.92v7.67a1.71,1.71,0,0,0,.61,1.42,1.93,1.93,0,0,0,1.13.49h.18v1.92h-1.92a3.86,3.86,0,0,1-3.83-3.83v-7.67h-1.92v-1.92H1168Z"/>
    <path class="cls-28" d="M1187.16,558h-1.91c-.16-1.28-.77-1.92-1.81-1.92a2.43,2.43,0,0,0-1.53.4,1.42,1.42,0,0,0-.51,1.19c0,.55.93,1.32,2.79,2.32,1.52.81,2.39,1.49,2.62,2a4.34,4.34,0,0,1,.35,1.72,3.86,3.86,0,0,1-3.83,3.85h-1.92q-3.83,0-3.83-3.83h1.92q.23,1.92,1.8,1.92a2.43,2.43,0,0,0,1.53-.41,1.43,1.43,0,0,0,.51-1.19c0-.54-.93-1.31-2.79-2.32-1.52-.81-2.39-1.48-2.62-2a4.32,4.32,0,0,1-.35-1.71,3.76,3.76,0,0,1,1.13-2.74,3.71,3.71,0,0,1,2.7-1.12h1.92C1185.73,554.13,1187,555.41,1187.16,558Z"/>
    <path class="cls-28" d="M1191,563.72h3.83v3.83c0,2.27-1.27,3.55-3.83,3.83v-1.91a1.79,1.79,0,0,0,1.93-1.92H1191Z"/>
    <path class="cls-28" d="M715,595.15V577.9h3.83v5.75a2.4,2.4,0,0,1,.6-1.45,1.82,1.82,0,0,1,1.32-.47h1.92a3.86,3.86,0,0,1,3.83,3.84v5.75a3.88,3.88,0,0,1-3.83,3.83Zm3.83-1.92h1.92a1.84,1.84,0,0,0,1.36-.57,1.81,1.81,0,0,0,.56-1.34v-5.75a1.81,1.81,0,0,0-.57-1.35,1.92,1.92,0,0,0-3.27,1.35Z"/>
    <path class="cls-28" d="M741.78,581.73v13.42H738v-1.92q-.23,1.92-1.92,1.92h-1.92a3.69,3.69,0,0,1-2.7-1.13,3.65,3.65,0,0,1-1.13-2.7v-9.59h3.83v9.59a1.81,1.81,0,0,0,.56,1.34,1.92,1.92,0,0,0,3.28-1.34v-9.59Z"/>
    <path class="cls-28" d="M747.53,577.9h3.83v3.83h1.92v1.92h-1.92v7.67a1.71,1.71,0,0,0,.61,1.42,1.88,1.88,0,0,0,1.13.49h.18v1.92h-1.92a3.84,3.84,0,0,1-3.83-3.83v-7.67h-1.92v-1.92h1.92Z"/>
    <path class="cls-28" d="M762.72,581.73h3.83v11.5h1.92a1.84,1.84,0,0,0,1.36-.57,1.81,1.81,0,0,0,.56-1.34v-9.59h3.83v11.5h1.92a1.93,1.93,0,0,0,1.91-1.91v-9.59h3.84v6.87a6.59,6.59,0,0,1-6.55,6.55h-5v-.61a5.5,5.5,0,0,1-2.72.61h-4.95Z"/>
    <path class="cls-28" d="M789.55,581.73h3.84a3.86,3.86,0,0,1,3.83,3.84v5.75a3.88,3.88,0,0,1-3.83,3.83h-3.84a3.86,3.86,0,0,1-3.83-3.83v-5.75a3.84,3.84,0,0,1,3.83-3.84Zm0,3.84v5.75a1.92,1.92,0,0,0,3.28,1.34,1.81,1.81,0,0,0,.56-1.34v-5.75a1.81,1.81,0,0,0-.57-1.35,1.92,1.92,0,0,0-3.27,1.35Z"/>
    <path class="cls-28" d="M812.55,595.15h-3.83v-9.58a1.81,1.81,0,0,0-.57-1.35,1.9,1.9,0,0,0-2.71,0,1.8,1.8,0,0,0-.56,1.35v9.58h-3.83V581.73h3.83v1.92a2.34,2.34,0,0,1,.59-1.45,1.83,1.83,0,0,1,1.33-.47h1.92a3.25,3.25,0,0,1,2.88,1.35,2.85,2.85,0,0,1,1.16-1,4.08,4.08,0,0,1,1.71-.33h1.91a3.86,3.86,0,0,1,3.84,3.84v9.58h-3.84v-9.58a1.85,1.85,0,0,0-.57-1.35,1.82,1.82,0,0,0-1.34-.57,1.93,1.93,0,0,0-1.92,1.92Z"/>
    <path class="cls-28" d="M835.55,589.4h-7.67v1.92a1.81,1.81,0,0,0,.56,1.34,1.84,1.84,0,0,0,1.36.57h1.92a1.69,1.69,0,0,0,1.91-1.91h1.92q-.45,3.82-3.83,3.83h-3.84a3.69,3.69,0,0,1-2.7-1.13,3.65,3.65,0,0,1-1.13-2.7v-5.75a3.73,3.73,0,0,1,1.13-2.72,3.69,3.69,0,0,1,2.7-1.12h3.84a3.69,3.69,0,0,1,2.7,1.13,3.73,3.73,0,0,1,1.13,2.71Zm-7.67-1.92h3.84v-1.91a1.81,1.81,0,0,0-.57-1.35,1.9,1.9,0,0,0-2.71,0,1.8,1.8,0,0,0-.56,1.35Z"/>
    <path class="cls-28" d="M839.38,595.15V581.73h3.82v1.92a2.4,2.4,0,0,1,.6-1.45,1.83,1.83,0,0,1,1.33-.47h1.92a3.69,3.69,0,0,1,2.7,1.13,3.73,3.73,0,0,1,1.13,2.71v9.58h-3.83v-9.58a1.81,1.81,0,0,0-.57-1.35,1.9,1.9,0,0,0-2.71,0,1.81,1.81,0,0,0-.57,1.35v9.58Z"/>
    <path class="cls-28" d="M868,587.48v-1.91a1.81,1.81,0,0,0-.57-1.35,1.85,1.85,0,0,0-1.35-.57h-1.92c-1.14,0-1.77.64-1.91,1.92h-1.92q.43-3.84,3.83-3.84H868a3.69,3.69,0,0,1,2.7,1.13,3.73,3.73,0,0,1,1.13,2.71v9.58H868v-1.92q-.22,1.92-1.92,1.92h-1.92a3.69,3.69,0,0,1-2.7-1.13,3.65,3.65,0,0,1-1.13-2.7v0a3.84,3.84,0,0,1,3.83-3.82Zm0,1.92h-1.92a1.88,1.88,0,0,0-1.36.56,1.8,1.8,0,0,0-.56,1.34v0a1.93,1.93,0,0,0,1.92,1.91,1.93,1.93,0,0,0,1.92-1.91Z"/>
    <path class="cls-28" d="M879.47,595.15h-3.82V581.73h3.82v3.84a4.73,4.73,0,0,1,1.19-2.88,3.6,3.6,0,0,1,2.66-1h1.9v3.84H881.4a1.88,1.88,0,0,0-1.36.56,1.85,1.85,0,0,0-.57,1.35Z"/>
    <path class="cls-28" d="M898.65,589.4H891v1.92a1.93,1.93,0,0,0,1.93,1.91h1.92a1.68,1.68,0,0,0,1.9-1.91h1.93q-.45,3.82-3.83,3.83H891a3.84,3.84,0,0,1-3.82-3.83v-5.75a3.84,3.84,0,0,1,3.82-3.84h3.85a3.69,3.69,0,0,1,2.7,1.13,3.73,3.73,0,0,1,1.13,2.71ZM891,587.48h3.85v-1.91a1.81,1.81,0,0,0-.57-1.35,1.9,1.9,0,0,0-2.71,0,1.81,1.81,0,0,0-.57,1.35Z"/>
    <path class="cls-28" d="M908.09,595.15V581.73h3.82v1.92a2.4,2.4,0,0,1,.6-1.45,1.83,1.83,0,0,1,1.33-.47h1.92a3.69,3.69,0,0,1,2.7,1.13,3.73,3.73,0,0,1,1.13,2.71v9.58h-3.83v-9.58a1.81,1.81,0,0,0-.57-1.35,1.9,1.9,0,0,0-2.71,0,1.81,1.81,0,0,0-.57,1.35v9.58Z"/>
    <path class="cls-28" d="M927.24,581.73h3.85a3.84,3.84,0,0,1,3.82,3.84v5.75a3.86,3.86,0,0,1-3.82,3.83h-3.85a3.86,3.86,0,0,1-3.83-3.83v-5.75a3.86,3.86,0,0,1,3.83-3.84Zm0,3.84v5.75a1.93,1.93,0,0,0,3.85,0v-5.75a1.81,1.81,0,0,0-.57-1.35,1.9,1.9,0,0,0-2.71,0A1.81,1.81,0,0,0,927.24,585.57Z"/>
    <path class="cls-28" d="M940.66,577.9h3.83v3.83h1.92v1.92h-1.92v7.67a1.71,1.71,0,0,0,.61,1.42,1.93,1.93,0,0,0,1.13.49h.18v1.92h-1.92a3.86,3.86,0,0,1-3.83-3.83v-7.67h-1.92v-1.92h1.92Z"/>
    <path class="cls-28" d="M950.24,595.15v-3.83h3.83v3.83Z"/>
    <path class="cls-28" d="M715.89,678V660.7h3.83v7.67h3.84V660.7h3.83V678h-3.83v-7.67h-3.84V678Z"/>
    <path class="cls-28" d="M742.72,672.2H735v1.92A1.95,1.95,0,0,0,737,676h1.92a1.68,1.68,0,0,0,1.9-1.91h1.93q-.45,3.82-3.83,3.83H735a3.72,3.72,0,0,1-2.7-1.13,3.68,3.68,0,0,1-1.12-2.7v-5.75a3.84,3.84,0,0,1,3.82-3.84h3.85a3.69,3.69,0,0,1,2.7,1.13,3.73,3.73,0,0,1,1.13,2.71ZM735,670.28h3.85v-1.91a1.81,1.81,0,0,0-.57-1.35,1.9,1.9,0,0,0-2.71,0,1.81,1.81,0,0,0-.57,1.35Z"/>
    <path class="cls-28" d="M746.54,678V660.7h3.83V678Z"/>
    <path class="cls-28" d="M754.22,664.53H758v1.92a2,2,0,0,1,.49-1.45,2,2,0,0,1,1.44-.47h1.92a3.69,3.69,0,0,1,2.7,1.13,3.73,3.73,0,0,1,1.13,2.71v5.75a3.86,3.86,0,0,1-3.83,3.83H758v3.83h-3.82ZM758,676H760a1.85,1.85,0,0,0,1.35-.57,1.81,1.81,0,0,0,.57-1.34v-5.75a1.81,1.81,0,0,0-.57-1.35,1.87,1.87,0,0,0-1.35-.56,1.93,1.93,0,0,0-1.93,1.91Z"/>
    <path class="cls-28" d="M777.08,660.7h3.83v3.83h1.92v1.92h-1.92v7.67a1.71,1.71,0,0,0,.61,1.42,1.9,1.9,0,0,0,1.13.49h.18V678h-1.92a3.84,3.84,0,0,1-3.83-3.83v-7.67h-1.92v-1.92h1.92Z"/>
    <path class="cls-28" d="M786.66,678V660.7h3.83v5.75a2.34,2.34,0,0,1,.59-1.45,1.84,1.84,0,0,1,1.33-.47h1.92a3.69,3.69,0,0,1,2.7,1.13,3.73,3.73,0,0,1,1.13,2.71V678h-3.83v-9.58a1.81,1.81,0,0,0-.57-1.35,1.9,1.9,0,0,0-2.71,0,1.8,1.8,0,0,0-.56,1.35V678Z"/>
    <path class="cls-28" d="M813.49,672.2h-7.68v1.92a1.93,1.93,0,0,0,1.93,1.91h1.92a1.68,1.68,0,0,0,1.9-1.91h1.93q-.45,3.82-3.83,3.83h-3.85a3.84,3.84,0,0,1-3.82-3.83v-5.75a3.84,3.84,0,0,1,3.82-3.84h3.85a3.69,3.69,0,0,1,2.7,1.13,3.73,3.73,0,0,1,1.13,2.71Zm-7.68-1.92h3.85v-1.91a1.81,1.81,0,0,0-.57-1.35,1.9,1.9,0,0,0-2.71,0,1.81,1.81,0,0,0-.57,1.35Z"/>
    <path class="cls-28" d="M828.81,678H825v-9.58a1.81,1.81,0,0,0-.57-1.35,1.88,1.88,0,0,0-1.36-.57,1.95,1.95,0,0,0-1.92,1.92V678h-3.83V664.53h3.83v1.92a2.4,2.4,0,0,1,.6-1.45,1.82,1.82,0,0,1,1.32-.47H825a3.24,3.24,0,0,1,2.87,1.35,2.88,2.88,0,0,1,1.17-1,4.08,4.08,0,0,1,1.71-.33h1.9a3.86,3.86,0,0,1,3.85,3.84V678h-3.85v-9.58a1.85,1.85,0,0,0-.57-1.35,1.8,1.8,0,0,0-1.33-.57,1.85,1.85,0,0,0-1.36.57,1.81,1.81,0,0,0-.57,1.35Z"/>
    <path class="cls-28" d="M845.93,678V664.53h3.83v1.92a2.34,2.34,0,0,1,.59-1.45,1.83,1.83,0,0,1,1.33-.47h1.92a3.69,3.69,0,0,1,2.7,1.13,3.73,3.73,0,0,1,1.13,2.71V678H853.6v-9.58A1.81,1.81,0,0,0,853,667a1.9,1.9,0,0,0-2.71,0,1.8,1.8,0,0,0-.56,1.35V678Z"/>
    <path class="cls-28" d="M868.93,670.28v-1.91a1.81,1.81,0,0,0-.57-1.35,1.85,1.85,0,0,0-1.35-.57h-1.93c-1.13,0-1.76.64-1.9,1.92h-1.92q.43-3.84,3.82-3.84h3.85a3.69,3.69,0,0,1,2.7,1.13,3.73,3.73,0,0,1,1.13,2.71V678h-3.83V676q-.23,1.92-1.92,1.92h-1.93a3.84,3.84,0,0,1-3.82-3.83v0a3.84,3.84,0,0,1,3.82-3.82Zm0,1.92H867a1.88,1.88,0,0,0-1.36.56,1.81,1.81,0,0,0-.57,1.34v0a1.93,1.93,0,0,0,3.85,0Z"/>
    <path class="cls-28" d="M884.25,664.53h3.83v6.87a6.59,6.59,0,0,1-6.55,6.55h-4.95V664.53h3.83V676h1.92a1.93,1.93,0,0,0,1.92-1.91Z"/>
    <path class="cls-28" d="M891.91,662.62V660.7h3.83v1.92Zm0,15.33V664.53h3.83V678Z"/>
    <path class="cls-28" d="M911.08,664.53v15.34a3.86,3.86,0,0,1-3.83,3.83h-3.84c-2.26,0-3.53-1.28-3.83-3.83h1.92c.09,1.27.73,1.91,1.91,1.91h1.92a1.85,1.85,0,0,0,1.35-.57,1.81,1.81,0,0,0,.57-1.34V676q-.22,1.92-1.92,1.92h-1.92a3.86,3.86,0,0,1-3.83-3.83v-5.75a3.84,3.84,0,0,1,3.83-3.84Zm-3.83,1.92h-1.92a1.95,1.95,0,0,0-1.92,1.92v5.75a1.92,1.92,0,0,0,3.28,1.34,1.81,1.81,0,0,0,.56-1.34Z"/>
    <path class="cls-28" d="M922.58,670.28v-1.91A1.81,1.81,0,0,0,922,667a1.85,1.85,0,0,0-1.35-.57h-1.92c-1.14,0-1.77.64-1.91,1.92h-1.92q.44-3.84,3.83-3.84h3.84a3.69,3.69,0,0,1,2.7,1.13,3.73,3.73,0,0,1,1.13,2.71V678h-3.83V676q-.23,1.92-1.92,1.92h-1.92a3.69,3.69,0,0,1-2.7-1.13,3.65,3.65,0,0,1-1.13-2.7v0a3.84,3.84,0,0,1,3.83-3.82Zm0,1.92h-1.92a1.88,1.88,0,0,0-1.36.56,1.8,1.8,0,0,0-.56,1.34v0a1.81,1.81,0,0,0,.56,1.34,1.92,1.92,0,0,0,3.28-1.34Z"/>
    <path class="cls-28" d="M932.16,660.7H936v3.83h1.92v1.92H936v7.67a1.71,1.71,0,0,0,.61,1.42,1.88,1.88,0,0,0,1.13.49h.18V678H936a3.84,3.84,0,0,1-3.83-3.83v-7.67h-1.92v-1.92h1.92Z"/>
    <path class="cls-28" d="M953.24,672.2h-7.68v1.92a1.93,1.93,0,0,0,1.93,1.91h1.92a1.68,1.68,0,0,0,1.9-1.91h1.93q-.45,3.82-3.83,3.83h-3.85a3.72,3.72,0,0,1-2.7-1.13,3.68,3.68,0,0,1-1.12-2.7v-5.75a3.84,3.84,0,0,1,3.82-3.84h3.85a3.69,3.69,0,0,1,2.7,1.13,3.73,3.73,0,0,1,1.13,2.71Zm-7.68-1.92h3.85v-1.91a1.81,1.81,0,0,0-.57-1.35,1.9,1.9,0,0,0-2.71,0,1.81,1.81,0,0,0-.57,1.35Z"/>
    <path class="cls-28" d="M962.68,662.62V660.7h3.82v1.92Zm0,15.33V664.53h3.82V678Z"/>
    <path class="cls-28" d="M970.35,678V664.53h3.83v1.92a2.4,2.4,0,0,1,.6-1.45,1.82,1.82,0,0,1,1.32-.47H978a3.69,3.69,0,0,1,2.7,1.13,3.73,3.73,0,0,1,1.13,2.71V678H978v-9.58a1.81,1.81,0,0,0-.57-1.35,1.92,1.92,0,0,0-3.27,1.35V678Z"/>
    <path class="cls-28" d="M993.22,660.7H997v3.83H999v1.92H997v7.67a1.74,1.74,0,0,0,.61,1.42,1.93,1.93,0,0,0,1.14.49H999V678H997a3.84,3.84,0,0,1-3.82-3.83v-7.67h-1.93v-1.92h1.93Z"/>
    <path class="cls-28" d="M1002.79,678V660.7h3.83v5.75a2.4,2.4,0,0,1,.6-1.45,1.82,1.82,0,0,1,1.32-.47h1.93a3.84,3.84,0,0,1,3.82,3.84V678h-3.82v-9.58a1.79,1.79,0,0,0-.58-1.35,1.88,1.88,0,0,0-2.7,0,1.81,1.81,0,0,0-.57,1.35V678Z"/>
    <path class="cls-28" d="M1029.62,672.2H1022v1.92a1.81,1.81,0,0,0,.56,1.34,1.84,1.84,0,0,0,1.36.57h1.92a1.69,1.69,0,0,0,1.91-1.91h1.92q-.45,3.82-3.83,3.83H1022a3.86,3.86,0,0,1-3.83-3.83v-5.75a3.84,3.84,0,0,1,3.83-3.84h3.84a3.69,3.69,0,0,1,2.7,1.13,3.73,3.73,0,0,1,1.13,2.71Zm-7.67-1.92h3.84v-1.91a1.81,1.81,0,0,0-.57-1.35,1.92,1.92,0,0,0-3.27,1.35Z"/>
    <path class="cls-28" d="M1039.06,678V664.53h3.83v1.92a2.4,2.4,0,0,1,.6-1.45,1.82,1.82,0,0,1,1.32-.47h1.93a3.86,3.86,0,0,1,3.82,3.84V678h-3.82v-9.58a1.82,1.82,0,0,0-.58-1.35,1.88,1.88,0,0,0-2.7,0,1.81,1.81,0,0,0-.57,1.35V678Z"/>
    <path class="cls-28" d="M1054.39,662.62V660.7h3.83v1.92Zm0,15.33V664.53h3.83V678Z"/>
    <path class="cls-28" d="M1062.06,664.53h3.83v1.92a1.93,1.93,0,0,1,.49-1.45,2,2,0,0,1,1.43-.47h1.93a3.86,3.86,0,0,1,3.82,3.84v5.75a3.86,3.86,0,0,1-3.82,3.83h-3.85v3.83h-3.83Zm3.83,11.5h1.92a1.85,1.85,0,0,0,1.35-.57,1.82,1.82,0,0,0,.58-1.34v-5.75a1.82,1.82,0,0,0-.58-1.35,1.87,1.87,0,0,0-1.35-.56,1.78,1.78,0,0,0-1.35.56,1.81,1.81,0,0,0-.57,1.35Z"/>
    <path class="cls-28" d="M1077.39,664.53h3.83v1.92a2,2,0,0,1,.48-1.45,2,2,0,0,1,1.44-.47h1.92a3.69,3.69,0,0,1,2.7,1.13,3.73,3.73,0,0,1,1.13,2.71v5.75a3.86,3.86,0,0,1-3.83,3.83h-3.84v3.83h-3.83Zm3.83,11.5h1.92a1.85,1.85,0,0,0,1.35-.57,1.81,1.81,0,0,0,.57-1.34v-5.75a1.81,1.81,0,0,0-.57-1.35,1.87,1.87,0,0,0-1.35-.56,1.8,1.8,0,0,0-1.36.56,1.84,1.84,0,0,0-.56,1.35Z"/>
    <path class="cls-28" d="M1092.72,678V660.7h3.82V678Z"/>
    <path class="cls-28" d="M1111.89,672.2h-7.67v1.92a1.81,1.81,0,0,0,.56,1.34,1.84,1.84,0,0,0,1.36.57h1.92a1.69,1.69,0,0,0,1.91-1.91h1.92q-.45,3.82-3.83,3.83h-3.84a3.86,3.86,0,0,1-3.83-3.83v-5.75a3.73,3.73,0,0,1,1.13-2.72,3.69,3.69,0,0,1,2.7-1.12h3.84a3.69,3.69,0,0,1,2.7,1.13,3.73,3.73,0,0,1,1.13,2.71Zm-7.67-1.92h3.84v-1.91a1.81,1.81,0,0,0-.57-1.35,1.92,1.92,0,0,0-3.27,1.35Z"/>
    <path class="cls-28" d="M1125.16,664.53H1129V678a3.86,3.86,0,0,1-3.83,3.83h-1.92q-3.39,0-3.83-3.83h1.92c.12,1.28.75,1.92,1.91,1.92a1.93,1.93,0,0,0,1.92-1.92Zm0-1.91V660.7H1129v1.92Z"/>
    <path class="cls-28" d="M1144.33,664.53V678h-3.83V676q-.23,1.92-1.92,1.92h-1.92a3.86,3.86,0,0,1-3.83-3.83v-9.59h3.83v9.59a1.93,1.93,0,0,0,1.92,1.91,1.93,1.93,0,0,0,1.92-1.91v-9.59Z"/>
    <path class="cls-28" d="M1148.16,678V664.53H1152v1.92a2.34,2.34,0,0,1,.59-1.45,1.84,1.84,0,0,1,1.33-.47h1.92a3.69,3.69,0,0,1,2.7,1.13,3.73,3.73,0,0,1,1.13,2.71V678h-3.83v-9.58a1.81,1.81,0,0,0-.57-1.35,1.9,1.9,0,0,0-2.71,0,1.8,1.8,0,0,0-.56,1.35V678Z"/>
    <path class="cls-28" d="M1175,664.53v15.34a3.88,3.88,0,0,1-3.83,3.83h-3.85c-2.25,0-3.53-1.28-3.82-3.83h1.92c.09,1.27.72,1.91,1.9,1.91h1.93a1.85,1.85,0,0,0,1.35-.57,1.81,1.81,0,0,0,.57-1.34V676q-.23,1.92-1.92,1.92h-1.93a3.72,3.72,0,0,1-2.7-1.13,3.68,3.68,0,0,1-1.12-2.7v-5.75a3.84,3.84,0,0,1,3.82-3.84Zm-3.83,1.92h-1.92a1.85,1.85,0,0,0-1.36.57,1.81,1.81,0,0,0-.57,1.35v5.75a1.95,1.95,0,0,0,1.93,1.91,1.93,1.93,0,0,0,1.92-1.91Z"/>
    <path class="cls-28" d="M1178.81,678V660.7h3.83V678Z"/>
    <path class="cls-28" d="M1198,672.2h-7.68v1.92a1.95,1.95,0,0,0,1.93,1.91h1.92a1.68,1.68,0,0,0,1.9-1.91H1198q-.45,3.82-3.83,3.83h-3.85a3.72,3.72,0,0,1-2.7-1.13,3.68,3.68,0,0,1-1.12-2.7v-5.75a3.84,3.84,0,0,1,3.82-3.84h3.85a3.69,3.69,0,0,1,2.7,1.13,3.73,3.73,0,0,1,1.13,2.71Zm-7.68-1.92h3.85v-1.91a1.81,1.81,0,0,0-.57-1.35,1.9,1.9,0,0,0-2.71,0,1.81,1.81,0,0,0-.57,1.35Z"/>
    <path class="cls-28" d="M716.2,705.55V688.3H720v5.75a2.4,2.4,0,0,1,.6-1.45,1.82,1.82,0,0,1,1.32-.47h1.93A3.86,3.86,0,0,1,727.7,696v5.75a3.88,3.88,0,0,1-3.82,3.83Zm3.83-1.92H722a1.95,1.95,0,0,0,1.93-1.91V696a1.8,1.8,0,0,0-.58-1.35A1.92,1.92,0,0,0,720,696Z"/>
    <path class="cls-28" d="M733.45,707.47c.09,1.27.73,1.91,1.91,1.91h1.92a1.87,1.87,0,0,0,1.35-.56,1.85,1.85,0,0,0,.57-1.35v-3.84q-.23,1.92-1.92,1.92h-1.92a3.86,3.86,0,0,1-3.83-3.83v-9.59h3.83v9.59a1.81,1.81,0,0,0,.56,1.34,1.91,1.91,0,0,0,2.72,0,1.81,1.81,0,0,0,.56-1.34v-9.59H743v15.34a3.88,3.88,0,0,1-3.83,3.83h-3.84q-3.39,0-3.83-3.83Z"/>
    <path class="cls-28" d="M762.05,696h-1.91q-.23-1.92-1.92-1.92A1.95,1.95,0,0,0,756.3,696v5.75a1.93,1.93,0,0,0,1.92,1.91c1.13,0,1.77-.64,1.92-1.91h1.91c-.16,2.55-1.43,3.83-3.83,3.83H756.3a3.86,3.86,0,0,1-3.83-3.83V696a3.84,3.84,0,0,1,3.83-3.84h1.92Q761.84,692.13,762.05,696Z"/>
    <path class="cls-28" d="M765.89,705.55V688.3h3.83v17.25Z"/>
    <path class="cls-28" d="M773.57,690.22V688.3h3.82v1.92Zm0,15.33V692.13h3.82v13.42Z"/>
    <path class="cls-28" d="M790.82,696h-1.91q-.23-1.92-1.92-1.92a1.85,1.85,0,0,0-1.36.57,1.82,1.82,0,0,0-.56,1.35v5.75a1.81,1.81,0,0,0,.56,1.34,1.84,1.84,0,0,0,1.36.57c1.13,0,1.77-.64,1.92-1.91h1.91q-.24,3.82-3.83,3.83h-1.92a3.69,3.69,0,0,1-2.7-1.13,3.65,3.65,0,0,1-1.13-2.7V696a3.73,3.73,0,0,1,1.13-2.72,3.69,3.69,0,0,1,2.7-1.12H787C789.4,692.13,790.67,693.41,790.82,696Z"/>
    <path class="cls-28" d="M794.66,705.55V688.3h3.83v8.62l5.75-4.79h3.84l-8,6.72,8,6.7h-3.84l-5.75-4.8v4.8Z"/>
    <path class="cls-28" d="M810,690.22V688.3h3.83v1.92Zm0,15.33V692.13h3.83v13.42Z"/>
    <path class="cls-28" d="M817.66,705.55V692.13h3.83v1.92a2.4,2.4,0,0,1,.6-1.45,1.82,1.82,0,0,1,1.32-.47h1.92a3.86,3.86,0,0,1,3.83,3.84v9.58h-3.83V696a1.95,1.95,0,0,0-1.92-1.92,1.93,1.93,0,0,0-1.92,1.92v9.58Z"/>
    <path class="cls-28" d="M844.49,692.13v15.34a3.88,3.88,0,0,1-3.83,3.83h-3.84q-3.39,0-3.83-3.83h1.92c.09,1.27.73,1.91,1.91,1.91h1.92a1.87,1.87,0,0,0,1.35-.56,1.85,1.85,0,0,0,.57-1.35v-3.84q-.23,1.92-1.92,1.92h-1.92a3.69,3.69,0,0,1-2.7-1.13,3.65,3.65,0,0,1-1.13-2.7V696a3.73,3.73,0,0,1,1.13-2.72,3.69,3.69,0,0,1,2.7-1.12Zm-3.83,1.92h-1.92a1.85,1.85,0,0,0-1.36.57,1.82,1.82,0,0,0-.56,1.35v5.75a1.81,1.81,0,0,0,.56,1.34,1.92,1.92,0,0,0,3.28-1.34Z"/>
    <path class="cls-28" d="M861.6,697.88V696a1.95,1.95,0,0,0-1.92-1.92h-1.92c-1.13,0-1.77.64-1.91,1.92h-1.92q.44-3.84,3.83-3.84h3.84a3.69,3.69,0,0,1,2.7,1.13,3.73,3.73,0,0,1,1.13,2.71v9.58H861.6v-1.92q-.23,1.92-1.92,1.92h-1.92a3.86,3.86,0,0,1-3.83-3.83v0a3.84,3.84,0,0,1,3.83-3.82Zm0,1.92h-1.92a1.88,1.88,0,0,0-1.36.56,1.85,1.85,0,0,0-.56,1.34v0a1.81,1.81,0,0,0,.56,1.34,1.91,1.91,0,0,0,2.72,0,1.81,1.81,0,0,0,.56-1.34Z"/>
    <path class="cls-28" d="M869.26,705.55V688.3h3.82v17.25Z"/>
    <path class="cls-28" d="M876.93,705.55V688.3h3.83v17.25Z"/>
    <path class="cls-28" d="M892.14,688.3H896v3.83h1.92v1.92H896v7.67a1.71,1.71,0,0,0,.61,1.42,1.9,1.9,0,0,0,1.13.49h.18v1.92H896a3.84,3.84,0,0,1-3.83-3.83v-7.67h-1.92v-1.92h1.92Z"/>
    <path class="cls-28" d="M901.72,705.55V688.3h3.82v5.75a2.4,2.4,0,0,1,.6-1.45,1.83,1.83,0,0,1,1.33-.47h1.92a3.69,3.69,0,0,1,2.7,1.13,3.73,3.73,0,0,1,1.13,2.71v9.58h-3.83V696a1.95,1.95,0,0,0-1.92-1.92,1.85,1.85,0,0,0-1.36.57,1.83,1.83,0,0,0-.57,1.35v9.58Z"/>
    <path class="cls-28" d="M928.54,699.8h-7.67v1.92a1.93,1.93,0,0,0,1.92,1.91h1.93a1.68,1.68,0,0,0,1.9-1.91h1.92c-.29,2.55-1.57,3.83-3.82,3.83h-3.85a3.86,3.86,0,0,1-3.83-3.83V696a3.86,3.86,0,0,1,3.83-3.84h3.85a3.84,3.84,0,0,1,3.82,3.84Zm-7.67-1.92h3.85V696a1.83,1.83,0,0,0-.57-1.35,1.9,1.9,0,0,0-2.71,0,1.83,1.83,0,0,0-.57,1.35Z"/>
    <path class="cls-28" d="M939.91,705.55v-11.5H938v-1.92h1.92V692a3.69,3.69,0,0,1,3.66-3.66h4v1.92h-2.08a1.65,1.65,0,0,0-1.23.52,1.67,1.67,0,0,0-.51,1.22v.17h1.92v1.92h-1.92v11.5Z"/>
    <path class="cls-28" d="M961,699.8h-7.68v1.92a1.95,1.95,0,0,0,1.93,1.91h1.92a1.68,1.68,0,0,0,1.9-1.91H961q-.45,3.82-3.83,3.83h-3.85a3.72,3.72,0,0,1-2.7-1.13,3.68,3.68,0,0,1-1.12-2.7V696a3.84,3.84,0,0,1,3.82-3.84h3.85a3.69,3.69,0,0,1,2.7,1.13A3.73,3.73,0,0,1,961,696Zm-7.68-1.92h3.85V696a1.95,1.95,0,0,0-1.92-1.92,1.85,1.85,0,0,0-1.36.57,1.83,1.83,0,0,0-.57,1.35Z"/>
    <path class="cls-28" d="M976.31,705.55h-3.82V696a1.83,1.83,0,0,0-.57-1.35,1.87,1.87,0,0,0-1.36-.57,1.95,1.95,0,0,0-1.92,1.92v9.58h-3.83V692.13h3.83v1.92a2.4,2.4,0,0,1,.6-1.45,1.82,1.82,0,0,1,1.32-.47h1.93a3.24,3.24,0,0,1,2.87,1.35,2.88,2.88,0,0,1,1.17-1,4.08,4.08,0,0,1,1.71-.33h1.9A3.86,3.86,0,0,1,984,696v9.58h-3.85V696a1.85,1.85,0,0,0-.57-1.35,1.8,1.8,0,0,0-1.33-.57,1.85,1.85,0,0,0-1.36.57,1.83,1.83,0,0,0-.57,1.35Z"/>
    <path class="cls-28" d="M995.49,697.88V696a1.83,1.83,0,0,0-.57-1.35,1.87,1.87,0,0,0-1.36-.57h-1.92c-1.13,0-1.77.64-1.9,1.92h-1.93c.3-2.56,1.57-3.84,3.83-3.84h3.85a3.84,3.84,0,0,1,3.82,3.84v9.58h-3.82v-1.92c-.15,1.28-.79,1.92-1.93,1.92h-1.92a3.86,3.86,0,0,1-3.83-3.83v0a3.86,3.86,0,0,1,3.83-3.82Zm0,1.92h-1.93a1.86,1.86,0,0,0-1.35.56,1.82,1.82,0,0,0-.57,1.34v0a1.93,1.93,0,0,0,1.92,1.91,1.95,1.95,0,0,0,1.93-1.91Z"/>
    <path class="cls-28" d="M1003.14,705.55V688.3H1007v17.25Z"/>
    <path class="cls-28" d="M1022.31,699.8h-7.67v1.92a1.93,1.93,0,0,0,1.92,1.91h1.93a1.68,1.68,0,0,0,1.9-1.91h1.92q-.45,3.82-3.82,3.83h-3.85a3.86,3.86,0,0,1-3.83-3.83V696a3.86,3.86,0,0,1,3.83-3.84h3.85a3.84,3.84,0,0,1,3.82,3.84Zm-7.67-1.92h3.85V696a1.83,1.83,0,0,0-.57-1.35,1.87,1.87,0,0,0-1.36-.57,1.95,1.95,0,0,0-1.92,1.92Z"/>
    <path class="cls-28" d="M1031.76,705.55V688.3h3.82v5.75a2.4,2.4,0,0,1,.6-1.45,1.83,1.83,0,0,1,1.33-.47h1.92a3.69,3.69,0,0,1,2.7,1.13,3.73,3.73,0,0,1,1.13,2.71v5.75a3.88,3.88,0,0,1-3.83,3.83Zm3.82-1.92h1.93a1.93,1.93,0,0,0,1.92-1.91V696a1.95,1.95,0,0,0-1.92-1.92,1.85,1.85,0,0,0-1.36.57,1.83,1.83,0,0,0-.57,1.35Z"/>
    <path class="cls-28" d="M1050.91,705.55h-3.83V692.13h3.83V696a4.73,4.73,0,0,1,1.19-2.88,3.58,3.58,0,0,1,2.66-1h1.9V696h-3.83a1.93,1.93,0,0,0-1.92,1.91Z"/>
    <path class="cls-28" d="M1070.08,699.8h-7.67v1.92a1.93,1.93,0,0,0,1.92,1.91h1.93a1.68,1.68,0,0,0,1.9-1.91h1.92q-.45,3.82-3.82,3.83h-3.85a3.86,3.86,0,0,1-3.83-3.83V696a3.84,3.84,0,0,1,3.83-3.84h3.85a3.84,3.84,0,0,1,3.82,3.84Zm-7.67-1.92h3.85V696a1.8,1.8,0,0,0-.58-1.35,1.92,1.92,0,0,0-3.27,1.35Z"/>
    <path class="cls-28" d="M1081.58,697.88V696a1.95,1.95,0,0,0-1.92-1.92h-1.92c-1.13,0-1.77.64-1.91,1.92h-1.92q.43-3.84,3.83-3.84h3.84a3.69,3.69,0,0,1,2.7,1.13,3.73,3.73,0,0,1,1.13,2.71v9.58h-3.83v-1.92q-.22,1.92-1.92,1.92h-1.92a3.86,3.86,0,0,1-3.83-3.83v0a3.84,3.84,0,0,1,3.83-3.82Zm0,1.92h-1.92a1.88,1.88,0,0,0-1.36.56,1.85,1.85,0,0,0-.56,1.34v0a1.81,1.81,0,0,0,.56,1.34,1.91,1.91,0,0,0,2.72,0,1.81,1.81,0,0,0,.56-1.34Z"/>
    <path class="cls-28" d="M1098.81,696h-1.9c-.17-1.28-.77-1.92-1.82-1.92a2.42,2.42,0,0,0-1.52.4,1.42,1.42,0,0,0-.51,1.19c0,.55.93,1.32,2.79,2.32,1.52.81,2.39,1.49,2.62,2a4.33,4.33,0,0,1,.34,1.72,3.84,3.84,0,0,1-3.82,3.85h-1.93q-3.82,0-3.82-3.83h1.92q.22,1.92,1.8,1.92a2.42,2.42,0,0,0,1.52-.41A1.41,1.41,0,0,0,1095,702c0-.54-.93-1.31-2.79-2.32-1.52-.81-2.4-1.48-2.63-2a4.31,4.31,0,0,1-.34-1.71,3.72,3.72,0,0,1,1.13-2.74,3.67,3.67,0,0,1,2.69-1.12H1095C1097.38,692.13,1098.66,693.41,1098.81,696Z"/>
    <path class="cls-28" d="M1104.58,688.3h3.83v3.83h1.92v1.92h-1.92v7.67a1.71,1.71,0,0,0,.61,1.42,1.93,1.93,0,0,0,1.13.49h.18v1.92h-1.92a3.86,3.86,0,0,1-3.83-3.83v-7.67h-1.92v-1.92h1.92Z"/>
    <path class="cls-28" d="M1123.74,696h-1.91c-.16-1.28-.77-1.92-1.81-1.92a2.43,2.43,0,0,0-1.53.4,1.42,1.42,0,0,0-.51,1.19c0,.55.93,1.32,2.79,2.32,1.52.81,2.39,1.49,2.62,2a4.34,4.34,0,0,1,.35,1.72,3.86,3.86,0,0,1-3.83,3.85H1118q-3.83,0-3.83-3.83h1.92q.23,1.92,1.8,1.92a2.43,2.43,0,0,0,1.53-.41,1.43,1.43,0,0,0,.51-1.19c0-.54-.93-1.31-2.79-2.32-1.52-.81-2.39-1.48-2.62-2a4.32,4.32,0,0,1-.35-1.71,3.76,3.76,0,0,1,1.13-2.74,3.71,3.71,0,0,1,2.7-1.12h1.92C1122.31,692.13,1123.58,693.41,1123.74,696Z"/>
    <path class="cls-28" d="M1140.87,697.88V696a1.95,1.95,0,0,0-1.92-1.92H1137c-1.14,0-1.77.64-1.91,1.92h-1.92q.43-3.84,3.83-3.84h3.84a3.69,3.69,0,0,1,2.7,1.13,3.73,3.73,0,0,1,1.13,2.71v9.58h-3.83v-1.92q-.22,1.92-1.92,1.92H1137a3.69,3.69,0,0,1-2.7-1.13,3.65,3.65,0,0,1-1.13-2.7v0a3.72,3.72,0,0,1,1.13-2.7,3.68,3.68,0,0,1,2.7-1.12Zm0,1.92H1139a1.88,1.88,0,0,0-1.36.56,1.81,1.81,0,0,0-.56,1.34v0a1.81,1.81,0,0,0,.56,1.34,1.92,1.92,0,0,0,3.28-1.34Z"/>
    <path class="cls-28" d="M1148.53,705.55V692.13h3.82v1.92a2.4,2.4,0,0,1,.6-1.45,1.83,1.83,0,0,1,1.33-.47h1.92a3.69,3.69,0,0,1,2.7,1.13A3.73,3.73,0,0,1,1160,696v9.58h-3.83V696a1.95,1.95,0,0,0-1.92-1.92,1.85,1.85,0,0,0-1.36.57,1.83,1.83,0,0,0-.57,1.35v9.58Z"/>
    <path class="cls-28" d="M1175.35,705.55h-3.82v-1.92c-.15,1.28-.8,1.92-1.93,1.92h-1.92a3.86,3.86,0,0,1-3.83-3.83V696a3.84,3.84,0,0,1,3.83-3.84h3.85V688.3h3.82Zm-3.82-11.5h-1.93a1.95,1.95,0,0,0-1.92,1.92v5.75a1.93,1.93,0,0,0,1.92,1.91,1.95,1.95,0,0,0,1.93-1.91Z"/>
    <path class="cls-28" d="M728,719.73v15.34a3.88,3.88,0,0,1-3.83,3.83h-3.85q-3.39,0-3.82-3.83h1.92c.09,1.27.72,1.91,1.9,1.91h1.93a1.87,1.87,0,0,0,1.35-.56,1.85,1.85,0,0,0,.57-1.35v-3.84q-.23,1.92-1.92,1.92h-1.93a3.84,3.84,0,0,1-3.82-3.83v-5.75a3.84,3.84,0,0,1,3.82-3.84Zm-3.83,1.92h-1.92a1.85,1.85,0,0,0-1.36.57,1.81,1.81,0,0,0-.57,1.35v5.75a1.93,1.93,0,0,0,3.85,0Z"/>
    <path class="cls-28" d="M731.84,717.82V715.9h3.83v1.92Zm0,15.33V719.73h3.83v13.42Z"/>
    <path class="cls-28" d="M747.19,719.73H751v6.87a6.61,6.61,0,0,1-6.55,6.55h-5V719.73h3.82v11.5h1.93a1.93,1.93,0,0,0,1.92-1.91Z"/>
    <path class="cls-28" d="M766.34,727.4h-7.67v1.92a1.93,1.93,0,0,0,1.92,1.91h1.92a1.69,1.69,0,0,0,1.91-1.91h1.92c-.3,2.55-1.57,3.83-3.83,3.83h-3.84a3.86,3.86,0,0,1-3.83-3.83v-5.75a3.84,3.84,0,0,1,3.83-3.84h3.84a3.86,3.86,0,0,1,3.83,3.84Zm-7.67-1.92h3.84v-1.91a1.81,1.81,0,0,0-.57-1.35,1.85,1.85,0,0,0-1.35-.57,1.95,1.95,0,0,0-1.92,1.92Z"/>
    <path class="cls-28" d="M779.61,719.73h3.85a3.84,3.84,0,0,1,3.82,3.84v5.75a3.86,3.86,0,0,1-3.82,3.83h-3.85a3.86,3.86,0,0,1-3.83-3.83v-5.75a3.86,3.86,0,0,1,3.83-3.84Zm0,3.84v5.75a1.93,1.93,0,0,0,3.85,0v-5.75a1.81,1.81,0,0,0-.57-1.35,1.9,1.9,0,0,0-2.71,0A1.81,1.81,0,0,0,779.61,723.57Z"/>
    <path class="cls-28" d="M802.61,719.73v13.42h-3.83v-1.92q-.22,1.92-1.92,1.92h-1.92a3.86,3.86,0,0,1-3.83-3.83v-9.59h3.83v9.59a1.92,1.92,0,0,0,3.28,1.34,1.81,1.81,0,0,0,.56-1.34v-9.59Z"/>
    <path class="cls-28" d="M808.36,715.9h3.83v3.83h1.92v1.92h-1.92v7.67a1.71,1.71,0,0,0,.61,1.42,1.9,1.9,0,0,0,1.13.49h.18v1.92h-1.92a3.84,3.84,0,0,1-3.83-3.83v-7.67h-1.92v-1.92h1.92Z"/>
    <path class="cls-3" d="M827.38,733.15V719.73h-1.92v-1.91l3.83-1.92h1.92v17.25Z"/>
    <path class="cls-3" d="M842.71,715.9h3.84a3.86,3.86,0,0,1,3.83,3.83v9.59a3.88,3.88,0,0,1-3.83,3.83h-3.84a3.86,3.86,0,0,1-3.83-3.83v-9.59a3.86,3.86,0,0,1,3.83-3.83Zm3.81,3.5a1.83,1.83,0,0,0-1.89-1.58,1.91,1.91,0,0,0-1.92,1.91v6.52Zm-3.77,10.22a2,2,0,0,0,.62,1.2,1.85,1.85,0,0,0,1.26.41,1.84,1.84,0,0,0,1.36-.57,1.81,1.81,0,0,0,.56-1.34v-6.51Z"/>
    <path class="cls-28" d="M863.65,733.15h-3.83V719.73h3.83v3.84a4.73,4.73,0,0,1,1.19-2.88,3.58,3.58,0,0,1,2.66-1h1.9v3.84h-3.83a1.93,1.93,0,0,0-1.92,1.91Z"/>
    <path class="cls-28" d="M882.82,727.4h-7.67v1.92a1.93,1.93,0,0,0,1.92,1.91H879a1.68,1.68,0,0,0,1.9-1.91h1.92q-.45,3.82-3.82,3.83h-3.85a3.86,3.86,0,0,1-3.83-3.83v-5.75a3.86,3.86,0,0,1,3.83-3.84H879a3.84,3.84,0,0,1,3.82,3.84Zm-7.67-1.92H879v-1.91a1.81,1.81,0,0,0-.57-1.35,1.87,1.87,0,0,0-1.36-.57,1.95,1.95,0,0,0-1.92,1.92Z"/>
    <path class="cls-28" d="M886.65,719.73h3.83v1.92a2,2,0,0,1,.48-1.45,2,2,0,0,1,1.44-.47h1.92a3.69,3.69,0,0,1,2.7,1.13,3.73,3.73,0,0,1,1.13,2.71v5.75a3.86,3.86,0,0,1-3.83,3.83h-3.84V737h-3.83Zm3.83,11.5h1.92a1.87,1.87,0,0,0,1.35-.56,1.85,1.85,0,0,0,.57-1.35v-5.75a1.81,1.81,0,0,0-.57-1.35,1.87,1.87,0,0,0-1.35-.56,1.8,1.8,0,0,0-1.36.56,1.84,1.84,0,0,0-.56,1.35Z"/>
    <path class="cls-28" d="M905.81,719.73h3.84a3.69,3.69,0,0,1,2.7,1.13,3.73,3.73,0,0,1,1.13,2.71v5.75a3.7,3.7,0,0,1-1.13,2.69,3.66,3.66,0,0,1-2.7,1.14h-3.84a3.69,3.69,0,0,1-2.7-1.13,3.65,3.65,0,0,1-1.13-2.7v-5.75a3.84,3.84,0,0,1,3.83-3.84Zm0,3.84v5.75a1.93,1.93,0,0,0,1.92,1.91,1.93,1.93,0,0,0,1.92-1.91v-5.75a1.81,1.81,0,0,0-.57-1.35,1.9,1.9,0,0,0-2.71,0A1.8,1.8,0,0,0,905.81,723.57Z"/>
    <path class="cls-28" d="M921.13,733.15h-3.82V719.73h3.82v3.84a4.73,4.73,0,0,1,1.19-2.88,3.6,3.6,0,0,1,2.66-1h1.9v3.84h-3.82a1.88,1.88,0,0,0-1.36.56,1.85,1.85,0,0,0-.57,1.35Z"/>
    <path class="cls-28" d="M930.73,715.9h3.83v3.83h1.92v1.92h-1.92v7.67a1.71,1.71,0,0,0,.61,1.42,1.88,1.88,0,0,0,1.13.49h.18v1.92h-1.92a3.84,3.84,0,0,1-3.83-3.83v-7.67h-1.92v-1.92h1.92Z"/>
    <path class="cls-28" d="M949.88,723.57H948c-.17-1.28-.77-1.92-1.82-1.92a2.42,2.42,0,0,0-1.52.4,1.4,1.4,0,0,0-.52,1.19c0,.55.93,1.32,2.8,2.32,1.51.81,2.39,1.49,2.62,2a4.31,4.31,0,0,1,.34,1.71,3.86,3.86,0,0,1-3.82,3.86h-1.93q-3.82,0-3.82-3.83h1.92c.15,1.28.75,1.92,1.79,1.92a2.43,2.43,0,0,0,1.53-.41,1.43,1.43,0,0,0,.51-1.19c0-.54-.92-1.31-2.78-2.32-1.52-.81-2.4-1.48-2.63-2a4.31,4.31,0,0,1-.34-1.71,3.72,3.72,0,0,1,1.13-2.74,3.67,3.67,0,0,1,2.69-1.12h1.93C948.45,719.73,949.73,721,949.88,723.57Z"/>
    <path class="cls-28" d="M959.34,719.73h3.83v11.5h1.92a1.95,1.95,0,0,0,1.93-1.91v-9.59h3.82v11.5h1.93a1.82,1.82,0,0,0,1.34-.57,1.85,1.85,0,0,0,.56-1.34v-9.59h3.85v6.87a6.61,6.61,0,0,1-6.55,6.55h-5v-.61a5.57,5.57,0,0,1-2.73.61h-4.95Z"/>
    <path class="cls-28" d="M982.34,717.82V715.9h3.83v1.92Zm0,15.33V719.73h3.83v13.42Z"/>
    <path class="cls-28" d="M991.94,715.9h3.83v3.83h1.92v1.92h-1.92v7.67a1.71,1.71,0,0,0,.61,1.42,1.88,1.88,0,0,0,1.13.49h.18v1.92h-1.92a3.84,3.84,0,0,1-3.83-3.83v-7.67H990v-1.92h1.92Z"/>
    <path class="cls-28" d="M1001.52,733.15V715.9h3.82v5.75a2.4,2.4,0,0,1,.6-1.45,1.83,1.83,0,0,1,1.33-.47h1.92a3.69,3.69,0,0,1,2.7,1.13,3.73,3.73,0,0,1,1.13,2.71v9.58h-3.83v-9.58a1.81,1.81,0,0,0-.57-1.35,1.9,1.9,0,0,0-2.71,0,1.81,1.81,0,0,0-.57,1.35v9.58Z"/>
    <path class="cls-28" d="M1016.84,717.82V715.9h3.83v1.92Zm0,15.33V719.73h3.83v13.42Z"/>
    <path class="cls-28" d="M1024.52,733.15V719.73h3.82v1.92a2.4,2.4,0,0,1,.6-1.45,1.83,1.83,0,0,1,1.33-.47h1.92a3.69,3.69,0,0,1,2.7,1.13,3.73,3.73,0,0,1,1.13,2.71v9.58h-3.83v-9.58a1.81,1.81,0,0,0-.57-1.35,1.9,1.9,0,0,0-2.71,0,1.81,1.81,0,0,0-.57,1.35v9.58Z"/>
    <path class="cls-3" d="M1045.46,715.9H1057v1.92l-5.74,3.83h1.92a3.48,3.48,0,0,1,2.74,1.26,4,4,0,0,1,1.09,2.57v3.84a3.66,3.66,0,0,1-1.14,2.7,3.7,3.7,0,0,1-2.69,1.13h-3.84q-3.39,0-3.83-3.83h1.92c.09,1.27.73,1.91,1.91,1.91h1.92a1.87,1.87,0,0,0,1.35-.56,1.85,1.85,0,0,0,.57-1.35v-3.84a2.38,2.38,0,0,0-.48-1.18,1.6,1.6,0,0,0-1.44-.73h-3.83v-1.92l5.75-3.83h-7.67Z"/>
    <path class="cls-3" d="M1064.61,715.9h3.85a3.86,3.86,0,0,1,3.83,3.83v9.59a3.7,3.7,0,0,1-1.13,2.69,3.66,3.66,0,0,1-2.7,1.14h-3.85a3.84,3.84,0,0,1-3.82-3.83v-9.59a3.84,3.84,0,0,1,3.82-3.83Zm3.81,3.5a1.82,1.82,0,0,0-1.88-1.58,1.88,1.88,0,0,0-1.36.56,1.85,1.85,0,0,0-.57,1.35v6.52Zm-3.76,10.22a2,2,0,0,0,.61,1.2,1.9,1.9,0,0,0,1.27.41,1.93,1.93,0,0,0,1.92-1.91v-6.51Z"/>
    <path class="cls-28" d="M1091.3,723.57h-1.9c-.17-1.28-.77-1.92-1.82-1.92a2.42,2.42,0,0,0-1.52.4,1.42,1.42,0,0,0-.51,1.19c0,.55.93,1.32,2.79,2.32,1.52.81,2.39,1.49,2.62,2a4.31,4.31,0,0,1,.34,1.71,3.84,3.84,0,0,1-3.82,3.86h-1.93q-3.83,0-3.82-3.83h1.92q.22,1.92,1.8,1.92a2.42,2.42,0,0,0,1.52-.41,1.41,1.41,0,0,0,.52-1.19c0-.54-.93-1.31-2.79-2.32-1.52-.81-2.4-1.48-2.63-2a4.31,4.31,0,0,1-.34-1.71,3.72,3.72,0,0,1,1.13-2.74,3.67,3.67,0,0,1,2.69-1.12h1.93C1089.87,719.73,1091.15,721,1091.3,723.57Z"/>
    <path class="cls-28" d="M1106.65,727.4H1099v1.92a1.93,1.93,0,0,0,1.92,1.91h1.92a1.69,1.69,0,0,0,1.91-1.91h1.92c-.3,2.55-1.57,3.83-3.83,3.83H1099a3.86,3.86,0,0,1-3.83-3.83v-5.75a3.84,3.84,0,0,1,3.83-3.84h3.84a3.69,3.69,0,0,1,2.7,1.13,3.73,3.73,0,0,1,1.13,2.71Zm-7.67-1.92h3.84v-1.91a1.81,1.81,0,0,0-.57-1.35,1.92,1.92,0,0,0-3.27,1.35Z"/>
    <path class="cls-28" d="M1120.05,723.57h-1.9q-.23-1.92-1.92-1.92a1.85,1.85,0,0,0-1.36.57,1.81,1.81,0,0,0-.57,1.35v5.75a1.95,1.95,0,0,0,1.93,1.91c1.13,0,1.77-.64,1.92-1.91h1.9c-.15,2.55-1.43,3.83-3.82,3.83h-1.93a3.72,3.72,0,0,1-2.7-1.13,3.68,3.68,0,0,1-1.12-2.7v-5.75a3.84,3.84,0,0,1,3.82-3.84h1.93C1118.63,719.73,1119.91,721,1120.05,723.57Z"/>
    <path class="cls-28" d="M1127.73,719.73h3.84a3.69,3.69,0,0,1,2.7,1.13,3.73,3.73,0,0,1,1.13,2.71v5.75a3.7,3.7,0,0,1-1.13,2.69,3.66,3.66,0,0,1-2.7,1.14h-3.84a3.86,3.86,0,0,1-3.83-3.83v-5.75a3.84,3.84,0,0,1,3.83-3.84Zm0,3.84v5.75a1.92,1.92,0,0,0,3.28,1.34,1.81,1.81,0,0,0,.56-1.34v-5.75a1.81,1.81,0,0,0-.57-1.35,1.92,1.92,0,0,0-3.27,1.35Z"/>
    <path class="cls-28" d="M1139.23,733.15V719.73h3.82v1.92a2.4,2.4,0,0,1,.6-1.45,1.83,1.83,0,0,1,1.33-.47h1.92a3.69,3.69,0,0,1,2.7,1.13,3.73,3.73,0,0,1,1.13,2.71v9.58h-3.83v-9.58a1.81,1.81,0,0,0-.57-1.35,1.9,1.9,0,0,0-2.71,0,1.81,1.81,0,0,0-.57,1.35v9.58Z"/>
    <path class="cls-28" d="M1166.05,733.15h-3.82v-1.92c-.15,1.28-.79,1.92-1.93,1.92h-1.92a3.86,3.86,0,0,1-3.83-3.83v-5.75a3.86,3.86,0,0,1,3.83-3.84h3.85V715.9h3.82Zm-3.82-11.5h-1.93a1.85,1.85,0,0,0-1.35.57,1.81,1.81,0,0,0-.57,1.35v5.75a1.93,1.93,0,0,0,3.85,0Z"/>
    <path class="cls-28" d="M1179.46,723.57h-1.91c-.16-1.28-.77-1.92-1.81-1.92a2.43,2.43,0,0,0-1.53.4,1.42,1.42,0,0,0-.51,1.19c0,.55.93,1.32,2.79,2.32,1.52.81,2.39,1.49,2.62,2a4.32,4.32,0,0,1,.35,1.71,3.86,3.86,0,0,1-3.83,3.86h-1.92q-3.82,0-3.83-3.83h1.92q.23,1.92,1.8,1.92a2.43,2.43,0,0,0,1.53-.41,1.43,1.43,0,0,0,.51-1.19c0-.54-.93-1.31-2.78-2.32-1.53-.81-2.4-1.48-2.63-2a4.32,4.32,0,0,1-.35-1.71,3.76,3.76,0,0,1,1.13-2.74,3.71,3.71,0,0,1,2.7-1.12h1.92C1178,719.73,1179.3,721,1179.46,723.57Z"/>
    <path class="cls-28" d="M1183.3,733.15v-3.83h3.83v3.83Z"/>
  </g>
  <polygon points="993.47 780.37 930.82 780.37 930.82 815.35 989.4 815.35 969.88 797.86 993.47 780.37"/>
  <polygon class="cls-3" points="988.66 782.11 932.28 782.11 932.28 813.6 985 813.6 967.42 797.86 988.66 782.11"/>
  <rect x="930.19" y="780.37" width="2.09" height="65.48"/>
</svg>
